  0
SECTION
  2
HEADER
  9
$ACADVER
  1
AC1015
  9
$ACADMAINTVER
 70
     6
  9
$DWGCODEPAGE
  3
ANSI_1252
  9
$INSBASE
 10
0.0
 20
0.0
 30
0.0
  9
$EXTMIN
 10
-51.2673594975
 20
-28.4082602628
 30
0.0
  9
$EXTMAX
 10
51.2647677897
 20
30.6548187976
 30
0.0
  9
$LIMMIN
 10
0.0
 20
0.0
  9
$LIMMAX
 10
420.0
 20
297.0
  9
$ORTHOMODE
 70
     0
  9
$REGENMODE
 70
     1
  9
$FILLMODE
 70
     1
  9
$QTEXTMODE
 70
     0
  9
$MIRRTEXT
 70
     1
  9
$LTSCALE
 40
1.0
  9
$ATTMODE
 70
     1
  9
$TEXTSIZE
 40
3.5
  9
$TRACEWID
 40
1.0
  9
$TEXTSTYLE
  7
Standard
  9
$CLAYER
  8
0
  9
$CELTYPE
  6
ByLayer
  9
$CECOLOR
 62
   256
  9
$CELTSCALE
 40
1.0
  9
$DISPSILH
 70
     0
  9
$DIMSCALE
 40
1.0
  9
$DIMASZ
 40
3.302
  9
$DIMEXO
 40
1.0
  9
$DIMDLI
 40
3.75
  9
$DIMRND
 40
0.0
  9
$DIMDLE
 40
0.0
  9
$DIMEXE
 40
1.0
  9
$DIMTP
 40
0.0
  9
$DIMTM
 40
0.0
  9
$DIMTXT
 40
3.5
  9
$DIMCEN
 40
2.5
  9
$DIMTSZ
 40
0.0
  9
$DIMTOL
 70
     0
  9
$DIMLIM
 70
     0
  9
$DIMTIH
 70
     1
  9
$DIMTOH
 70
     1
  9
$DIMSE1
 70
     0
  9
$DIMSE2
 70
     0
  9
$DIMTAD
 70
     1
  9
$DIMZIN
 70
     0
  9
$DIMBLK
  1

  9
$DIMASO
 70
     1
  9
$DIMSHO
 70
     1
  9
$DIMPOST
  1

  9
$DIMAPOST
  1

  9
$DIMALT
 70
     0
  9
$DIMALTD
 70
     3
  9
$DIMALTF
 40
0.0393700787
  9
$DIMLFAC
 40
1.0
  9
$DIMTOFL
 70
     1
  9
$DIMTVP
 40
0.0
  9
$DIMTIX
 70
     0
  9
$DIMSOXD
 70
     0
  9
$DIMSAH
 70
     0
  9
$DIMBLK1
  1

  9
$DIMBLK2
  1

  9
$DIMSTYLE
  2
ISO-25
  9
$DIMCLRD
 70
     0
  9
$DIMCLRE
 70
     0
  9
$DIMCLRT
 70
     0
  9
$DIMTFAC
 40
1.0
  9
$DIMGAP
 40
1.524
  9
$DIMJUST
 70
     0
  9
$DIMSD1
 70
     0
  9
$DIMSD2
 70
     0
  9
$DIMTOLJ
 70
     0
  9
$DIMTZIN
 70
     0
  9
$DIMALTZ
 70
     0
  9
$DIMALTTZ
 70
     0
  9
$DIMUPT
 70
     0
  9
$DIMDEC
 70
     2
  9
$DIMTDEC
 70
     2
  9
$DIMALTU
 70
     2
  9
$DIMALTTD
 70
     3
  9
$DIMTXSTY
  7
Standard
  9
$DIMAUNIT
 70
     0
  9
$DIMADEC
 70
     2
  9
$DIMALTRND
 40
0.0
  9
$DIMAZIN
 70
     0
  9
$DIMDSEP
 70
    44
  9
$DIMATFIT
 70
     3
  9
$DIMFRAC
 70
     0
  9
$DIMLDRBLK
  1

  9
$DIMLUNIT
 70
     2
  9
$DIMLWD
 70
    -2
  9
$DIMLWE
 70
    -2
  9
$DIMTMOVE
 70
     0
  9
$LUNITS
 70
     2
  9
$LUPREC
 70
     2
  9
$SKETCHINC
 40
1.0
  9
$FILLETRAD
 40
10.0
  9
$AUNITS
 70
     0
  9
$AUPREC
 70
     2
  9
$MENU
  1
.
  9
$ELEVATION
 40
0.0
  9
$PELEVATION
 40
0.0
  9
$THICKNESS
 40
0.0
  9
$LIMCHECK
 70
     0
  9
$CHAMFERA
 40
10.0
  9
$CHAMFERB
 40
10.0
  9
$CHAMFERC
 40
20.0
  9
$CHAMFERD
 40
0.0
  9
$SKPOLY
 70
     0
  9
$TDCREATE
 40
2457378.75682007
  9
$TDUCREATE
 40
2457378.423486736
  9
$TDUPDATE
 40
2457378.75686331
  9
$TDUUPDATE
 40
2457378.423529977
  9
$TDINDWG
 40
0.0000000116
  9
$TDUSRTIMER
 40
0.0000000116
  9
$USRTIMER
 70
     1
  9
$ANGBASE
 50
0.0
  9
$ANGDIR
 70
     0
  9
$PDMODE
 70
     0
  9
$PDSIZE
 40
-1.0
  9
$PLINEWID
 40
0.0
  9
$SPLFRAME
 70
     0
  9
$SPLINETYPE
 70
     6
  9
$SPLINESEGS
 70
     8
  9
$HANDSEED
  5
27F
  9
$SURFTAB1
 70
     6
  9
$SURFTAB2
 70
     6
  9
$SURFTYPE
 70
     6
  9
$SURFU
 70
     6
  9
$SURFV
 70
     6
  9
$UCSBASE
  2

  9
$UCSNAME
  2

  9
$UCSORG
 10
0.0
 20
0.0
 30
0.0
  9
$UCSXDIR
 10
1.0
 20
0.0
 30
0.0
  9
$UCSYDIR
 10
0.0
 20
1.0
 30
0.0
  9
$UCSORTHOREF
  2

  9
$UCSORTHOVIEW
 70
     0
  9
$UCSORGTOP
 10
0.0
 20
0.0
 30
0.0
  9
$UCSORGBOTTOM
 10
0.0
 20
0.0
 30
0.0
  9
$UCSORGLEFT
 10
0.0
 20
0.0
 30
0.0
  9
$UCSORGRIGHT
 10
0.0
 20
0.0
 30
0.0
  9
$UCSORGFRONT
 10
0.0
 20
0.0
 30
0.0
  9
$UCSORGBACK
 10
0.0
 20
0.0
 30
0.0
  9
$PUCSBASE
  2

  9
$PUCSNAME
  2

  9
$PUCSORG
 10
0.0
 20
0.0
 30
0.0
  9
$PUCSXDIR
 10
1.0
 20
0.0
 30
0.0
  9
$PUCSYDIR
 10
0.0
 20
1.0
 30
0.0
  9
$PUCSORTHOREF
  2

  9
$PUCSORTHOVIEW
 70
     0
  9
$PUCSORGTOP
 10
0.0
 20
0.0
 30
0.0
  9
$PUCSORGBOTTOM
 10
0.0
 20
0.0
 30
0.0
  9
$PUCSORGLEFT
 10
0.0
 20
0.0
 30
0.0
  9
$PUCSORGRIGHT
 10
0.0
 20
0.0
 30
0.0
  9
$PUCSORGFRONT
 10
0.0
 20
0.0
 30
0.0
  9
$PUCSORGBACK
 10
0.0
 20
0.0
 30
0.0
  9
$USERI1
 70
     0
  9
$USERI2
 70
     0
  9
$USERI3
 70
     0
  9
$USERI4
 70
     0
  9
$USERI5
 70
     0
  9
$USERR1
 40
0.0
  9
$USERR2
 40
0.0
  9
$USERR3
 40
0.0
  9
$USERR4
 40
0.0
  9
$USERR5
 40
0.0
  9
$WORLDVIEW
 70
     1
  9
$SHADEDGE
 70
     3
  9
$SHADEDIF
 70
    70
  9
$TILEMODE
 70
     1
  9
$MAXACTVP
 70
    64
  9
$PINSBASE
 10
0.0
 20
0.0
 30
0.0
  9
$PLIMCHECK
 70
     0
  9
$PEXTMIN
 10
1.0000000000E+20
 20
1.0000000000E+20
 30
1.0000000000E+20
  9
$PEXTMAX
 10
-1.0000000000E+20
 20
-1.0000000000E+20
 30
-1.0000000000E+20
  9
$PLIMMIN
 10
0.0
 20
0.0
  9
$PLIMMAX
 10
420.0
 20
297.0
  9
$UNITMODE
 70
     0
  9
$VISRETAIN
 70
     1
  9
$PLINEGEN
 70
     0
  9
$PSLTSCALE
 70
     1
  9
$TREEDEPTH
 70
  3020
  9
$CMLSTYLE
  2
Standard
  9
$CMLJUST
 70
     0
  9
$CMLSCALE
 40
20.0
  9
$PROXYGRAPHICS
 70
     1
  9
$MEASUREMENT
 70
     1
  9
$CELWEIGHT
370
    -1
  9
$ENDCAPS
280
     0
  9
$JOINSTYLE
280
     0
  9
$LWDISPLAY
290
     1
  9
$INSUNITS
 70
     4
  9
$HYPERLINKBASE
  1

  9
$STYLESHEET
  1

  9
$XEDIT
290
     1
  9
$CEPSNTYPE
380
     0
  9
$PSTYLEMODE
290
     1
  9
$FINGERPRINTGUID
  2
{F9680963-BE1A-482E-BBF9-D7B288348907}
  9
$VERSIONGUID
  2
{FAEB1C32-E019-11D5-929B-00C0DF256EC4}
  9
$EXTNAMES
290
     1
  9
$PSVPSCALE
 40
0.0
  9
$OLESTARTUP
290
     0
  0
ENDSEC
  0
SECTION
  2
CLASSES
  0
CLASS
  1
ACDBDICTIONARYWDFLT
  2
AcDbDictionaryWithDefault
  3
ObjectDBX Classes
 90
        0
280
     0
281
     0
  0
CLASS
  1
VISUALSTYLE
  2
AcDbVisualStyle
  3
ObjectDBX Classes
 90
     4095
280
     0
281
     0
  0
CLASS
  1
MATERIAL
  2
AcDbMaterial
  3
ObjectDBX Classes
 90
     1153
280
     0
281
     0
  0
CLASS
  1
ACDBPLACEHOLDER
  2
AcDbPlaceHolder
  3
ObjectDBX Classes
 90
        0
280
     0
281
     0
  0
CLASS
  1
LAYOUT
  2
AcDbLayout
  3
ObjectDBX Classes
 90
        0
280
     0
281
     0
  0
ENDSEC
  0
SECTION
  2
TABLES
  0
TABLE
  2
VPORT
  5
8
330
0
100
AcDbSymbolTable
 70
     1
  0
VPORT
  5
29
330
8
100
AcDbSymbolTableRecord
100
AcDbViewportTableRecord
  2
*Active
 70
     0
 10
0.0
 20
0.0
 11
1.0
 21
1.0
 12
-0.0012958539
 22
1.1232792674
 13
0.0
 23
0.0
 14
10.0
 24
10.0
 15
10.0
 25
10.0
 16
0.0
 26
0.0
 36
1.0
 17
0.0
 27
0.0
 37
0.0
 40
60.2443406416
 41
1.7359766697
 42
50.0
 43
0.0
 44
0.0
 50
0.0
 51
0.0
 71
     0
 72
   100
 73
     1
 74
     3
 75
     0
 76
     0
 77
     0
 78
     0
281
     0
 65
     1
110
0.0
120
0.0
130
0.0
111
1.0
121
0.0
131
0.0
112
0.0
122
1.0
132
0.0
 79
     0
146
0.0
  0
ENDTAB
  0
TABLE
  2
LTYPE
  5
5
330
0
100
AcDbSymbolTable
 70
     6
  0
LTYPE
  5
14
330
5
100
AcDbSymbolTableRecord
100
AcDbLinetypeTableRecord
  2
ByBlock
 70
     0
  3

 72
    65
 73
     0
 40
0.0
  0
LTYPE
  5
15
330
5
100
AcDbSymbolTableRecord
100
AcDbLinetypeTableRecord
  2
ByLayer
 70
     0
  3

 72
    65
 73
     0
 40
0.0
  0
LTYPE
  5
16
330
5
100
AcDbSymbolTableRecord
100
AcDbLinetypeTableRecord
  2
Continuous
 70
     0
  3
Solid line
 72
    65
 73
     0
 40
0.0
  0
LTYPE
  5
3F
330
5
100
AcDbSymbolTableRecord
100
AcDbLinetypeTableRecord
  2
HIDDEN
 70
     0
  3
Hidden __ __ __ __ __ __ __ __ __ __ __ __ __ __
 72
    65
 73
     2
 40
1.905
 49
1.27
 74
     0
 49
-0.635
 74
     0
  0
LTYPE
  5
40
330
5
100
AcDbSymbolTableRecord
100
AcDbLinetypeTableRecord
  2
PHANTOM
 70
     0
  3
Phantom ______  __  __  ______  __  __  ______
 72
    65
 73
     6
 40
12.7
 49
6.35
 74
     0
 49
-1.27
 74
     0
 49
1.27
 74
     0
 49
-1.27
 74
     0
 49
1.27
 74
     0
 49
-1.27
 74
     0
  0
LTYPE
  5
41
330
5
100
AcDbSymbolTableRecord
100
AcDbLinetypeTableRecord
  2
CENTER
 70
     0
  3
Center ____ _ ____ _ ____ _ ____ _ ____ _ ____
 72
    65
 73
     4
 40
10.16
 49
6.35
 74
     0
 49
-1.27
 74
     0
 49
1.27
 74
     0
 49
-1.27
 74
     0
  0
LTYPE
  5
42
330
5
100
AcDbSymbolTableRecord
100
AcDbLinetypeTableRecord
  2
CENTERX2
 70
     0
  3
Center (2x) ________  __  ________  __  _____
 72
    65
 73
     4
 40
20.32
 49
12.7
 74
     0
 49
-2.54
 74
     0
 49
2.54
 74
     0
 49
-2.54
 74
     0
  0
LTYPE
  5
43
330
5
100
AcDbSymbolTableRecord
100
AcDbLinetypeTableRecord
  2
DOT2
 70
     0
  3
Dot (.5x) ........................................
 72
    65
 73
     2
 40
0.635
 49
0.0
 74
     0
 49
-0.635
 74
     0
  0
ENDTAB
  0
TABLE
  2
LAYER
  5
2
330
0
100
AcDbSymbolTable
 70
     1
  0
LAYER
  5
10
330
2
100
AcDbSymbolTableRecord
100
AcDbLayerTableRecord
  2
0
 70
     0
 62
     7
  6
Continuous
370
    -3
390
F
  0
ENDTAB
  0
TABLE
  2
STYLE
  5
3
330
0
100
AcDbSymbolTable
 70
     1
  0
STYLE
  5
11
330
3
100
AcDbSymbolTableRecord
100
AcDbTextStyleTableRecord
  2
Standard
 70
     0
 40
0.0
 41
1.0
 50
0.0
 71
     0
 42
3.5
  3
txt
  4

  0
ENDTAB
  0
TABLE
  2
VIEW
  5
6
330
0
100
AcDbSymbolTable
 70
     0
  0
ENDTAB
  0
TABLE
  2
UCS
  5
7
330
0
100
AcDbSymbolTable
 70
     0
  0
ENDTAB
  0
TABLE
  2
APPID
  5
9
330
0
100
AcDbSymbolTable
 70
     1
  0
APPID
  5
12
330
9
100
AcDbSymbolTableRecord
100
AcDbRegAppTableRecord
  2
ACAD
 70
     0
  0
ENDTAB
  0
TABLE
  2
DIMSTYLE
  5
A
330
0
100
AcDbSymbolTable
 70
     1
100
AcDbDimStyleTable
  0
DIMSTYLE
105
27
330
A
100
AcDbSymbolTableRecord
100
AcDbDimStyleTableRecord
  2
ISO-25
 70
     0
 41
2.5
 42
0.625
 43
3.75
 44
1.25
 73
     0
 74
     0
 77
     1
 78
     8
140
2.5
141
2.5
143
0.0393700787
147
0.625
171
     3
172
     1
178
     0
271
     2
272
     2
274
     3
278
    44
283
     0
284
     8
340
11
  0
ENDTAB
  0
TABLE
  2
BLOCK_RECORD
  5
1
330
0
100
AcDbSymbolTable
 70
     1
  0
BLOCK_RECORD
  5
1F
330
1
100
AcDbSymbolTableRecord
100
AcDbBlockTableRecord
  2
*Model_Space
340
22
  0
BLOCK_RECORD
  5
1B
330
1
100
AcDbSymbolTableRecord
100
AcDbBlockTableRecord
  2
*Paper_Space
340
1E
  0
BLOCK_RECORD
  5
23
330
1
100
AcDbSymbolTableRecord
100
AcDbBlockTableRecord
  2
*Paper_Space0
340
26
  0
ENDTAB
  0
ENDSEC
  0
SECTION
  2
BLOCKS
  0
BLOCK
  5
20
330
1F
100
AcDbEntity
  8
0
100
AcDbBlockBegin
  2
*Model_Space
 70
     0
 10
0.0
 20
0.0
 30
0.0
  3
*Model_Space
  1

  0
ENDBLK
  5
21
330
1F
100
AcDbEntity
  8
0
100
AcDbBlockEnd
  0
BLOCK
  5
1C
330
1B
100
AcDbEntity
 67
     1
  8
0
100
AcDbBlockBegin
  2
*Paper_Space
 70
     0
 10
0.0
 20
0.0
 30
0.0
  3
*Paper_Space
  1

  0
ENDBLK
  5
1D
330
1B
100
AcDbEntity
 67
     1
  8
0
100
AcDbBlockEnd
  0
BLOCK
  5
24
330
23
100
AcDbEntity
  8
0
100
AcDbBlockBegin
  2
*Paper_Space0
 70
     0
 10
0.0
 20
0.0
 30
0.0
  3
*Paper_Space0
  1

  0
ENDBLK
  5
25
330
23
100
AcDbEntity
  8
0
100
AcDbBlockEnd
  0
ENDSEC
  0
SECTION
  2
ENTITIES
  0
SPLINE
  5
44
330
1F
100
AcDbEntity
  8
0
  6
Continuous
 62
     7
370
    15
100
AcDbSpline
210
0.0
220
0.0
230
1.0
 70
     8
 71
     3
 72
     9
 73
     5
 74
     0
 42
0.00000001
 43
0.00000001
 12
1.0
 22
0.0
 32
0.0
 13
1.0
 23
0.0
 33
0.0
 40
0.0
 40
0.0
 40
0.0
 40
0.0
 40
0.0511732718405327
 40
1.0
 40
1.0
 40
1.0
 40
1.0
 10
-51.2014122031179
 20
-3.092516395846447
 30
0.0
 10
-51.20141584409094
 20
-3.092481619270461
 30
0.0
 10
-51.20148699398805
 20
-3.091802034504121
 30
0.0
 10
-51.20137099206649
 20
-3.093378267096605
 30
0.0
 10
-51.20126092634278
 20
-3.094873838710148
 30
0.0
  0
SPLINE
  5
48
330
1F
100
AcDbEntity
  8
0
  6
Continuous
 62
     7
370
    15
100
AcDbSpline
210
0.0
220
0.0
230
1.0
 70
     8
 71
     3
 72
    15
 73
    11
 74
     0
 42
0.00000001
 43
0.00000001
 12
1.0
 22
0.0
 32
0.0
 13
1.0
 23
0.0
 33
0.0
 40
0.0
 40
0.0
 40
0.0
 40
0.0
 40
0.0835936299006162
 40
0.3634240090070637
 40
0.6464732330458709
 40
0.7913012479430506
 40
0.8669562987943241
 40
0.9123280055159659
 40
0.9556918164952874
 40
1.0
 40
1.0
 40
1.0
 40
1.0
 10
17.00962641193504
 20
-28.39386741997464
 30
0.0
 10
17.03473142523489
 20
-28.39341165921294
 30
0.0
 10
17.14387568168663
 20
-28.39143023546857
 30
0.0
 10
17.28042907692522
 20
-28.38698243483002
 30
0.0
 10
17.38791530488065
 20
-28.38192505678488
 30
0.0
 10
17.43788494487329
 20
-28.3770034535321
 30
0.0
 10
17.47156984365042
 20
-28.37214543481094
 30
0.0
 10
17.51362909164142
 20
-28.3600944545645
 30
0.0
 10
17.56042427052806
 20
-28.3380046189376
 30
0.0
 10
17.5879810935774
 20
-28.31380131298173
 30
0.0
 10
17.60190792140495
 20
-28.3015693051664
 30
0.0
  0
SPLINE
  5
49
330
1F
100
AcDbEntity
  8
0
  6
Continuous
 62
     7
370
    15
100
AcDbSpline
210
0.0
220
0.0
230
1.0
 70
     8
 71
     3
 72
    18
 73
    14
 74
     0
 42
0.00000001
 43
0.00000001
 12
1.0
 22
0.0
 32
0.0
 13
1.0
 23
0.0
 33
0.0
 40
0.0
 40
0.0
 40
0.0
 40
0.0
 40
0.0077137092528434
 40
0.0271390998407733
 40
0.0641744194731591
 40
0.1503668193164639
 40
0.2823640239416149
 40
0.4224141743095634
 40
0.5585308015133786
 40
0.693769611369274
 40
0.8287155601917248
 40
0.9635445883507824
 40
1.0
 40
1.0
 40
1.0
 40
1.0
 10
30.25316130823289
 20
-28.3644021709706
 30
0.0
 10
30.25732477240383
 20
-28.36573542216745
 30
0.0
 10
30.27197306495864
 20
-28.37042619234794
 30
0.0
 10
30.2928602105664
 20
-28.37402345625183
 30
0.0
 10
30.32646089927507
 20
-28.37901372627707
 30
0.0
 10
30.3820834409902
 20
-28.38281908165285
 30
0.0
 10
30.50504084716832
 20
-28.38847667798044
 30
0.0
 10
30.70851930416135
 20
-28.39375057093203
 30
0.0
 10
30.97240398369392
 20
-28.39829656674334
 30
0.0
 10
31.27933364330031
 20
-28.40172313196526
 30
0.0
 10
31.61853141313301
 20
-28.40397109969291
 30
0.0
 10
31.88976546262498
 20
-28.40474988747117
 30
0.0
 10
32.0421659949142
 20
-28.4047960425097
 30
0.0
 10
32.07460224041544
 20
-28.40480586594101
 30
0.0
  0
LWPOLYLINE
  5
15E
330
1F
100
AcDbEntity
  8
0
  6
Continuous
 62
     7
370
    15
100
AcDbPolyline
 90
        3
 70
   128
 43
0.0
 10
-51.2124025949
 20
-11.1624939871
 10
-51.2085706357
 20
-11.1234743964
 10
-51.2005346734
 20
-11.0945721131
  0
LWPOLYLINE
  5
15F
330
1F
100
AcDbEntity
  8
0
  6
Continuous
 62
     7
370
    15
100
AcDbPolyline
 90
        3
 70
   128
 43
0.0
 10
-51.2124025949
 20
-3.0575060129
 10
-51.2085706357
 20
-3.0965256036
 10
-51.1997316913
 20
-3.127613336
  0
LWPOLYLINE
  5
161
330
1F
100
AcDbEntity
  8
0
  6
Continuous
 62
     8
370
    15
100
AcDbPolyline
 90
        3
 70
   128
 43
0.0
 10
-51.2014275709
 20
-11.1346373993
 10
-51.2020404356
 20
-11.1436743948
 10
-51.2035532093
 20
-11.1536446015
  0
LWPOLYLINE
  5
162
330
1F
100
AcDbEntity
  8
0
  6
Continuous
 62
     8
370
    15
100
AcDbPolyline
 90
        3
 70
   128
 43
0.0
 10
-51.2035532093
 20
-3.0663553985
 10
-51.2020404356
 20
-3.0763256052
 10
-51.2017450559
 20
-3.0803045889
  0
LWPOLYLINE
  5
165
330
1F
100
AcDbEntity
  8
0
  6
Continuous
 62
     8
370
    15
100
AcDbPolyline
 90
        3
 70
   128
 43
0.0
 10
30.2817383277
 20
-28.3548645805
 10
30.2965230308
 20
-28.3558059383
 10
30.3076010382
 20
-28.357486798
  0
LWPOLYLINE
  5
166
330
1F
100
AcDbEntity
  8
0
  6
Continuous
 62
     8
370
    15
100
AcDbPolyline
 90
        3
 70
   128
 43
0.0
 10
17.4423989618
 20
-28.357486798
 10
17.4534769692
 20
-28.3558059383
 10
17.4608826499
 20
-28.3552833031
  0
LWPOLYLINE
  5
168
330
1F
100
AcDbEntity
  8
0
  6
Continuous
 62
     8
370
    15
100
AcDbPolyline
 90
        3
 70
   128
 43
0.0
 10
40.25
 20
30.5766563742
 10
40.2012274195
 20
30.5718534259
 10
40.17249705
 20
30.5643414273
  0
LWPOLYLINE
  5
169
330
1F
100
AcDbEntity
  8
0
  6
Continuous
 62
     8
370
    15
100
AcDbPolyline
 90
        3
 70
   128
 43
0.0
 10
-40.25
 20
30.5766563742
 10
-40.2012274195
 20
30.5718534259
 10
-40.17249705
 20
30.5643414273
  0
LINE
  5
16F
330
1F
100
AcDbEntity
  8
0
  6
Continuous
 62
     7
370
    15
100
AcDbLine
 10
-51.2010230301
 20
-11.1209822054
 30
0.0
 11
-51.2013205227
 21
-11.1260481555
 31
0.0
  0
LINE
  5
170
330
1F
100
AcDbEntity
  8
0
  6
Continuous
 62
     7
370
    15
100
AcDbLine
 10
30.2671656341
 20
-28.3544949411
 30
0.0
 11
30.2743694402
 21
-28.3549003591
 31
0.0
  0
LINE
  5
171
330
1F
100
AcDbEntity
  8
0
  6
Continuous
 62
     7
370
    15
100
AcDbLine
 10
17.4737338925
 20
-28.3550224787
 30
0.0
 11
17.4772311283
 21
-28.3547968774
 31
0.0
  0
LINE
  5
172
330
1F
100
AcDbEntity
  8
0
  6
Continuous
 62
     7
370
    15
100
AcDbLine
 10
-40.0955600755
 20
-11.7614077707
 30
0.0
 11
-39.8455981518
 21
-11.7614077707
 31
0.0
  0
LINE
  5
173
330
1F
100
AcDbEntity
  8
0
  6
Continuous
 62
     7
370
    15
100
AcDbLine
 10
-41.0954077707
 20
-10.5115981518
 30
0.0
 11
-41.0954077707
 21
-10.7615600755
 31
0.0
  0
LINE
  5
174
330
1F
100
AcDbEntity
  8
0
  6
Continuous
 62
     7
370
    15
100
AcDbLine
 10
47.2965922293
 20
-18.4444018482
 30
0.0
 11
47.2965922293
 21
-18.1944399245
 31
0.0
  0
LINE
  5
175
330
1F
100
AcDbEntity
  8
0
  6
Continuous
 62
     7
370
    15
100
AcDbLine
 10
48.2964399245
 20
-17.1945922293
 30
0.0
 11
48.5464018482
 21
-17.1945922293
 31
0.0
  0
LINE
  5
176
330
1F
100
AcDbEntity
  8
0
  6
Continuous
 62
     7
370
    15
100
AcDbLine
 10
47.2965922293
 20
-18.4444018482
 30
0.0
 11
41.0954077707
 21
-18.4444018482
 31
0.0
  0
LINE
  5
177
330
1F
100
AcDbEntity
  8
0
  6
Continuous
 62
     7
370
    15
100
AcDbLine
 10
41.0954077707
 20
-18.4444018482
 30
0.0
 11
41.0954077707
 21
-18.1944399245
 31
0.0
  0
LINE
  5
178
330
1F
100
AcDbEntity
  8
0
  6
Continuous
 62
     7
370
    15
100
AcDbLine
 10
41.0954077707
 20
-18.1944399245
 30
0.0
 11
47.2965922293
 21
-18.1944399245
 31
0.0
  0
LINE
  5
179
330
1F
100
AcDbEntity
  8
0
  6
Continuous
 62
     7
370
    15
100
AcDbLine
 10
48.2964399245
 20
-17.1945922293
 30
0.0
 11
48.2964399245
 21
-11.7614077707
 31
0.0
  0
LINE
  5
17A
330
1F
100
AcDbEntity
  8
0
  6
Continuous
 62
     7
370
    15
100
AcDbLine
 10
48.2964399245
 20
-11.7614077707
 30
0.0
 11
48.5464018482
 21
-11.7614077707
 31
0.0
  0
LINE
  5
17B
330
1F
100
AcDbEntity
  8
0
  6
Continuous
 62
     7
370
    15
100
AcDbLine
 10
48.5464018482
 20
-11.7614077707
 30
0.0
 11
48.5464018482
 21
-17.1945922293
 31
0.0
  0
LINE
  5
17C
330
1F
100
AcDbEntity
  8
0
  6
Continuous
 62
     7
370
    15
100
AcDbLine
 10
39.8455981518
 20
-17.1945922293
 30
0.0
 11
40.0955600755
 21
-17.1945922293
 31
0.0
  0
LINE
  5
17D
330
1F
100
AcDbEntity
  8
0
  6
Continuous
 62
     7
370
    15
100
AcDbLine
 10
47.2965922293
 20
-10.7615600755
 30
0.0
 11
47.2965922293
 21
-10.5115981518
 31
0.0
  0
LINE
  5
17E
330
1F
100
AcDbEntity
  8
0
  6
Continuous
 62
     7
370
    15
100
AcDbLine
 10
39.8455981518
 20
-17.1945922293
 30
0.0
 11
39.8455981518
 21
-11.7614077707
 31
0.0
  0
LINE
  5
17F
330
1F
100
AcDbEntity
  8
0
  6
Continuous
 62
     7
370
    15
100
AcDbLine
 10
39.8455981518
 20
-11.7614077707
 30
0.0
 11
40.0955600755
 21
-11.7614077707
 31
0.0
  0
LINE
  5
180
330
1F
100
AcDbEntity
  8
0
  6
Continuous
 62
     7
370
    15
100
AcDbLine
 10
40.0955600755
 20
-11.7614077707
 30
0.0
 11
40.0955600755
 21
-17.1945922293
 31
0.0
  0
LINE
  5
181
330
1F
100
AcDbEntity
  8
0
  6
Continuous
 62
     7
370
    15
100
AcDbLine
 10
47.2965922293
 20
-10.7615600755
 30
0.0
 11
41.0954077707
 21
-10.7615600755
 31
0.0
  0
LINE
  5
182
330
1F
100
AcDbEntity
  8
0
  6
Continuous
 62
     7
370
    15
100
AcDbLine
 10
41.0954077707
 20
-10.7615600755
 30
0.0
 11
41.0954077707
 21
-10.5115981518
 31
0.0
  0
LINE
  5
183
330
1F
100
AcDbEntity
  8
0
  6
Continuous
 62
     7
370
    15
100
AcDbLine
 10
41.0954077707
 20
-10.5115981518
 30
0.0
 11
47.2965922293
 21
-10.5115981518
 31
0.0
  0
LINE
  5
184
330
1F
100
AcDbEntity
  8
0
  6
Continuous
 62
     7
370
    15
100
AcDbLine
 10
47.2965922293
 20
-3.9664018482
 30
0.0
 11
47.2965922293
 21
-3.7164399245
 31
0.0
  0
LINE
  5
185
330
1F
100
AcDbEntity
  8
0
  6
Continuous
 62
     7
370
    15
100
AcDbLine
 10
48.2964399245
 20
-2.7165922293
 30
0.0
 11
48.5464018482
 21
-2.7165922293
 31
0.0
  0
LINE
  5
186
330
1F
100
AcDbEntity
  8
0
  6
Continuous
 62
     7
370
    15
100
AcDbLine
 10
47.2965922293
 20
-3.9664018482
 30
0.0
 11
41.0954077707
 21
-3.9664018482
 31
0.0
  0
LINE
  5
187
330
1F
100
AcDbEntity
  8
0
  6
Continuous
 62
     7
370
    15
100
AcDbLine
 10
41.0954077707
 20
-3.9664018482
 30
0.0
 11
41.0954077707
 21
-3.7164399245
 31
0.0
  0
LINE
  5
188
330
1F
100
AcDbEntity
  8
0
  6
Continuous
 62
     7
370
    15
100
AcDbLine
 10
41.0954077707
 20
-3.7164399245
 30
0.0
 11
47.2965922293
 21
-3.7164399245
 31
0.0
  0
LINE
  5
189
330
1F
100
AcDbEntity
  8
0
  6
Continuous
 62
     7
370
    15
100
AcDbLine
 10
48.2964399245
 20
-2.7165922293
 30
0.0
 11
48.2964399245
 21
2.7165922293
 31
0.0
  0
LINE
  5
18A
330
1F
100
AcDbEntity
  8
0
  6
Continuous
 62
     7
370
    15
100
AcDbLine
 10
48.2964399245
 20
2.7165922293
 30
0.0
 11
48.5464018482
 21
2.7165922293
 31
0.0
  0
LINE
  5
18B
330
1F
100
AcDbEntity
  8
0
  6
Continuous
 62
     7
370
    15
100
AcDbLine
 10
48.5464018482
 20
2.7165922293
 30
0.0
 11
48.5464018482
 21
-2.7165922293
 31
0.0
  0
LINE
  5
18C
330
1F
100
AcDbEntity
  8
0
  6
Continuous
 62
     7
370
    15
100
AcDbLine
 10
39.8455981518
 20
-2.7165922293
 30
0.0
 11
40.0955600755
 21
-2.7165922293
 31
0.0
  0
LINE
  5
18D
330
1F
100
AcDbEntity
  8
0
  6
Continuous
 62
     7
370
    15
100
AcDbLine
 10
47.2965922293
 20
3.7164399245
 30
0.0
 11
47.2965922293
 21
3.9664018482
 31
0.0
  0
LINE
  5
18E
330
1F
100
AcDbEntity
  8
0
  6
Continuous
 62
     7
370
    15
100
AcDbLine
 10
39.8455981518
 20
-2.7165922293
 30
0.0
 11
39.8455981518
 21
2.7165922293
 31
0.0
  0
LINE
  5
18F
330
1F
100
AcDbEntity
  8
0
  6
Continuous
 62
     7
370
    15
100
AcDbLine
 10
39.8455981518
 20
2.7165922293
 30
0.0
 11
40.0955600755
 21
2.7165922293
 31
0.0
  0
LINE
  5
190
330
1F
100
AcDbEntity
  8
0
  6
Continuous
 62
     7
370
    15
100
AcDbLine
 10
40.0955600755
 20
2.7165922293
 30
0.0
 11
40.0955600755
 21
-2.7165922293
 31
0.0
  0
LINE
  5
191
330
1F
100
AcDbEntity
  8
0
  6
Continuous
 62
     7
370
    15
100
AcDbLine
 10
47.2965922293
 20
3.7164399245
 30
0.0
 11
41.0954077707
 21
3.7164399245
 31
0.0
  0
LINE
  5
192
330
1F
100
AcDbEntity
  8
0
  6
Continuous
 62
     7
370
    15
100
AcDbLine
 10
41.0954077707
 20
3.7164399245
 30
0.0
 11
41.0954077707
 21
3.9664018482
 31
0.0
  0
LINE
  5
193
330
1F
100
AcDbEntity
  8
0
  6
Continuous
 62
     7
370
    15
100
AcDbLine
 10
41.0954077707
 20
3.9664018482
 30
0.0
 11
47.2965922293
 21
3.9664018482
 31
0.0
  0
LINE
  5
194
330
1F
100
AcDbEntity
  8
0
  6
Continuous
 62
     7
370
    15
100
AcDbLine
 10
34.15
 20
-15.1
 30
0.0
 11
-34.15
 21
-15.1
 31
0.0
  0
LINE
  5
195
330
1F
100
AcDbEntity
  8
0
  6
Continuous
 62
     7
370
    15
100
AcDbLine
 10
36.65
 20
19.4
 30
0.0
 11
36.65
 21
-12.6
 31
0.0
  0
LINE
  5
196
330
1F
100
AcDbEntity
  8
0
  6
Continuous
 62
     7
370
    15
100
AcDbLine
 10
-34.15
 20
21.9
 30
0.0
 11
34.15
 21
21.9
 31
0.0
  0
LINE
  5
197
330
1F
100
AcDbEntity
  8
0
  6
Continuous
 62
     7
370
    15
100
AcDbLine
 10
-36.65
 20
-12.6
 30
0.0
 11
-36.65
 21
19.4
 31
0.0
  0
LINE
  5
198
330
1F
100
AcDbEntity
  8
0
  6
Continuous
 62
     7
370
    15
100
AcDbLine
 10
-35.65
 20
-25.406982026
 30
0.0
 11
35.65
 21
-25.406982026
 31
0.0
  0
LINE
  5
199
330
1F
100
AcDbEntity
  8
0
  6
Continuous
 62
     7
370
    15
100
AcDbLine
 10
37.156982026
 20
-23.9
 30
0.0
 11
37.156982026
 21
-17.1
 31
0.0
  0
LINE
  5
19A
330
1F
100
AcDbEntity
  8
0
  6
Continuous
 62
     7
370
    15
100
AcDbLine
 10
35.65
 20
-15.593017974
 30
0.0
 11
-35.65
 21
-15.593017974
 31
0.0
  0
LINE
  5
19B
330
1F
100
AcDbEntity
  8
0
  6
Continuous
 62
     7
370
    15
100
AcDbLine
 10
-37.156982026
 20
-17.1
 30
0.0
 11
-37.156982026
 21
-23.9
 31
0.0
  0
LINE
  5
19C
330
1F
100
AcDbEntity
  8
0
  6
Continuous
 62
     7
370
    15
100
AcDbLine
 10
-49.0446054738
 20
23.4
 30
0.0
 11
-49.0446054738
 21
-21.15
 31
0.0
  0
LINE
  5
19D
330
1F
100
AcDbEntity
  8
0
  6
Continuous
 62
     7
370
    15
100
AcDbLine
 10
44.01
 20
28.4346054738
 30
0.0
 11
-44.01
 21
28.4346054738
 31
0.0
  0
LINE
  5
19E
330
1F
100
AcDbEntity
  8
0
  6
Continuous
 62
     7
370
    15
100
AcDbLine
 10
49.0446054738
 20
-21.15
 30
0.0
 11
49.0446054738
 21
23.4
 31
0.0
  0
LINE
  5
19F
330
1F
100
AcDbEntity
  8
0
  6
Continuous
 62
     7
370
    15
100
AcDbLine
 10
-44.01
 20
-26.1846054738
 30
0.0
 11
44.01
 21
-26.1846054738
 31
0.0
  0
LINE
  5
1A0
330
1F
100
AcDbEntity
  8
0
  6
Continuous
 62
     7
370
    15
100
AcDbLine
 10
48.5464018482
 20
17.1945922293
 30
0.0
 11
48.5464018482
 21
11.7614077707
 31
0.0
  0
LINE
  5
1A1
330
1F
100
AcDbEntity
  8
0
  6
Continuous
 62
     7
370
    15
100
AcDbLine
 10
41.0954077707
 20
18.4444018482
 30
0.0
 11
47.2965922293
 21
18.4444018482
 31
0.0
  0
LINE
  5
1A2
330
1F
100
AcDbEntity
  8
0
  6
Continuous
 62
     7
370
    15
100
AcDbLine
 10
39.8455981518
 20
11.7614077707
 30
0.0
 11
39.8455981518
 21
17.1945922293
 31
0.0
  0
LINE
  5
1A3
330
1F
100
AcDbEntity
  8
0
  6
Continuous
 62
     7
370
    15
100
AcDbLine
 10
47.2965922293
 20
10.5115981518
 30
0.0
 11
41.0954077707
 21
10.5115981518
 31
0.0
  0
LINE
  5
1A4
330
1F
100
AcDbEntity
  8
0
  6
Continuous
 62
     7
370
    15
100
AcDbLine
 10
-48.5464018482
 20
-17.1945922293
 30
0.0
 11
-48.5464018482
 21
-11.7614077707
 31
0.0
  0
LINE
  5
1A5
330
1F
100
AcDbEntity
  8
0
  6
Continuous
 62
     7
370
    15
100
AcDbLine
 10
-41.0954077707
 20
-18.4444018482
 30
0.0
 11
-47.2965922293
 21
-18.4444018482
 31
0.0
  0
LINE
  5
1A6
330
1F
100
AcDbEntity
  8
0
  6
Continuous
 62
     7
370
    15
100
AcDbLine
 10
-39.8455981518
 20
-11.7614077707
 30
0.0
 11
-39.8455981518
 21
-17.1945922293
 31
0.0
  0
LINE
  5
1A7
330
1F
100
AcDbEntity
  8
0
  6
Continuous
 62
     7
370
    15
100
AcDbLine
 10
-47.2965922293
 20
-10.5115981518
 30
0.0
 11
-41.0954077707
 21
-10.5115981518
 31
0.0
  0
LINE
  5
1A8
330
1F
100
AcDbEntity
  8
0
  6
Continuous
 62
     7
370
    15
100
AcDbLine
 10
-48.5464018482
 20
-2.7165922293
 30
0.0
 11
-48.5464018482
 21
2.7165922293
 31
0.0
  0
LINE
  5
1A9
330
1F
100
AcDbEntity
  8
0
  6
Continuous
 62
     7
370
    15
100
AcDbLine
 10
-41.0954077707
 20
-3.9664018482
 30
0.0
 11
-47.2965922293
 21
-3.9664018482
 31
0.0
  0
LINE
  5
1AA
330
1F
100
AcDbEntity
  8
0
  6
Continuous
 62
     7
370
    15
100
AcDbLine
 10
-39.8455981518
 20
2.7165922293
 30
0.0
 11
-39.8455981518
 21
-2.7165922293
 31
0.0
  0
LINE
  5
1AB
330
1F
100
AcDbEntity
  8
0
  6
Continuous
 62
     7
370
    15
100
AcDbLine
 10
-47.2965922293
 20
3.9664018482
 30
0.0
 11
-41.0954077707
 21
3.9664018482
 31
0.0
  0
LINE
  5
1AC
330
1F
100
AcDbEntity
  8
0
  6
Continuous
 62
     7
370
    15
100
AcDbLine
 10
-48.5464018482
 20
11.7614077707
 30
0.0
 11
-48.5464018482
 21
17.1945922293
 31
0.0
  0
LINE
  5
1AD
330
1F
100
AcDbEntity
  8
0
  6
Continuous
 62
     7
370
    15
100
AcDbLine
 10
-41.0954077707
 20
10.5115981518
 30
0.0
 11
-47.2965922293
 21
10.5115981518
 31
0.0
  0
LINE
  5
1AE
330
1F
100
AcDbEntity
  8
0
  6
Continuous
 62
     7
370
    15
100
AcDbLine
 10
-39.8455981518
 20
17.1945922293
 30
0.0
 11
-39.8455981518
 21
11.7614077707
 31
0.0
  0
LINE
  5
1AF
330
1F
100
AcDbEntity
  8
0
  6
Continuous
 62
     7
370
    15
100
AcDbLine
 10
-47.2965922293
 20
18.4444018482
 30
0.0
 11
-41.0954077707
 21
18.4444018482
 31
0.0
  0
LINE
  5
1B0
330
1F
100
AcDbEntity
  8
0
  6
Continuous
 62
     7
370
    15
100
AcDbLine
 10
48.5464018482
 20
17.1945922293
 30
0.0
 11
48.2964399245
 21
17.1945922293
 31
0.0
  0
LINE
  5
1B1
330
1F
100
AcDbEntity
  8
0
  6
Continuous
 62
     7
370
    15
100
AcDbLine
 10
47.2965922293
 20
18.1944399245
 30
0.0
 11
47.2965922293
 21
18.4444018482
 31
0.0
  0
LINE
  5
1B2
330
1F
100
AcDbEntity
  8
0
  6
Continuous
 62
     7
370
    15
100
AcDbLine
 10
48.5464018482
 20
11.7614077707
 30
0.0
 11
48.2964399245
 21
11.7614077707
 31
0.0
  0
LINE
  5
1B3
330
1F
100
AcDbEntity
  8
0
  6
Continuous
 62
     7
370
    15
100
AcDbLine
 10
48.2964399245
 20
11.7614077707
 30
0.0
 11
48.2964399245
 21
17.1945922293
 31
0.0
  0
LINE
  5
1B4
330
1F
100
AcDbEntity
  8
0
  6
Continuous
 62
     7
370
    15
100
AcDbLine
 10
47.2965922293
 20
18.1944399245
 30
0.0
 11
41.0954077707
 21
18.1944399245
 31
0.0
  0
LINE
  5
1B5
330
1F
100
AcDbEntity
  8
0
  6
Continuous
 62
     7
370
    15
100
AcDbLine
 10
41.0954077707
 20
18.1944399245
 30
0.0
 11
41.0954077707
 21
18.4444018482
 31
0.0
  0
LINE
  5
1B6
330
1F
100
AcDbEntity
  8
0
  6
Continuous
 62
     7
370
    15
100
AcDbLine
 10
47.2965922293
 20
10.5115981518
 30
0.0
 11
47.2965922293
 21
10.7615600755
 31
0.0
  0
LINE
  5
1B7
330
1F
100
AcDbEntity
  8
0
  6
Continuous
 62
     7
370
    15
100
AcDbLine
 10
40.0955600755
 20
17.1945922293
 30
0.0
 11
39.8455981518
 21
17.1945922293
 31
0.0
  0
LINE
  5
1B8
330
1F
100
AcDbEntity
  8
0
  6
Continuous
 62
     7
370
    15
100
AcDbLine
 10
41.0954077707
 20
10.5115981518
 30
0.0
 11
41.0954077707
 21
10.7615600755
 31
0.0
  0
LINE
  5
1B9
330
1F
100
AcDbEntity
  8
0
  6
Continuous
 62
     7
370
    15
100
AcDbLine
 10
41.0954077707
 20
10.7615600755
 30
0.0
 11
47.2965922293
 21
10.7615600755
 31
0.0
  0
LINE
  5
1BA
330
1F
100
AcDbEntity
  8
0
  6
Continuous
 62
     7
370
    15
100
AcDbLine
 10
40.0955600755
 20
17.1945922293
 30
0.0
 11
40.0955600755
 21
11.7614077707
 31
0.0
  0
LINE
  5
1BB
330
1F
100
AcDbEntity
  8
0
  6
Continuous
 62
     7
370
    15
100
AcDbLine
 10
40.0955600755
 20
11.7614077707
 30
0.0
 11
39.8455981518
 21
11.7614077707
 31
0.0
  0
LINE
  5
1BC
330
1F
100
AcDbEntity
  8
0
  6
Continuous
 62
     7
370
    15
100
AcDbLine
 10
51.2647677897
 20
23.4
 30
0.0
 11
49.0446054738
 21
23.4
 31
0.0
  0
LINE
  5
1BD
330
1F
100
AcDbEntity
  8
0
  6
Continuous
 62
     7
370
    15
100
AcDbLine
 10
44.01
 20
30.6547677897
 30
0.0
 11
44.01
 21
28.4346054738
 31
0.0
  0
LINE
  5
1BE
330
1F
100
AcDbEntity
  8
0
  6
Continuous
 62
     7
370
    15
100
AcDbLine
 10
-49.0446054738
 20
-21.15
 30
0.0
 11
-51.2647677897
 21
-21.15
 31
0.0
  0
LINE
  5
1BF
330
1F
100
AcDbEntity
  8
0
  6
Continuous
 62
     7
370
    15
100
AcDbLine
 10
-51.0443008641
 20
-21.15
 30
0.0
 11
-51.0443008641
 21
23.4
 31
0.0
  0
LINE
  5
1C0
330
1F
100
AcDbEntity
  8
0
  6
Continuous
 62
     7
370
    15
100
AcDbLine
 10
-49.0446054738
 20
23.4
 30
0.0
 11
-51.2647677897
 21
23.4
 31
0.0
  0
LINE
  5
1C1
330
1F
100
AcDbEntity
  8
0
  6
Continuous
 62
     7
370
    15
100
AcDbLine
 10
51.0443008641
 20
23.4
 30
0.0
 11
51.0443008641
 21
-21.15
 31
0.0
  0
LINE
  5
1C2
330
1F
100
AcDbEntity
  8
0
  6
Continuous
 62
     7
370
    15
100
AcDbLine
 10
51.2647677897
 20
-21.15
 30
0.0
 11
49.0446054738
 21
-21.15
 31
0.0
  0
LINE
  5
1C3
330
1F
100
AcDbEntity
  8
0
  6
Continuous
 62
     7
370
    15
100
AcDbLine
 10
-44.01
 20
-26.1846054738
 30
0.0
 11
-44.01
 21
-28.4047677897
 31
0.0
  0
LINE
  5
1C4
330
1F
100
AcDbEntity
  8
0
  6
Continuous
 62
     7
370
    15
100
AcDbLine
 10
44.01
 20
-28.4047677897
 30
0.0
 11
44.01
 21
-26.1846054738
 31
0.0
  0
LINE
  5
1C5
330
1F
100
AcDbEntity
  8
0
  6
Continuous
 62
     7
370
    15
100
AcDbLine
 10
44.01
 20
-28.1843008641
 30
0.0
 11
-44.01
 21
-28.1843008641
 31
0.0
  0
LINE
  5
1C6
330
1F
100
AcDbEntity
  8
0
  6
Continuous
 62
     7
370
    15
100
AcDbLine
 10
-34.15
 20
21.9
 30
0.0
 11
-34.15
 21
20.3738174026
 31
0.0
  0
LINE
  5
1C7
330
1F
100
AcDbEntity
  8
0
  6
Continuous
 62
     7
370
    15
100
AcDbLine
 10
-35.1238174026
 20
19.4
 30
0.0
 11
-36.65
 21
19.4
 31
0.0
  0
LINE
  5
1C8
330
1F
100
AcDbEntity
  8
0
  6
Continuous
 62
     7
370
    15
100
AcDbLine
 10
34.15
 20
20.3912213905
 30
0.0
 11
-34.15
 21
20.3912213905
 31
0.0
  0
LINE
  5
1C9
330
1F
100
AcDbEntity
  8
0
  6
Continuous
 62
     7
370
    15
100
AcDbLine
 10
34.15
 20
21.9
 30
0.0
 11
34.15
 21
20.3738174026
 31
0.0
  0
LINE
  5
1CA
330
1F
100
AcDbEntity
  8
0
  6
Continuous
 62
     7
370
    15
100
AcDbLine
 10
-35.1412213905
 20
19.4
 30
0.0
 11
-35.1412213905
 21
-12.6
 31
0.0
  0
LINE
  5
1CB
330
1F
100
AcDbEntity
  8
0
  6
Continuous
 62
     7
370
    15
100
AcDbLine
 10
-35.1238174026
 20
-12.6
 30
0.0
 11
-36.65
 21
-12.6
 31
0.0
  0
LINE
  5
1CC
330
1F
100
AcDbEntity
  8
0
  6
Continuous
 62
     7
370
    15
100
AcDbLine
 10
36.65
 20
19.4
 30
0.0
 11
35.1238174026
 21
19.4
 31
0.0
  0
LINE
  5
1CD
330
1F
100
AcDbEntity
  8
0
  6
Continuous
 62
     7
370
    15
100
AcDbLine
 10
-34.15
 20
-13.5738174026
 30
0.0
 11
-34.15
 21
-15.1
 31
0.0
  0
LINE
  5
1CE
330
1F
100
AcDbEntity
  8
0
  6
Continuous
 62
     7
370
    15
100
AcDbLine
 10
36.65
 20
-12.6
 30
0.0
 11
35.1238174026
 21
-12.6
 31
0.0
  0
LINE
  5
1CF
330
1F
100
AcDbEntity
  8
0
  6
Continuous
 62
     7
370
    15
100
AcDbLine
 10
35.1412213905
 20
-12.6
 30
0.0
 11
35.1412213905
 21
19.4
 31
0.0
  0
LINE
  5
1D0
330
1F
100
AcDbEntity
  8
0
  6
Continuous
 62
     7
370
    15
100
AcDbLine
 10
-34.15
 20
-13.5912213905
 30
0.0
 11
34.15
 21
-13.5912213905
 31
0.0
  0
LINE
  5
1D1
330
1F
100
AcDbEntity
  8
0
  6
Continuous
 62
     7
370
    15
100
AcDbLine
 10
34.15
 20
-13.5738174026
 30
0.0
 11
34.15
 21
-15.1
 31
0.0
  0
LINE
  5
1D2
330
1F
100
AcDbEntity
  8
0
  6
Continuous
 62
     7
370
    15
100
AcDbLine
 10
-48.5464018482
 20
11.7614077707
 30
0.0
 11
-48.2964399245
 21
11.7614077707
 31
0.0
  0
LINE
  5
1D3
330
1F
100
AcDbEntity
  8
0
  6
Continuous
 62
     7
370
    15
100
AcDbLine
 10
-47.2965922293
 20
10.7615600755
 30
0.0
 11
-47.2965922293
 21
10.5115981518
 31
0.0
  0
LINE
  5
1D4
330
1F
100
AcDbEntity
  8
0
  6
Continuous
 62
     7
370
    15
100
AcDbLine
 10
-48.5464018482
 20
17.1945922293
 30
0.0
 11
-48.2964399245
 21
17.1945922293
 31
0.0
  0
LINE
  5
1D5
330
1F
100
AcDbEntity
  8
0
  6
Continuous
 62
     7
370
    15
100
AcDbLine
 10
-48.2964399245
 20
17.1945922293
 30
0.0
 11
-48.2964399245
 21
11.7614077707
 31
0.0
  0
LINE
  5
1D6
330
1F
100
AcDbEntity
  8
0
  6
Continuous
 62
     7
370
    15
100
AcDbLine
 10
-47.2965922293
 20
10.7615600755
 30
0.0
 11
-41.0954077707
 21
10.7615600755
 31
0.0
  0
LINE
  5
1D7
330
1F
100
AcDbEntity
  8
0
  6
Continuous
 62
     7
370
    15
100
AcDbLine
 10
-41.0954077707
 20
10.7615600755
 30
0.0
 11
-41.0954077707
 21
10.5115981518
 31
0.0
  0
LINE
  5
1D8
330
1F
100
AcDbEntity
  8
0
  6
Continuous
 62
     7
370
    15
100
AcDbLine
 10
-47.2965922293
 20
18.4444018482
 30
0.0
 11
-47.2965922293
 21
18.1944399245
 31
0.0
  0
LINE
  5
1D9
330
1F
100
AcDbEntity
  8
0
  6
Continuous
 62
     7
370
    15
100
AcDbLine
 10
-40.0955600755
 20
11.7614077707
 30
0.0
 11
-39.8455981518
 21
11.7614077707
 31
0.0
  0
LINE
  5
1DA
330
1F
100
AcDbEntity
  8
0
  6
Continuous
 62
     7
370
    15
100
AcDbLine
 10
-41.0954077707
 20
18.4444018482
 30
0.0
 11
-41.0954077707
 21
18.1944399245
 31
0.0
  0
LINE
  5
1DB
330
1F
100
AcDbEntity
  8
0
  6
Continuous
 62
     7
370
    15
100
AcDbLine
 10
-41.0954077707
 20
18.1944399245
 30
0.0
 11
-47.2965922293
 21
18.1944399245
 31
0.0
  0
LINE
  5
1DC
330
1F
100
AcDbEntity
  8
0
  6
Continuous
 62
     7
370
    15
100
AcDbLine
 10
-37.15
 20
-17.1
 30
0.0
 11
-37.156982026
 21
-17.1
 31
0.0
  0
LINE
  5
1DD
330
1F
100
AcDbEntity
  8
0
  6
Continuous
 62
     7
370
    15
100
AcDbLine
 10
-37.15
 20
-17.1
 30
0.0
 11
-37.15
 21
-23.9
 31
0.0
  0
LINE
  5
1DE
330
1F
100
AcDbEntity
  8
0
  6
Continuous
 62
     7
370
    15
100
AcDbLine
 10
-37.156982026
 20
-23.9
 30
0.0
 11
-37.15
 21
-23.9
 31
0.0
  0
LINE
  5
1DF
330
1F
100
AcDbEntity
  8
0
  6
Continuous
 62
     7
370
    15
100
AcDbLine
 10
-35.65
 20
-15.593017974
 30
0.0
 11
-35.65
 21
-15.6
 31
0.0
  0
LINE
  5
1E0
330
1F
100
AcDbEntity
  8
0
  6
Continuous
 62
     7
370
    15
100
AcDbLine
 10
35.65
 20
-15.6
 30
0.0
 11
35.65
 21
-15.593017974
 31
0.0
  0
LINE
  5
1E1
330
1F
100
AcDbEntity
  8
0
  6
Continuous
 62
     7
370
    15
100
AcDbLine
 10
35.65
 20
-15.6
 30
0.0
 11
-35.65
 21
-15.6
 31
0.0
  0
LINE
  5
1E2
330
1F
100
AcDbEntity
  8
0
  6
Continuous
 62
     7
370
    15
100
AcDbLine
 10
37.156982026
 20
-17.1
 30
0.0
 11
37.15
 21
-17.1
 31
0.0
  0
LINE
  5
1E3
330
1F
100
AcDbEntity
  8
0
  6
Continuous
 62
     7
370
    15
100
AcDbLine
 10
37.15
 20
-23.9
 30
0.0
 11
37.156982026
 21
-23.9
 31
0.0
  0
LINE
  5
1E4
330
1F
100
AcDbEntity
  8
0
  6
Continuous
 62
     7
370
    15
100
AcDbLine
 10
37.15
 20
-23.9
 30
0.0
 11
37.15
 21
-17.1
 31
0.0
  0
LINE
  5
1E5
330
1F
100
AcDbEntity
  8
0
  6
Continuous
 62
     7
370
    15
100
AcDbLine
 10
-35.65
 20
-25.4
 30
0.0
 11
-35.65
 21
-25.406982026
 31
0.0
  0
LINE
  5
1E6
330
1F
100
AcDbEntity
  8
0
  6
Continuous
 62
     7
370
    15
100
AcDbLine
 10
-35.65
 20
-25.4
 30
0.0
 11
35.65
 21
-25.4
 31
0.0
  0
LINE
  5
1E7
330
1F
100
AcDbEntity
  8
0
  6
Continuous
 62
     7
370
    15
100
AcDbLine
 10
35.65
 20
-25.406982026
 30
0.0
 11
35.65
 21
-25.4
 31
0.0
  0
LINE
  5
1E8
330
1F
100
AcDbEntity
  8
0
  6
Continuous
 62
     7
370
    15
100
AcDbLine
 10
-47.2965922293
 20
-3.7164399245
 30
0.0
 11
-41.0954077707
 21
-3.7164399245
 31
0.0
  0
LINE
  5
1E9
330
1F
100
AcDbEntity
  8
0
  6
Continuous
 62
     7
370
    15
100
AcDbLine
 10
-41.0954077707
 20
-3.7164399245
 30
0.0
 11
-41.0954077707
 21
-3.9664018482
 31
0.0
  0
LINE
  5
1EA
330
1F
100
AcDbEntity
  8
0
  6
Continuous
 62
     7
370
    15
100
AcDbLine
 10
-47.2965922293
 20
-3.7164399245
 30
0.0
 11
-47.2965922293
 21
-3.9664018482
 31
0.0
  0
LINE
  5
1EB
330
1F
100
AcDbEntity
  8
0
  6
Continuous
 62
     7
370
    15
100
AcDbLine
 10
-44.01
 20
28.4346054738
 30
0.0
 11
-44.01
 21
30.6547677897
 31
0.0
  0
LINE
  5
1EC
330
1F
100
AcDbEntity
  8
0
  6
Continuous
 62
     7
370
    15
100
AcDbLine
 10
-44.01
 20
30.4343008641
 30
0.0
 11
44.01
 21
30.4343008641
 31
0.0
  0
LINE
  5
1ED
330
1F
100
AcDbEntity
  8
0
  6
Continuous
 62
     7
370
    15
100
AcDbLine
 10
-48.5464018482
 20
-17.1945922293
 30
0.0
 11
-48.2964399245
 21
-17.1945922293
 31
0.0
  0
LINE
  5
1EE
330
1F
100
AcDbEntity
  8
0
  6
Continuous
 62
     7
370
    15
100
AcDbLine
 10
-47.2965922293
 20
-18.1944399245
 30
0.0
 11
-47.2965922293
 21
-18.4444018482
 31
0.0
  0
LINE
  5
1EF
330
1F
100
AcDbEntity
  8
0
  6
Continuous
 62
     7
370
    15
100
AcDbLine
 10
-48.5464018482
 20
-11.7614077707
 30
0.0
 11
-48.2964399245
 21
-11.7614077707
 31
0.0
  0
LINE
  5
1F0
330
1F
100
AcDbEntity
  8
0
  6
Continuous
 62
     7
370
    15
100
AcDbLine
 10
-48.2964399245
 20
-11.7614077707
 30
0.0
 11
-48.2964399245
 21
-17.1945922293
 31
0.0
  0
LINE
  5
1F1
330
1F
100
AcDbEntity
  8
0
  6
Continuous
 62
     7
370
    15
100
AcDbLine
 10
-47.2965922293
 20
-18.1944399245
 30
0.0
 11
-41.0954077707
 21
-18.1944399245
 31
0.0
  0
LINE
  5
1F2
330
1F
100
AcDbEntity
  8
0
  6
Continuous
 62
     7
370
    15
100
AcDbLine
 10
-41.0954077707
 20
-18.1944399245
 30
0.0
 11
-41.0954077707
 21
-18.4444018482
 31
0.0
  0
LINE
  5
1F3
330
1F
100
AcDbEntity
  8
0
  6
Continuous
 62
     7
370
    15
100
AcDbLine
 10
-47.2965922293
 20
-10.5115981518
 30
0.0
 11
-47.2965922293
 21
-10.7615600755
 31
0.0
  0
LINE
  5
1F4
330
1F
100
AcDbEntity
  8
0
  6
Continuous
 62
     7
370
    15
100
AcDbLine
 10
-40.0955600755
 20
-17.1945922293
 30
0.0
 11
-39.8455981518
 21
-17.1945922293
 31
0.0
  0
LINE
  5
1F5
330
1F
100
AcDbEntity
  8
0
  6
Continuous
 62
     7
370
    15
100
AcDbLine
 10
-41.0954077707
 20
-10.7615600755
 30
0.0
 11
-47.2965922293
 21
-10.7615600755
 31
0.0
  0
LINE
  5
1F6
330
1F
100
AcDbEntity
  8
0
  6
Continuous
 62
     7
370
    15
100
AcDbLine
 10
-40.0955600755
 20
-17.1945922293
 30
0.0
 11
-40.0955600755
 21
-11.7614077707
 31
0.0
  0
LINE
  5
1F7
330
1F
100
AcDbEntity
  8
0
  6
Continuous
 62
     7
370
    15
100
AcDbLine
 10
-40.0955600755
 20
17.1945922293
 30
0.0
 11
-39.8455981518
 21
17.1945922293
 31
0.0
  0
LINE
  5
1F8
330
1F
100
AcDbEntity
  8
0
  6
Continuous
 62
     7
370
    15
100
AcDbLine
 10
-48.5464018482
 20
2.7165922293
 30
0.0
 11
-48.2964399245
 21
2.7165922293
 31
0.0
  0
LINE
  5
1F9
330
1F
100
AcDbEntity
  8
0
  6
Continuous
 62
     7
370
    15
100
AcDbLine
 10
-48.2964399245
 20
2.7165922293
 30
0.0
 11
-48.2964399245
 21
-2.7165922293
 31
0.0
  0
LINE
  5
1FA
330
1F
100
AcDbEntity
  8
0
  6
Continuous
 62
     7
370
    15
100
AcDbLine
 10
-48.5464018482
 20
-2.7165922293
 30
0.0
 11
-48.2964399245
 21
-2.7165922293
 31
0.0
  0
LINE
  5
1FB
330
1F
100
AcDbEntity
  8
0
  6
Continuous
 62
     7
370
    15
100
AcDbLine
 10
-47.2965922293
 20
3.9664018482
 30
0.0
 11
-47.2965922293
 21
3.7164399245
 31
0.0
  0
LINE
  5
1FC
330
1F
100
AcDbEntity
  8
0
  6
Continuous
 62
     7
370
    15
100
AcDbLine
 10
-40.0955600755
 20
-2.7165922293
 30
0.0
 11
-39.8455981518
 21
-2.7165922293
 31
0.0
  0
LINE
  5
1FD
330
1F
100
AcDbEntity
  8
0
  6
Continuous
 62
     7
370
    15
100
AcDbLine
 10
-41.0954077707
 20
3.9664018482
 30
0.0
 11
-41.0954077707
 21
3.7164399245
 31
0.0
  0
LINE
  5
1FE
330
1F
100
AcDbEntity
  8
0
  6
Continuous
 62
     7
370
    15
100
AcDbLine
 10
-41.0954077707
 20
3.7164399245
 30
0.0
 11
-47.2965922293
 21
3.7164399245
 31
0.0
  0
LINE
  5
1FF
330
1F
100
AcDbEntity
  8
0
  6
Continuous
 62
     7
370
    15
100
AcDbLine
 10
-40.0955600755
 20
-2.7165922293
 30
0.0
 11
-40.0955600755
 21
2.7165922293
 31
0.0
  0
LINE
  5
200
330
1F
100
AcDbEntity
  8
0
  6
Continuous
 62
     7
370
    15
100
AcDbLine
 10
-40.0955600755
 20
2.7165922293
 30
0.0
 11
-39.8455981518
 21
2.7165922293
 31
0.0
  0
LINE
  5
201
330
1F
100
AcDbEntity
  8
0
  6
Continuous
 62
     7
370
    15
100
AcDbLine
 10
-40.0955600755
 20
11.7614077707
 30
0.0
 11
-40.0955600755
 21
17.1945922293
 31
0.0
  0
LINE
  5
202
330
1F
100
AcDbEntity
  8
0
  6
Continuous
 62
     7
370
    15
100
AcDbLine
 10
34.15
 20
20.3738174026
 30
0.0
 11
-34.15
 21
20.3738174026
 31
0.0
  0
LINE
  5
203
330
1F
100
AcDbEntity
  8
0
  6
Continuous
 62
     7
370
    15
100
AcDbLine
 10
-35.1238174026
 20
19.4
 30
0.0
 11
-35.1238174026
 21
-12.6
 31
0.0
  0
LINE
  5
204
330
1F
100
AcDbEntity
  8
0
  6
Continuous
 62
     7
370
    15
100
AcDbLine
 10
-34.15
 20
-13.5738174026
 30
0.0
 11
34.15
 21
-13.5738174026
 31
0.0
  0
LINE
  5
205
330
1F
100
AcDbEntity
  8
0
  6
Continuous
 62
     7
370
    15
100
AcDbLine
 10
35.1238174026
 20
-12.6
 30
0.0
 11
35.1238174026
 21
19.4
 31
0.0
  0
LINE
  5
206
330
1F
100
AcDbEntity
  8
0
  6
Continuous
 62
     7
370
    15
100
AcDbLine
 10
51.2647677897
 20
-21.15
 30
0.0
 11
51.2647677897
 21
23.4
 31
0.0
  0
LINE
  5
207
330
1F
100
AcDbEntity
  8
0
  6
Continuous
 62
     7
370
    15
100
AcDbLine
 10
-51.2647677897
 20
23.4
 30
0.0
 11
-51.2647677897
 21
0.89
 31
0.0
  0
LINE
  5
208
330
1F
100
AcDbEntity
  8
0
  6
Continuous
 62
     7
370
    15
100
AcDbLine
 10
-51.2647677897
 20
-15.11
 30
0.0
 11
-51.2647677897
 21
-21.15
 31
0.0
  0
LINE
  5
209
330
1F
100
AcDbEntity
  8
0
  6
Continuous
 62
     7
370
    15
100
AcDbLine
 10
-51.2124025949
 20
-11.1624939871
 30
0.0
 11
-51.2124025949
 21
-11.8696296508
 31
0.0
  0
LINE
  5
20A
330
1F
100
AcDbEntity
  8
0
  6
Continuous
 62
     7
370
    15
100
AcDbLine
 10
-51.2035532093
 20
-11.1536446015
 30
0.0
 11
-51.2124025949
 21
-11.1624939871
 31
0.0
  0
LINE
  5
20B
330
1F
100
AcDbEntity
  8
0
  6
Continuous
 62
     7
370
    15
100
AcDbLine
 10
-51.1958355149
 20
-3.5162868613
 30
0.0
 11
-51.1958355149
 21
-10.7037131387
 31
0.0
  0
LINE
  5
20C
330
1F
100
AcDbEntity
  8
0
  6
Continuous
 62
     7
370
    15
100
AcDbLine
 10
-51.2124025949
 20
-3.0575060129
 30
0.0
 11
-51.2035532093
 21
-3.0663553985
 31
0.0
  0
LINE
  5
20D
330
1F
100
AcDbEntity
  8
0
  6
Continuous
 62
     7
370
    15
100
AcDbLine
 10
-51.2124025949
 20
-2.3503703492
 30
0.0
 11
-51.2124025949
 21
-3.0575060129
 31
0.0
  0
LINE
  5
20E
330
1F
100
AcDbEntity
  8
0
  6
Continuous
 62
     7
370
    15
100
AcDbLine
 10
37.0
 20
30.5199274132
 30
0.0
 11
-37.0
 21
30.5199274132
 31
0.0
  0
LINE
  5
20F
330
1F
100
AcDbEntity
  8
0
  6
Continuous
 62
     7
370
    15
100
AcDbLine
 10
40.25
 20
30.6547677897
 30
0.0
 11
40.25
 21
30.5766563742
 31
0.0
  0
LINE
  5
210
330
1F
100
AcDbEntity
  8
0
  6
Continuous
 62
     7
370
    15
100
AcDbLine
 10
44.01
 20
30.6547677897
 30
0.0
 11
40.25
 21
30.6547677897
 31
0.0
  0
LINE
  5
211
330
1F
100
AcDbEntity
  8
0
  6
Continuous
 62
     7
370
    15
100
AcDbLine
 10
-40.25
 20
30.6547677897
 30
0.0
 11
-44.01
 21
30.6547677897
 31
0.0
  0
LINE
  5
212
330
1F
100
AcDbEntity
  8
0
  6
Continuous
 62
     7
370
    15
100
AcDbLine
 10
-40.25
 20
30.5766563742
 30
0.0
 11
-40.25
 21
30.6547677897
 31
0.0
  0
LINE
  5
213
330
1F
100
AcDbEntity
  8
0
  6
Continuous
 62
     7
370
    15
100
AcDbLine
 10
32.0746022404
 20
-28.4047677897
 30
0.0
 11
44.01
 21
-28.4047677897
 31
0.0
  0
LINE
  5
214
330
1F
100
AcDbEntity
  8
0
  6
Continuous
 62
     7
370
    15
100
AcDbLine
 10
30.3076010382
 20
-28.357486798
 30
0.0
 11
30.3248687739
 21
-28.3747545337
 31
0.0
  0
LINE
  5
215
330
1F
100
AcDbEntity
  8
0
  6
Continuous
 62
     7
370
    15
100
AcDbLine
 10
17.9423228094
 20
-28.348911582
 30
0.0
 11
29.8076771906
 21
-28.348911582
 31
0.0
  0
LINE
  5
216
330
1F
100
AcDbEntity
  8
0
  6
Continuous
 62
     7
370
    15
100
AcDbLine
 10
17.4251312261
 20
-28.3747545337
 30
0.0
 11
17.4423989618
 21
-28.357486798
 31
0.0
  0
LINE
  5
217
330
1F
100
AcDbEntity
  8
0
  6
Continuous
 62
     7
370
    15
100
AcDbLine
 10
-44.01
 20
-28.4047677897
 30
0.0
 11
15.6753977596
 21
-28.4047677897
 31
0.0
  0
LINE
  5
218
330
1F
100
AcDbEntity
  8
0
  6
Continuous
 62
     8
370
    15
100
AcDbLine
 10
-40.246621312
 20
30.5740703101
 30
0.0
 11
-40.25
 21
30.5766563742
 31
0.0
  0
LINE
  5
219
330
1F
100
AcDbEntity
  8
0
  6
Continuous
 62
     8
370
    15
100
AcDbLine
 10
40.25
 20
30.5766563742
 30
0.0
 11
40.2467004607
 21
30.5741007644
 31
0.0
  0
LINE
  5
21A
330
1F
100
AcDbEntity
  8
0
  6
Continuous
 62
     8
370
    15
100
AcDbLine
 10
-51.2035532093
 20
-3.0663553985
 30
0.0
 11
-51.2007054748
 21
-3.1000430221
 31
0.0
  0
LINE
  5
21B
330
1F
100
AcDbEntity
  8
0
  6
Continuous
 62
     8
370
    15
100
AcDbLine
 10
-51.2035532093
 20
-11.1536446015
 30
0.0
 11
-51.201246195
 21
-11.1232966674
 31
0.0
  0
LINE
  5
21C
330
1F
100
AcDbEntity
  8
0
  6
Continuous
 62
     8
370
    15
100
AcDbLine
 10
30.3076010382
 20
-28.357486798
 30
0.0
 11
30.2705042864
 21
-28.3547300132
 31
0.0
  0
LINE
  5
21D
330
1F
100
AcDbEntity
  8
0
  6
Continuous
 62
     8
370
    15
100
AcDbLine
 10
17.4423989618
 20
-28.357486798
 30
0.0
 11
17.4829086276
 21
-28.3541947294
 31
0.0
  0
ARC
  5
21E
330
1F
100
AcDbEntity
  8
0
  6
Continuous
 62
     7
370
    15
100
AcDbCircle
 10
-41.0953426041
 20
-11.7613426041
 30
0.0
 40
1.249744454040759
100
AcDbArc
 50
359.9970123721
 51
90.0029876279
  0
ARC
  5
21F
330
1F
100
AcDbEntity
  8
0
  6
Continuous
 62
     7
370
    15
100
AcDbCircle
 10
-41.0952534804
 20
-11.7612534804
 30
0.0
 40
0.9996934168017391
100
AcDbArc
 50
359.9911571081
 51
90.0088428919
  0
ARC
  5
220
330
1F
100
AcDbEntity
  8
0
  6
Continuous
 62
     7
370
    15
100
AcDbCircle
 10
47.2966573959
 20
-17.1946573959
 30
0.0
 40
1.249744454040766
100
AcDbArc
 50
269.9970123721
 51
0.0029876279
  0
ARC
  5
221
330
1F
100
AcDbEntity
  8
0
  6
Continuous
 62
     7
370
    15
100
AcDbCircle
 10
47.2967465196
 20
-17.1947465196
 30
0.0
 40
0.9996934168017533
100
AcDbArc
 50
269.9911571081
 51
0.0088428919
  0
ARC
  5
222
330
1F
100
AcDbEntity
  8
0
  6
Continuous
 62
     7
370
    15
100
AcDbCircle
 10
41.0953426041
 20
-17.1946573959
 30
0.0
 40
1.249744454040755
100
AcDbArc
 50
179.9970123721
 51
270.0029876279
  0
ARC
  5
223
330
1F
100
AcDbEntity
  8
0
  6
Continuous
 62
     7
370
    15
100
AcDbCircle
 10
41.0952534804
 20
-17.1947465196
 30
0.0
 40
0.9996934168017391
100
AcDbArc
 50
179.9911571081
 51
270.0088428919
  0
ARC
  5
224
330
1F
100
AcDbEntity
  8
0
  6
Continuous
 62
     7
370
    15
100
AcDbCircle
 10
47.2967465196
 20
-11.7612534804
 30
0.0
 40
0.9996934168017462
100
AcDbArc
 50
359.9911571081
 51
90.0088428919
  0
ARC
  5
225
330
1F
100
AcDbEntity
  8
0
  6
Continuous
 62
     7
370
    15
100
AcDbCircle
 10
47.2966573959
 20
-11.7613426041
 30
0.0
 40
1.249744454040766
100
AcDbArc
 50
359.9970123721
 51
90.0029876279
  0
ARC
  5
226
330
1F
100
AcDbEntity
  8
0
  6
Continuous
 62
     7
370
    15
100
AcDbCircle
 10
41.0953426041
 20
-11.7613426041
 30
0.0
 40
1.249744454040755
100
AcDbArc
 50
89.9970123721
 51
180.0029876279
  0
ARC
  5
227
330
1F
100
AcDbEntity
  8
0
  6
Continuous
 62
     7
370
    15
100
AcDbCircle
 10
41.0952534804
 20
-11.7612534804
 30
0.0
 40
0.9996934168017391
100
AcDbArc
 50
89.9911571081
 51
180.0088428919
  0
ARC
  5
228
330
1F
100
AcDbEntity
  8
0
  6
Continuous
 62
     7
370
    15
100
AcDbCircle
 10
47.2966573959
 20
-2.7166573959
 30
0.0
 40
1.249744454040762
100
AcDbArc
 50
269.9970123721
 51
0.0029876279
  0
ARC
  5
229
330
1F
100
AcDbEntity
  8
0
  6
Continuous
 62
     7
370
    15
100
AcDbCircle
 10
47.2967465196
 20
-2.7167465196
 30
0.0
 40
0.9996934168017546
100
AcDbArc
 50
269.9911571081
 51
0.0088428919
  0
ARC
  5
22A
330
1F
100
AcDbEntity
  8
0
  6
Continuous
 62
     7
370
    15
100
AcDbCircle
 10
41.0953426041
 20
-2.7166573959
 30
0.0
 40
1.249744454040759
100
AcDbArc
 50
179.9970123721
 51
270.0029876279
  0
ARC
  5
22B
330
1F
100
AcDbEntity
  8
0
  6
Continuous
 62
     7
370
    15
100
AcDbCircle
 10
41.0952534804
 20
-2.7167465196
 30
0.0
 40
0.9996934168017328
100
AcDbArc
 50
179.9911571081
 51
270.0088428919
  0
ARC
  5
22C
330
1F
100
AcDbEntity
  8
0
  6
Continuous
 62
     7
370
    15
100
AcDbCircle
 10
47.2967465196
 20
2.7167465196
 30
0.0
 40
0.9996934168017346
100
AcDbArc
 50
359.9911571081
 51
90.0088428919
  0
ARC
  5
22D
330
1F
100
AcDbEntity
  8
0
  6
Continuous
 62
     7
370
    15
100
AcDbCircle
 10
47.2966573959
 20
2.7166573959
 30
0.0
 40
1.249744454040766
100
AcDbArc
 50
359.9970123721
 51
90.0029876279
  0
ARC
  5
22E
330
1F
100
AcDbEntity
  8
0
  6
Continuous
 62
     7
370
    15
100
AcDbCircle
 10
34.15
 20
-12.6
 30
0.0
 40
2.500000000000009
100
AcDbArc
 50
270.0
 51
0.0
  0
ARC
  5
22F
330
1F
100
AcDbEntity
  8
0
  6
Continuous
 62
     7
370
    15
100
AcDbCircle
 10
34.15
 20
19.4
 30
0.0
 40
2.499999999999993
100
AcDbArc
 50
0.0
 51
90.0
  0
ARC
  5
230
330
1F
100
AcDbEntity
  8
0
  6
Continuous
 62
     7
370
    15
100
AcDbCircle
 10
-34.15
 20
19.4
 30
0.0
 40
2.499999999999993
100
AcDbArc
 50
90.0
 51
180.0
  0
ARC
  5
231
330
1F
100
AcDbEntity
  8
0
  6
Continuous
 62
     7
370
    15
100
AcDbCircle
 10
-34.15
 20
-12.6
 30
0.0
 40
2.499999999999993
100
AcDbArc
 50
180.0
 51
270.0
  0
ARC
  5
232
330
1F
100
AcDbEntity
  8
0
  6
Continuous
 62
     7
370
    15
100
AcDbCircle
 10
-35.65
 20
-23.9
 30
0.0
 40
1.506982025971304
100
AcDbArc
 50
180.0
 51
270.0
  0
ARC
  5
233
330
1F
100
AcDbEntity
  8
0
  6
Continuous
 62
     7
370
    15
100
AcDbCircle
 10
35.65
 20
-23.9
 30
0.0
 40
1.506982025971283
100
AcDbArc
 50
270.0
 51
0.0
  0
ARC
  5
234
330
1F
100
AcDbEntity
  8
0
  6
Continuous
 62
     7
370
    15
100
AcDbCircle
 10
35.65
 20
-17.1
 30
0.0
 40
1.506982025971311
100
AcDbArc
 50
0.0
 51
90.0
  0
ARC
  5
235
330
1F
100
AcDbEntity
  8
0
  6
Continuous
 62
     7
370
    15
100
AcDbCircle
 10
-35.65
 20
-17.1
 30
0.0
 40
1.506982025971286
100
AcDbArc
 50
90.0
 51
180.0
  0
ARC
  5
236
330
1F
100
AcDbEntity
  8
0
  6
Continuous
 62
     7
370
    15
100
AcDbCircle
 10
-44.01
 20
23.4
 30
0.0
 40
5.034605473768629
100
AcDbArc
 50
90.0
 51
180.0
  0
ARC
  5
237
330
1F
100
AcDbEntity
  8
0
  6
Continuous
 62
     7
370
    15
100
AcDbCircle
 10
44.01
 20
23.4
 30
0.0
 40
5.034605473768629
100
AcDbArc
 50
0.0
 51
90.0
  0
ARC
  5
238
330
1F
100
AcDbEntity
  8
0
  6
Continuous
 62
     7
370
    15
100
AcDbCircle
 10
44.01
 20
-21.15
 30
0.0
 40
5.034605473768657
100
AcDbArc
 50
270.0
 51
0.0
  0
ARC
  5
239
330
1F
100
AcDbEntity
  8
0
  6
Continuous
 62
     7
370
    15
100
AcDbCircle
 10
-44.01
 20
-21.15
 30
0.0
 40
5.034605473768629
100
AcDbArc
 50
180.0
 51
270.0
  0
ARC
  5
23A
330
1F
100
AcDbEntity
  8
0
  6
Continuous
 62
     7
370
    15
100
AcDbCircle
 10
47.2966573959
 20
11.7613426041
 30
0.0
 40
1.249744454040761
100
AcDbArc
 50
269.9970123721
 51
0.0029876279
  0
ARC
  5
23B
330
1F
100
AcDbEntity
  8
0
  6
Continuous
 62
     7
370
    15
100
AcDbCircle
 10
47.2966573959
 20
17.1946573959
 30
0.0
 40
1.249744454040766
100
AcDbArc
 50
359.9970123721
 51
90.0029876279
  0
ARC
  5
23C
330
1F
100
AcDbEntity
  8
0
  6
Continuous
 62
     7
370
    15
100
AcDbCircle
 10
41.0953426041
 20
17.1946573959
 30
0.0
 40
1.249744454040763
100
AcDbArc
 50
89.9970123721
 51
180.0029876279
  0
ARC
  5
23D
330
1F
100
AcDbEntity
  8
0
  6
Continuous
 62
     7
370
    15
100
AcDbCircle
 10
41.0953426041
 20
11.7613426041
 30
0.0
 40
1.249744454040757
100
AcDbArc
 50
179.9970123721
 51
270.0029876279
  0
ARC
  5
23E
330
1F
100
AcDbEntity
  8
0
  6
Continuous
 62
     7
370
    15
100
AcDbCircle
 10
41.0953426041
 20
2.7166573959
 30
0.0
 40
1.249744454040759
100
AcDbArc
 50
89.9970123721
 51
180.0029876279
  0
ARC
  5
23F
330
1F
100
AcDbEntity
  8
0
  6
Continuous
 62
     7
370
    15
100
AcDbCircle
 10
-47.2966573959
 20
-11.7613426041
 30
0.0
 40
1.249744454040766
100
AcDbArc
 50
89.9970123721
 51
180.0029876279
  0
ARC
  5
240
330
1F
100
AcDbEntity
  8
0
  6
Continuous
 62
     7
370
    15
100
AcDbCircle
 10
-47.2966573959
 20
-17.1946573959
 30
0.0
 40
1.24974445404077
100
AcDbArc
 50
179.9970123721
 51
270.0029876279
  0
ARC
  5
241
330
1F
100
AcDbEntity
  8
0
  6
Continuous
 62
     7
370
    15
100
AcDbCircle
 10
-41.0953426041
 20
-17.1946573959
 30
0.0
 40
1.249744454040763
100
AcDbArc
 50
269.9970123721
 51
0.0029876279
  0
ARC
  5
242
330
1F
100
AcDbEntity
  8
0
  6
Continuous
 62
     7
370
    15
100
AcDbCircle
 10
-47.2966573959
 20
2.7166573959
 30
0.0
 40
1.249744454040759
100
AcDbArc
 50
89.9970123721
 51
180.0029876279
  0
ARC
  5
243
330
1F
100
AcDbEntity
  8
0
  6
Continuous
 62
     7
370
    15
100
AcDbCircle
 10
-47.2966573959
 20
-2.7166573959
 30
0.0
 40
1.249744454040766
100
AcDbArc
 50
179.9970123721
 51
270.0029876279
  0
ARC
  5
244
330
1F
100
AcDbEntity
  8
0
  6
Continuous
 62
     7
370
    15
100
AcDbCircle
 10
-41.0953426041
 20
-2.7166573959
 30
0.0
 40
1.249744454040759
100
AcDbArc
 50
269.9970123721
 51
0.0029876279
  0
ARC
  5
245
330
1F
100
AcDbEntity
  8
0
  6
Continuous
 62
     7
370
    15
100
AcDbCircle
 10
-41.0953426041
 20
2.7166573959
 30
0.0
 40
1.249744454040759
100
AcDbArc
 50
359.9970123721
 51
90.0029876279
  0
ARC
  5
246
330
1F
100
AcDbEntity
  8
0
  6
Continuous
 62
     7
370
    15
100
AcDbCircle
 10
-47.2966573959
 20
17.1946573959
 30
0.0
 40
1.249744454040766
100
AcDbArc
 50
89.9970123721
 51
180.0029876279
  0
ARC
  5
247
330
1F
100
AcDbEntity
  8
0
  6
Continuous
 62
     7
370
    15
100
AcDbCircle
 10
-47.2966573959
 20
11.7613426041
 30
0.0
 40
1.249744454040766
100
AcDbArc
 50
179.9970123721
 51
270.0029876279
  0
ARC
  5
248
330
1F
100
AcDbEntity
  8
0
  6
Continuous
 62
     7
370
    15
100
AcDbCircle
 10
-41.0953426041
 20
11.7613426041
 30
0.0
 40
1.249744454040754
100
AcDbArc
 50
269.9970123721
 51
0.0029876279
  0
ARC
  5
249
330
1F
100
AcDbEntity
  8
0
  6
Continuous
 62
     7
370
    15
100
AcDbCircle
 10
-41.0953426041
 20
17.1946573959
 30
0.0
 40
1.249744454040755
100
AcDbArc
 50
359.9970123721
 51
90.0029876279
  0
ARC
  5
24A
330
1F
100
AcDbEntity
  8
0
  6
Continuous
 62
     7
370
    15
100
AcDbCircle
 10
47.2967465196
 20
17.1947465196
 30
0.0
 40
0.9996934168017462
100
AcDbArc
 50
359.9911571081
 51
90.0088428919
  0
ARC
  5
24B
330
1F
100
AcDbEntity
  8
0
  6
Continuous
 62
     7
370
    15
100
AcDbCircle
 10
47.2967465196
 20
11.7612534804
 30
0.0
 40
0.999693416801755
100
AcDbArc
 50
269.9911571081
 51
0.0088428919
  0
ARC
  5
24C
330
1F
100
AcDbEntity
  8
0
  6
Continuous
 62
     7
370
    15
100
AcDbCircle
 10
41.0952534804
 20
17.1947465196
 30
0.0
 40
0.9996934168017391
100
AcDbArc
 50
89.9911571081
 51
180.0088428919
  0
ARC
  5
24D
330
1F
100
AcDbEntity
  8
0
  6
Continuous
 62
     7
370
    15
100
AcDbCircle
 10
41.0952534804
 20
11.7612534804
 30
0.0
 40
0.9996934168017391
100
AcDbArc
 50
179.9911571081
 51
270.0088428919
  0
ARC
  5
24E
330
1F
100
AcDbEntity
  8
0
  6
Continuous
 62
     7
370
    15
100
AcDbCircle
 10
44.01
 20
23.4
 30
0.0
 40
7.03430086408143
100
AcDbArc
 50
0.0
 51
90.0
  0
ARC
  5
24F
330
1F
100
AcDbEntity
  8
0
  6
Continuous
 62
     7
370
    15
100
AcDbCircle
 10
-44.01
 20
-21.15
 30
0.0
 40
7.034300864081409
100
AcDbArc
 50
180.0
 51
270.0
  0
ARC
  5
250
330
1F
100
AcDbEntity
  8
0
  6
Continuous
 62
     7
370
    15
100
AcDbCircle
 10
44.01
 20
-21.15
 30
0.0
 40
7.034300864081402
100
AcDbArc
 50
270.0
 51
0.0
  0
ARC
  5
251
330
1F
100
AcDbEntity
  8
0
  6
Continuous
 62
     7
370
    15
100
AcDbCircle
 10
-34.15
 20
19.4
 30
0.0
 40
0.9912213904694553
100
AcDbArc
 50
90.0
 51
180.0
  0
ARC
  5
252
330
1F
100
AcDbEntity
  8
0
  6
Continuous
 62
     7
370
    15
100
AcDbCircle
 10
34.15
 20
19.4
 30
0.0
 40
0.9912213904694553
100
AcDbArc
 50
0.0
 51
90.0
  0
ARC
  5
253
330
1F
100
AcDbEntity
  8
0
  6
Continuous
 62
     7
370
    15
100
AcDbCircle
 10
-34.15
 20
-12.6
 30
0.0
 40
0.9912213904694447
100
AcDbArc
 50
180.0
 51
270.0
  0
ARC
  5
254
330
1F
100
AcDbEntity
  8
0
  6
Continuous
 62
     7
370
    15
100
AcDbCircle
 10
34.15
 20
-12.6
 30
0.0
 40
0.9912213904694411
100
AcDbArc
 50
270.0
 51
0.0
  0
ARC
  5
255
330
1F
100
AcDbEntity
  8
0
  6
Continuous
 62
     7
370
    15
100
AcDbCircle
 10
-47.2967465196
 20
11.7612534804
 30
0.0
 40
0.9996934168017426
100
AcDbArc
 50
179.9911571081
 51
270.0088428919
  0
ARC
  5
256
330
1F
100
AcDbEntity
  8
0
  6
Continuous
 62
     7
370
    15
100
AcDbCircle
 10
-47.2967465196
 20
17.1947465196
 30
0.0
 40
0.9996934168017462
100
AcDbArc
 50
89.9911571081
 51
180.0088428919
  0
ARC
  5
257
330
1F
100
AcDbEntity
  8
0
  6
Continuous
 62
     7
370
    15
100
AcDbCircle
 10
-41.0952534804
 20
11.7612534804
 30
0.0
 40
0.9996934168017391
100
AcDbArc
 50
269.9911571081
 51
0.0088428919
  0
ARC
  5
258
330
1F
100
AcDbEntity
  8
0
  6
Continuous
 62
     7
370
    15
100
AcDbCircle
 10
35.65
 20
-23.9
 30
0.0
 40
1.500000000000021
100
AcDbArc
 50
270.0
 51
0.0
  0
ARC
  5
259
330
1F
100
AcDbEntity
  8
0
  6
Continuous
 62
     7
370
    15
100
AcDbCircle
 10
35.65
 20
-17.1
 30
0.0
 40
1.500000000000007
100
AcDbArc
 50
0.0
 51
90.0
  0
ARC
  5
25A
330
1F
100
AcDbEntity
  8
0
  6
Continuous
 62
     7
370
    15
100
AcDbCircle
 10
-35.65
 20
-23.9
 30
0.0
 40
1.500000000000014
100
AcDbArc
 50
180.0
 51
270.0
  0
ARC
  5
25B
330
1F
100
AcDbEntity
  8
0
  6
Continuous
 62
     7
370
    15
100
AcDbCircle
 10
-35.65
 20
-17.1
 30
0.0
 40
1.500000000000021
100
AcDbArc
 50
90.0
 51
180.0
  0
ARC
  5
25C
330
1F
100
AcDbEntity
  8
0
  6
Continuous
 62
     7
370
    15
100
AcDbCircle
 10
-44.01
 20
23.4
 30
0.0
 40
7.034300864081409
100
AcDbArc
 50
90.0
 51
180.0
  0
ARC
  5
25D
330
1F
100
AcDbEntity
  8
0
  6
Continuous
 62
     7
370
    15
100
AcDbCircle
 10
-47.2967465196
 20
-17.1947465196
 30
0.0
 40
0.9996934168017355
100
AcDbArc
 50
179.9911571081
 51
270.0088428919
  0
ARC
  5
25E
330
1F
100
AcDbEntity
  8
0
  6
Continuous
 62
     7
370
    15
100
AcDbCircle
 10
-47.2967465196
 20
-11.7612534804
 30
0.0
 40
0.999693416801755
100
AcDbArc
 50
89.9911571081
 51
180.0088428919
  0
ARC
  5
25F
330
1F
100
AcDbEntity
  8
0
  6
Continuous
 62
     7
370
    15
100
AcDbCircle
 10
-41.0952534804
 20
-17.1947465196
 30
0.0
 40
0.999693416801732
100
AcDbArc
 50
269.9911571081
 51
0.0088428919
  0
ARC
  5
260
330
1F
100
AcDbEntity
  8
0
  6
Continuous
 62
     7
370
    15
100
AcDbCircle
 10
-41.0952534804
 20
17.1947465196
 30
0.0
 40
0.999693416801732
100
AcDbArc
 50
359.9911571081
 51
90.0088428919
  0
ARC
  5
261
330
1F
100
AcDbEntity
  8
0
  6
Continuous
 62
     7
370
    15
100
AcDbCircle
 10
41.0952534804
 20
2.7167465196
 30
0.0
 40
0.9996934168017297
100
AcDbArc
 50
89.9911571081
 51
180.0088428919
  0
ARC
  5
262
330
1F
100
AcDbEntity
  8
0
  6
Continuous
 62
     7
370
    15
100
AcDbCircle
 10
-47.2967465196
 20
-2.7167465196
 30
0.0
 40
0.9996934168017355
100
AcDbArc
 50
179.9911571081
 51
270.0088428919
  0
ARC
  5
263
330
1F
100
AcDbEntity
  8
0
  6
Continuous
 62
     7
370
    15
100
AcDbCircle
 10
-47.2967465196
 20
2.7167465196
 30
0.0
 40
0.999693416801755
100
AcDbArc
 50
89.9911571081
 51
180.0088428919
  0
ARC
  5
264
330
1F
100
AcDbEntity
  8
0
  6
Continuous
 62
     7
370
    15
100
AcDbCircle
 10
-41.0952534804
 20
-2.7167465196
 30
0.0
 40
0.9996934168017293
100
AcDbArc
 50
269.9911571081
 51
0.0088428919
  0
ARC
  5
265
330
1F
100
AcDbEntity
  8
0
  6
Continuous
 62
     7
370
    15
100
AcDbCircle
 10
-41.0952534804
 20
2.7167465196
 30
0.0
 40
0.9996934168017315
100
AcDbArc
 50
359.9911571081
 51
90.0088428919
  0
ARC
  5
266
330
1F
100
AcDbEntity
  8
0
  6
Continuous
 62
     7
370
    15
100
AcDbCircle
 10
34.15
 20
19.4
 30
0.0
 40
0.973817402607672
100
AcDbArc
 50
0.0
 51
90.0
  0
ARC
  5
267
330
1F
100
AcDbEntity
  8
0
  6
Continuous
 62
     7
370
    15
100
AcDbCircle
 10
-34.15
 20
19.4
 30
0.0
 40
0.9738174026076649
100
AcDbArc
 50
90.0
 51
180.0
  0
ARC
  5
268
330
1F
100
AcDbEntity
  8
0
  6
Continuous
 62
     7
370
    15
100
AcDbCircle
 10
-34.15
 20
-12.6
 30
0.0
 40
0.9738174026076862
100
AcDbArc
 50
180.0
 51
270.0
  0
ARC
  5
269
330
1F
100
AcDbEntity
  8
0
  6
Continuous
 62
     7
370
    15
100
AcDbCircle
 10
34.15
 20
-12.6
 30
0.0
 40
0.9738174026076667
100
AcDbArc
 50
270.0
 51
0.0
  0
ARC
  5
26A
330
1F
100
AcDbEntity
  8
0
  6
Continuous
 62
     7
370
    15
100
AcDbCircle
 10
44.01
 20
23.4
 30
0.0
 40
7.254767789730089
100
AcDbArc
 50
0.0
 51
90.0
  0
ARC
  5
26B
330
1F
100
AcDbEntity
  8
0
  6
Continuous
 62
     7
370
    15
100
AcDbCircle
 10
-76.6810626472
 20
-2.0139772038
 30
0.0
 40
25.47088151608455
100
AcDbArc
 50
359.2432744102
 51
2.6083926475
  0
ARC
  5
26C
330
1F
100
AcDbEntity
  8
0
  6
Continuous
 62
     7
370
    15
100
AcDbCircle
 10
-21.5513310621
 20
0.4975413304
 30
0.0
 40
29.71602843543332
100
AcDbArc
 50
179.2432744102
 51
182.6083926475
  0
ARC
  5
26D
330
1F
100
AcDbEntity
  8
0
  6
Continuous
 62
     7
370
    15
100
AcDbCircle
 10
-21.5513310621
 20
-14.7175413304
 30
0.0
 40
29.71602843543423
100
AcDbArc
 50
177.3916073525
 51
180.7567255898
  0
ARC
  5
26E
330
1F
100
AcDbEntity
  8
0
  6
Continuous
 62
     7
370
    15
100
AcDbCircle
 10
-76.6810626472
 20
-12.2060227962
 30
0.0
 40
25.47088151608444
100
AcDbArc
 50
357.3916073525
 51
0.7567255898
  0
ARC
  5
26F
330
1F
100
AcDbEntity
  8
0
  6
Continuous
 62
     7
370
    15
100
AcDbCircle
 10
-61.0185626441
 20
-10.7917431212
 30
0.0
 40
9.823121577812847
100
AcDbArc
 50
357.9995781579
 51
0.5134634586
  0
ARC
  5
270
330
1F
100
AcDbEntity
  8
0
  6
Continuous
 62
     7
370
    15
100
AcDbCircle
 10
-62.3587634044
 20
-3.4495640746
 30
0.0
 40
11.16312729466822
100
AcDbArc
 50
359.6575371095
 51
1.8956041354
  0
ARC
  5
271
330
1F
100
AcDbEntity
  8
0
  6
Continuous
 62
     7
370
    15
100
AcDbCircle
 10
-37.8200471065
 20
78.7138445328
 30
0.0
 40
48.20089340033783
100
AcDbArc
 50
267.1143427959
 51
270.9748264358
  0
ARC
  5
272
330
1F
100
AcDbEntity
  8
0
  6
Continuous
 62
     7
370
    15
100
AcDbCircle
 10
37.755145329
 20
82.5800005964
 30
0.0
 40
52.0655496879851
100
AcDbArc
 50
269.1689676266
 51
272.7428911475
  0
ARC
  5
273
330
1F
100
AcDbEntity
  8
0
  6
Continuous
 62
     7
370
    15
100
AcDbCircle
 10
-44.01
 20
-21.15
 30
0.0
 40
7.254767789730085
100
AcDbArc
 50
180.0
 51
270.0
  0
ARC
  5
274
330
1F
100
AcDbEntity
  8
0
  6
Continuous
 62
     7
370
    15
100
AcDbCircle
 10
31.6474712183
 20
-2.2873564107
 30
0.0
 40
26.1209038521494
100
AcDbArc
 50
267.0976518908
 51
270.936946737
  0
ARC
  5
275
330
1F
100
AcDbEntity
  8
0
  6
Continuous
 62
     7
370
    15
100
AcDbCircle
 10
29.902622809
 20
-39.6666822845
 30
0.0
 40
11.31816894845251
100
AcDbArc
 50
88.0804507108
 51
90.4806472714
  0
ARC
  5
276
330
1F
100
AcDbEntity
  8
0
  6
Continuous
 62
     7
370
    15
100
AcDbCircle
 10
17.8697957865
 20
-41.0605776309
 30
0.0
 40
12.71187295046643
100
AcDbArc
 50
89.6730997179
 51
91.8433978602
  0
ARC
  5
277
330
1F
100
AcDbEntity
  8
0
  6
Continuous
 62
     7
370
    15
100
AcDbCircle
 10
15.8021292019
 20
38.4692908237
 30
0.0
 40
66.87417869623087
100
AcDbArc
 50
269.8914202572
 51
271.0352943445
  0
ARC
  5
278
330
1F
100
AcDbEntity
  8
0
  6
Continuous
 62
     7
370
    15
100
AcDbCircle
 10
-44.01
 20
23.4
 30
0.0
 40
7.254767789730099
100
AcDbArc
 50
90.0
 51
180.0
  0
ARC
  5
279
330
1F
100
AcDbEntity
  8
0
  6
Continuous
 62
     7
370
    15
100
AcDbCircle
 10
44.01
 20
-21.15
 30
0.0
 40
7.254767789730106
100
AcDbArc
 50
270.0
 51
0.0
  0
ARC
  5
27A
330
1F
100
AcDbEntity
  8
0
  6
Continuous
 62
     7
370
    15
100
AcDbCircle
 10
40.2449989063
 20
30.4096257994
 30
0.0
 40
0.2451929981887863
100
AcDbArc
 50
88.8312821399
 51
143.0492589994
  0
ARC
  5
27B
330
1F
100
AcDbEntity
  8
0
  6
Continuous
 62
     7
370
    15
100
AcDbCircle
 10
-40.2449989063
 20
30.4096257994
 30
0.0
 40
0.2451929981888169
100
AcDbArc
 50
36.9507410023
 51
91.1687178601
  0
ARC
  5
27C
330
1F
100
AcDbEntity
  8
0
  6
Continuous
 62
     7
370
    15
100
AcDbCircle
 10
17.4252117006
 20
-28.1248441013
 30
0.0
 40
0.2499104453382592
100
AcDbArc
 50
269.9815499995
 51
294.2177188433
  0
ARC
  5
27D
330
1F
100
AcDbEntity
  8
0
  6
Continuous
 62
     8
370
    15
100
AcDbCircle
 10
17.0288874017
 20
-24.3079430839
 30
0.0
 40
4.086069570664728
100
AcDbArc
 50
269.7412233565
 51
275.5649648714
  0
ARC
  5
27E
330
1F
100
AcDbEntity
  8
0
  6
Continuous
 62
     8
370
    15
100
AcDbCircle
 10
30.3247882994
 20
-28.1248441013
 30
0.0
 40
0.2499104453383788
100
AcDbArc
 50
245.782281157
 51
270.0184500005
  0
ENDSEC
  0
SECTION
  2
OBJECTS
  0
DICTIONARY
  5
C
330
0
100
AcDbDictionary
281
     1
  3
ACAD_GROUP
350
D
  3
ACAD_LAYOUT
350
1A
  3
ACAD_MLINESTYLE
350
17
  3
ACAD_PLOTSETTINGS
350
19
  3
ACAD_PLOTSTYLENAME
350
E
  0
DICTIONARY
  5
D
102
{ACAD_REACTORS
330
C
102
}
330
C
100
AcDbDictionary
281
     1
  0
DICTIONARY
  5
1A
102
{ACAD_REACTORS
330
C
102
}
330
C
100
AcDbDictionary
281
     1
  3
Layout1
350
1E
  3
Layout2
350
26
  3
Model
350
22
  0
DICTIONARY
  5
17
102
{ACAD_REACTORS
330
C
102
}
330
C
100
AcDbDictionary
281
     1
  3
Standard
350
18
  0
DICTIONARY
  5
19
102
{ACAD_REACTORS
330
C
102
}
330
C
100
AcDbDictionary
281
     1
  0
ACDBDICTIONARYWDFLT
  5
E
102
{ACAD_REACTORS
330
C
102
}
330
C
100
AcDbDictionary
281
     1
  3
Normal
350
F
100
AcDbDictionaryWithDefault
340
F
  0
LAYOUT
  5
1E
102
{ACAD_REACTORS
330
1A
102
}
330
1A
100
AcDbPlotSettings
  1

  2
none_device
  4

  6

 40
0.0
 41
0.0
 42
0.0
 43
0.0
 44
0.0
 45
0.0
 46
0.0
 47
0.0
 48
0.0
 49
0.0
140
0.0
141
0.0
142
1.0
143
1.0
 70
   688
 72
     0
 73
     0
 74
     5
  7

 75
    16
147
1.0
148
0.0
149
0.0
100
AcDbLayout
  1
Layout1
 70
     1
 71
     1
 10
0.0
 20
0.0
 11
420.0
 21
297.0
 12
0.0
 22
0.0
 32
0.0
 14
1.0000000000E+20
 24
1.0000000000E+20
 34
1.0000000000E+20
 15
-1.0000000000E+20
 25
-1.0000000000E+20
 35
-1.0000000000E+20
146
0.0
 13
0.0
 23
0.0
 33
0.0
 16
1.0
 26
0.0
 36
0.0
 17
0.0
 27
1.0
 37
0.0
 76
     0
330
1B
  0
LAYOUT
  5
26
102
{ACAD_REACTORS
330
1A
102
}
330
1A
100
AcDbPlotSettings
  1

  2
none_device
  4

  6

 40
0.0
 41
0.0
 42
0.0
 43
0.0
 44
0.0
 45
0.0
 46
0.0
 47
0.0
 48
0.0
 49
0.0
140
0.0
141
0.0
142
1.0
143
1.0
 70
   688
 72
     0
 73
     0
 74
     5
  7

 75
    16
147
1.0
148
0.0
149
0.0
100
AcDbLayout
  1
Layout2
 70
     1
 71
     2
 10
0.0
 20
0.0
 11
0.0
 21
0.0
 12
0.0
 22
0.0
 32
0.0
 14
0.0
 24
0.0
 34
0.0
 15
0.0
 25
0.0
 35
0.0
146
0.0
 13
0.0
 23
0.0
 33
0.0
 16
1.0
 26
0.0
 36
0.0
 17
0.0
 27
1.0
 37
0.0
 76
     0
330
23
  0
LAYOUT
  5
22
102
{ACAD_REACTORS
330
1A
102
}
330
1A
100
AcDbPlotSettings
  1

  2
none_device
  4
ANSI_A_(11.00_x_8.50_Inches)
  6

 40
6.35
 41
19.05
 42
6.35000508
 43
19.05000254
 44
279.4
 45
215.9
 46
133.3534933492
 47
85.8696725946
 48
0.0
 49
0.0
140
0.0
141
0.0
142
0.1062106121
143
1.0
 70
  1696
 72
     0
 73
     0
 74
     0
  7

 75
     0
147
0.0179189148
148
0.0
149
0.0
100
AcDbLayout
  1
Model
 70
     1
 71
     0
 10
0.0
 20
0.0
 11
420.0
 21
297.0
 12
0.0
 22
0.0
 32
0.0
 14
-51.2673594975
 24
-28.4082602628
 34
0.0
 15
51.2647677897
 25
30.6548187976
 35
0.0
146
0.0
 13
0.0
 23
0.0
 33
0.0
 16
1.0
 26
0.0
 36
0.0
 17
0.0
 27
1.0
 37
0.0
 76
     0
330
1F
331
29
  0
MLINESTYLE
  5
18
102
{ACAD_REACTORS
330
17
102
}
330
17
100
AcDbMlineStyle
  2
Standard
 70
     0
  3

 62
   256
 51
90.0
 52
90.0
 71
     2
 49
0.5
 62
   256
  6
BYLAYER
 49
-0.5
 62
   256
  6
BYLAYER
  0
ACDBPLACEHOLDER
  5
F
102
{ACAD_REACTORS
330
E
102
}
330
E
  0
ENDSEC
  0
EOF
