**ABCDEFGHIJKLMNOPQRSTUVWXYZabcdefghijklmnopqrstuvwxyz**************************
**PARASOLID !"#$%&'()*+,-./:;<=>?@[\]^_`{|}~0123456789**************************
**PART1;
MC=AMD64;
MC_MODEL=Intel64 Family 6 Model 42 Stepping 7, GenuineIntel;
MC_ID=unknown;
OS=Windows_NT;
OS_RELEASE=unknown;
FRU=Parasolid Version 24.1, build 231,  7-17-2012;
APPL=SolidWorks 2013-2012270;
SITE=;
USER=unknown;
FORMAT=text;
GUISE=transmit;
KEY=makeProjectedPlanarWire;
FILE=makeProjectedPlanarWire.x_t;
DATE=Sat Jan 24 16:22:01 2015;
**PART2;
SCH=SCH_2401231_20000;
USFLD_SIZE=0;
**PART3;
**END_OF_HEADER*****************************************************************
T51 : TRANSMIT FILE created by modeller version 240123123 SCH_2401231_20000_1300
6189 0 12 27 CCCCCCCCCCCCCCCCCCCCCCCA16 index_map_offset0 0 1 dA9 index_map82 0
 A17 node_id_index_map82 0 A20 schema_embedding_map82 0 Z1 87 0 2 0 0 0 0 1e3 1e
-8 0 3 0 1 0 3 1 4 5 6 7 8 9 10 0 0 0 0 70 11 CI9 list_type0 0 1 uI10 notransmit
0 0 1 lCCCDCCDI12 finger_index0 0 1 dI12 finger_block1012 0 CZ2 0 4 T1 0 0 1 20
 1 11 11 13 255 4 84 0 1 0 12 0 0 8 12 50 255 5 2 0 12 0 0 0 +0 0 -.01315 0 0 1
 1 0 0 31 255 6 42 0 9 13 0 0 +-.04401 -.02115 -.01315 0 0 1 1 0 0 .007 29 255 7
 78 0 10 14 0 -.05101 -.02115 -.01315 19 255 8 83 0 1 0 0 4 V16 255 9 41 0 ?15 0
 16 6 0 0 1 18 255 10 76 0 17 0 18 7 ?1 17 255 17 0 0 0 0 10 19 20 0 21 +18 18 7
3 0 22 10 23 14 ?1 17 22 0 24 21 25 18 26 16 0 15 -18 23 70 0 25 18 27 28 ?1 29
 14 75 0 18 28 7 -.04401 -.02815 -.01315 29 28 72 0 23 29 14 .04401 -.02815 -.01
315 29 29 69 0 27 30 28 .05101 -.02115 -.01315 18 27 67 0 31 23 32 29 ?1 29 30 6
6 0 32 33 29 .05101 .0234 -.01315 18 32 64 0 34 27 35 30 ?1 29 33 63 0 35 36 30
 .04401 .0304 -.01315 18 35 61 0 37 32 38 33 ?1 29 36 60 0 38 39 33 -.04401 .030
4 -.01315 18 38 58 0 40 35 41 36 ?1 29 39 57 0 41 42 36 -.05101 .0234 -.01315 18
 41 55 0 19 38 43 39 ?1 29 42 54 0 43 44 39 .03176 -.02175 -.01315 18 43 52 0 45
 41 46 42 ?1 29 44 51 0 46 47 42 -.03176 -.02175 -.01315 18 46 49 0 48 43 49 44
 ?1 29 47 48 0 49 50 44 -.03176 .0254 -.01315 18 49 46 0 51 46 52 47 ?1 29 50 45
 0 52 0 47 .03176 .0254 -.01315 18 52 43 0 53 49 0 50 ?1 17 53 0 54 51 55 52 45
 56 0 57 -15 255 54 5 0 53 12 58 17 51 0 54 48 53 49 57 59 0 60 -17 55 0 54 53 4
8 43 61 62 0 0 -17 45 0 0 0 0 43 53 56 0 55 +16 56 11 0 ?45 59 0 63 0 0 1 17 57
 0 0 0 0 52 51 59 0 0 +16 59 13 0 ?57 64 56 65 0 0 1 16 64 15 0 ?60 62 59 66 0 0
 1 30 255 65 14 0 59 63 66 0 +.03176 .0254 -.01315 1 -1092395136005546e-31 0 30
 63 12 0 56 0 65 0 +.03176 .0254 -.01315 -1471663606342996e-31 -1 0 30 66 16 0 6
4 65 67 0 +-.03176 .0254 -.01315 1471663606342996e-31 1 0 30 67 18 0 62 66 68 0
 +.02676 -.02175 -.01315 -1 0 0 16 62 17 0 ?61 69 64 67 0 0 1 31 68 20 0 69 67 7
0 0 +.04445 .02159 -.01315 0 0 1 1 0 0 .003 16 69 19 0 ?71 72 62 68 0 0 1 31 70
 22 0 72 68 73 0 +.04445 -.02159 -.01315 0 0 1 1 0 0 .00300000000000004 16 72 21
 0 ?74 75 69 70 0 0 1 31 73 24 0 75 70 76 0 +-.04445 -.02159 -.01315 0 0 1 1 0 0
 .003 16 75 23 0 ?77 78 72 73 0 0 1 31 76 26 0 78 73 79 0 +-.04445 .02159 -.0131
5 0 0 1 1 0 0 .00300000000000004 16 78 25 0 ?80 20 75 76 0 0 1 30 79 28 0 20 76
 81 0 +-.05101 -.02115 -.01315 155755194251565e-30 -1 0 16 20 27 0 ?17 82 78 79
 0 0 1 31 81 30 0 82 79 83 0 +-.04401 .0234 -.01315 0 0 1 1 0 0 .007 16 82 29 0
 ?84 85 20 81 0 0 1 30 83 32 0 85 81 86 0 +-.04401 .0304 -.01315 -1 -11824972569
7124e-30 0 16 85 31 0 ?87 88 82 83 0 0 1 31 86 34 0 88 83 89 0 +.04401 .0234 -.0
1315 0 0 1 1 0 0 .007 16 88 33 0 ?90 91 85 86 0 0 1 30 89 36 0 91 86 92 0 +.0510
1 .0234 -.01315 -155755194251565e-30 1 0 16 91 35 0 ?93 94 88 89 0 0 1 31 92 38
 0 94 89 13 0 +.04401 -.02115 -.01315 0 0 1 1 0 0 .007 16 94 37 0 ?95 16 91 92 0
 0 1 30 13 40 0 16 92 6 0 +.04401 -.02815 -.01315 1 1576663009294985e-31 0 16 16
 39 0 ?26 9 94 13 0 0 1 17 26 0 0 0 0 23 22 16 0 0 +17 95 0 0 0 0 27 25 94 0 0 +
17 25 0 24 22 31 23 95 94 0 26 -15 24 10 0 19 12 0 17 31 0 24 25 34 27 93 91 0 9
5 -17 34 0 24 31 37 32 90 88 0 93 -17 93 0 0 0 0 32 31 91 0 0 +17 37 0 24 34 40
 35 87 85 0 90 -17 90 0 0 0 0 35 34 88 0 0 +17 40 0 24 37 19 38 84 82 0 87 -17 8
7 0 0 0 0 38 37 85 0 0 +17 19 0 24 40 21 41 17 20 0 84 -17 84 0 0 0 0 41 40 82 0
 0 +17 21 0 24 19 22 10 15 9 0 0 -17 15 0 0 0 0 18 21 9 0 0 +14 255 12 1 96 ?0 0
 54 4 5 -0 0 0 0 4 81 255 1 96 87 97 12 0 0 0 0 98 80 255 1 97 99 100 9000 1 1 1
 1 1 1 1 1 0 FFFFTFTFFFFFFF1 82 255 1 98 742248190 79 255 14 100 SWEntUnchanged1
7 80 0 101 80 80 0 102 78 0 0 +15 101 9 0 80 12 24 17 102 0 0 0 0 0 80 78 0 0 -1
7 77 0 103 77 77 0 104 75 0 0 +15 103 8 0 77 12 101 17 104 0 0 0 0 0 77 75 0 0 -
17 74 0 105 74 74 0 106 72 0 0 +15 105 7 0 74 12 103 17 106 0 0 0 0 0 74 72 0 0
 -17 71 0 58 71 71 0 107 69 0 0 +15 58 6 0 71 12 105 17 107 0 0 0 0 0 71 69 0 0
 -17 61 0 0 0 0 46 55 62 0 0 +17 60 0 0 0 0 49 48 64 0 0 +17 48 0 54 55 51 46 60
 64 0 61 -74 4 CI16 index_map_offset0 0 1 dCCZ20 11 1 0 0 96 0 0 0 0 0 0 0 0 0 0
 0 0 0 0 0 0 0 0 0 1 0 
