  0
SECTION
  2
HEADER
  9
$ACADVER
  1
AC1015
  9
$ACADMAINTVER
 70
     6
  9
$DWGCODEPAGE
  3
ANSI_1252
  9
$INSBASE
 10
0.0
 20
0.0
 30
0.0
  9
$EXTMIN
 10
0.0
 20
0.0
 30
0.0
  9
$EXTMAX
 10
420.0
 20
297.0
 30
0.0
  9
$LIMMIN
 10
0.0
 20
0.0
  9
$LIMMAX
 10
420.0
 20
297.0
  9
$ORTHOMODE
 70
     0
  9
$REGENMODE
 70
     1
  9
$FILLMODE
 70
     1
  9
$QTEXTMODE
 70
     0
  9
$MIRRTEXT
 70
     1
  9
$LTSCALE
 40
1.0
  9
$ATTMODE
 70
     1
  9
$TEXTSIZE
 40
3.5
  9
$TRACEWID
 40
1.0
  9
$TEXTSTYLE
  7
Standard
  9
$CLAYER
  8
0
  9
$CELTYPE
  6
ByLayer
  9
$CECOLOR
 62
   256
  9
$CELTSCALE
 40
1.0
  9
$DISPSILH
 70
     0
  9
$DIMSCALE
 40
1.0
  9
$DIMASZ
 40
3.302
  9
$DIMEXO
 40
1.0
  9
$DIMDLI
 40
3.75
  9
$DIMRND
 40
0.0
  9
$DIMDLE
 40
0.0
  9
$DIMEXE
 40
1.0
  9
$DIMTP
 40
0.0
  9
$DIMTM
 40
0.0
  9
$DIMTXT
 40
3.5
  9
$DIMCEN
 40
2.5
  9
$DIMTSZ
 40
0.0
  9
$DIMTOL
 70
     0
  9
$DIMLIM
 70
     0
  9
$DIMTIH
 70
     1
  9
$DIMTOH
 70
     1
  9
$DIMSE1
 70
     0
  9
$DIMSE2
 70
     0
  9
$DIMTAD
 70
     1
  9
$DIMZIN
 70
     0
  9
$DIMBLK
  1

  9
$DIMASO
 70
     1
  9
$DIMSHO
 70
     1
  9
$DIMPOST
  1

  9
$DIMAPOST
  1

  9
$DIMALT
 70
     0
  9
$DIMALTD
 70
     3
  9
$DIMALTF
 40
0.0393700787
  9
$DIMLFAC
 40
0.1
  9
$DIMTOFL
 70
     1
  9
$DIMTVP
 40
0.0
  9
$DIMTIX
 70
     0
  9
$DIMSOXD
 70
     0
  9
$DIMSAH
 70
     0
  9
$DIMBLK1
  1

  9
$DIMBLK2
  1

  9
$DIMSTYLE
  2
ISO-25
  9
$DIMCLRD
 70
     0
  9
$DIMCLRE
 70
     0
  9
$DIMCLRT
 70
     0
  9
$DIMTFAC
 40
1.0
  9
$DIMGAP
 40
1.524
  9
$DIMJUST
 70
     0
  9
$DIMSD1
 70
     0
  9
$DIMSD2
 70
     0
  9
$DIMTOLJ
 70
     0
  9
$DIMTZIN
 70
     0
  9
$DIMALTZ
 70
     0
  9
$DIMALTTZ
 70
     0
  9
$DIMUPT
 70
     0
  9
$DIMDEC
 70
     2
  9
$DIMTDEC
 70
     2
  9
$DIMALTU
 70
     2
  9
$DIMALTTD
 70
     3
  9
$DIMTXSTY
  7
Standard
  9
$DIMAUNIT
 70
     0
  9
$DIMADEC
 70
     2
  9
$DIMALTRND
 40
0.0
  9
$DIMAZIN
 70
     0
  9
$DIMDSEP
 70
    44
  9
$DIMATFIT
 70
     3
  9
$DIMFRAC
 70
     0
  9
$DIMLDRBLK
  1

  9
$DIMLUNIT
 70
     2
  9
$DIMLWD
 70
    -2
  9
$DIMLWE
 70
    -2
  9
$DIMTMOVE
 70
     0
  9
$LUNITS
 70
     2
  9
$LUPREC
 70
     2
  9
$SKETCHINC
 40
1.0
  9
$FILLETRAD
 40
10.0
  9
$AUNITS
 70
     0
  9
$AUPREC
 70
     2
  9
$MENU
  1
.
  9
$ELEVATION
 40
0.0
  9
$PELEVATION
 40
0.0
  9
$THICKNESS
 40
0.0
  9
$LIMCHECK
 70
     0
  9
$CHAMFERA
 40
10.0
  9
$CHAMFERB
 40
10.0
  9
$CHAMFERC
 40
20.0
  9
$CHAMFERD
 40
0.0
  9
$SKPOLY
 70
     0
  9
$TDCREATE
 40
2457142.676874942
  9
$TDUCREATE
 40
2457142.343541609
  9
$TDUPDATE
 40
2457142.676877836
  9
$TDUUPDATE
 40
2457142.343544502
  9
$TDINDWG
 40
0.0000000116
  9
$TDUSRTIMER
 40
0.0000000116
  9
$USRTIMER
 70
     1
  9
$ANGBASE
 50
0.0
  9
$ANGDIR
 70
     0
  9
$PDMODE
 70
     0
  9
$PDSIZE
 40
-1.0
  9
$PLINEWID
 40
0.0
  9
$SPLFRAME
 70
     0
  9
$SPLINETYPE
 70
     6
  9
$SPLINESEGS
 70
     8
  9
$HANDSEED
  5
351
  9
$SURFTAB1
 70
     6
  9
$SURFTAB2
 70
     6
  9
$SURFTYPE
 70
     6
  9
$SURFU
 70
     6
  9
$SURFV
 70
     6
  9
$UCSBASE
  2

  9
$UCSNAME
  2

  9
$UCSORG
 10
0.0
 20
0.0
 30
0.0
  9
$UCSXDIR
 10
1.0
 20
0.0
 30
0.0
  9
$UCSYDIR
 10
0.0
 20
1.0
 30
0.0
  9
$UCSORTHOREF
  2

  9
$UCSORTHOVIEW
 70
     0
  9
$UCSORGTOP
 10
0.0
 20
0.0
 30
0.0
  9
$UCSORGBOTTOM
 10
0.0
 20
0.0
 30
0.0
  9
$UCSORGLEFT
 10
0.0
 20
0.0
 30
0.0
  9
$UCSORGRIGHT
 10
0.0
 20
0.0
 30
0.0
  9
$UCSORGFRONT
 10
0.0
 20
0.0
 30
0.0
  9
$UCSORGBACK
 10
0.0
 20
0.0
 30
0.0
  9
$PUCSBASE
  2

  9
$PUCSNAME
  2

  9
$PUCSORG
 10
0.0
 20
0.0
 30
0.0
  9
$PUCSXDIR
 10
1.0
 20
0.0
 30
0.0
  9
$PUCSYDIR
 10
0.0
 20
1.0
 30
0.0
  9
$PUCSORTHOREF
  2

  9
$PUCSORTHOVIEW
 70
     0
  9
$PUCSORGTOP
 10
0.0
 20
0.0
 30
0.0
  9
$PUCSORGBOTTOM
 10
0.0
 20
0.0
 30
0.0
  9
$PUCSORGLEFT
 10
0.0
 20
0.0
 30
0.0
  9
$PUCSORGRIGHT
 10
0.0
 20
0.0
 30
0.0
  9
$PUCSORGFRONT
 10
0.0
 20
0.0
 30
0.0
  9
$PUCSORGBACK
 10
0.0
 20
0.0
 30
0.0
  9
$USERI1
 70
     0
  9
$USERI2
 70
     0
  9
$USERI3
 70
     0
  9
$USERI4
 70
     0
  9
$USERI5
 70
     0
  9
$USERR1
 40
0.0
  9
$USERR2
 40
0.0
  9
$USERR3
 40
0.0
  9
$USERR4
 40
0.0
  9
$USERR5
 40
0.0
  9
$WORLDVIEW
 70
     1
  9
$SHADEDGE
 70
     3
  9
$SHADEDIF
 70
    70
  9
$TILEMODE
 70
     1
  9
$MAXACTVP
 70
    64
  9
$PINSBASE
 10
0.0
 20
0.0
 30
0.0
  9
$PLIMCHECK
 70
     0
  9
$PEXTMIN
 10
1.0000000000E+20
 20
1.0000000000E+20
 30
1.0000000000E+20
  9
$PEXTMAX
 10
-1.0000000000E+20
 20
-1.0000000000E+20
 30
-1.0000000000E+20
  9
$PLIMMIN
 10
0.0
 20
0.0
  9
$PLIMMAX
 10
420.0
 20
297.0
  9
$UNITMODE
 70
     0
  9
$VISRETAIN
 70
     1
  9
$PLINEGEN
 70
     0
  9
$PSLTSCALE
 70
     1
  9
$TREEDEPTH
 70
  3020
  9
$CMLSTYLE
  2
Standard
  9
$CMLJUST
 70
     0
  9
$CMLSCALE
 40
20.0
  9
$PROXYGRAPHICS
 70
     1
  9
$MEASUREMENT
 70
     1
  9
$CELWEIGHT
370
    -1
  9
$ENDCAPS
280
     0
  9
$JOINSTYLE
280
     0
  9
$LWDISPLAY
290
     1
  9
$INSUNITS
 70
     4
  9
$HYPERLINKBASE
  1

  9
$STYLESHEET
  1

  9
$XEDIT
290
     1
  9
$CEPSNTYPE
380
     0
  9
$PSTYLEMODE
290
     1
  9
$FINGERPRINTGUID
  2
{3847FC2D-FBF5-4574-A375-92F7AF56418B}
  9
$VERSIONGUID
  2
{FAEB1C32-E019-11D5-929B-00C0DF256EC4}
  9
$EXTNAMES
290
     1
  9
$PSVPSCALE
 40
0.0
  9
$OLESTARTUP
290
     0
  0
ENDSEC
  0
SECTION
  2
CLASSES
  0
CLASS
  1
ACDBDICTIONARYWDFLT
  2
AcDbDictionaryWithDefault
  3
ObjectDBX Classes
 90
        0
280
     0
281
     0
  0
CLASS
  1
VISUALSTYLE
  2
AcDbVisualStyle
  3
ObjectDBX Classes
 90
     4095
280
     0
281
     0
  0
CLASS
  1
MATERIAL
  2
AcDbMaterial
  3
ObjectDBX Classes
 90
     1153
280
     0
281
     0
  0
CLASS
  1
ACDBPLACEHOLDER
  2
AcDbPlaceHolder
  3
ObjectDBX Classes
 90
        0
280
     0
281
     0
  0
CLASS
  1
LAYOUT
  2
AcDbLayout
  3
ObjectDBX Classes
 90
        0
280
     0
281
     0
  0
ENDSEC
  0
SECTION
  2
TABLES
  0
TABLE
  2
VPORT
  5
8
330
0
100
AcDbSymbolTable
 70
     1
  0
VPORT
  5
29
330
8
100
AcDbSymbolTableRecord
100
AcDbViewportTableRecord
  2
*Active
 70
     0
 10
0.0
 20
0.0
 11
1.0
 21
1.0
 12
210.0
 22
148.5
 13
0.0
 23
0.0
 14
10.0
 24
10.0
 15
10.0
 25
10.0
 16
0.0
 26
0.0
 36
1.0
 17
0.0
 27
0.0
 37
0.0
 40
297.0
 41
1.4141414141
 42
50.0
 43
0.0
 44
0.0
 50
0.0
 51
0.0
 71
     0
 72
  2000
 73
     1
 74
     3
 75
     0
 76
     0
 77
     0
 78
     0
281
     0
 65
     1
110
0.0
120
0.0
130
0.0
111
1.0
121
0.0
131
0.0
112
0.0
122
1.0
132
0.0
 79
     0
146
0.0
  0
ENDTAB
  0
TABLE
  2
LTYPE
  5
5
330
0
100
AcDbSymbolTable
 70
     6
  0
LTYPE
  5
14
330
5
100
AcDbSymbolTableRecord
100
AcDbLinetypeTableRecord
  2
ByBlock
 70
     0
  3

 72
    65
 73
     0
 40
0.0
  0
LTYPE
  5
15
330
5
100
AcDbSymbolTableRecord
100
AcDbLinetypeTableRecord
  2
ByLayer
 70
     0
  3

 72
    65
 73
     0
 40
0.0
  0
LTYPE
  5
16
330
5
100
AcDbSymbolTableRecord
100
AcDbLinetypeTableRecord
  2
Continuous
 70
     0
  3
Solid line
 72
    65
 73
     0
 40
0.0
  0
LTYPE
  5
3F
330
5
100
AcDbSymbolTableRecord
100
AcDbLinetypeTableRecord
  2
HIDDEN
 70
     0
  3
Hidden __ __ __ __ __ __ __ __ __ __ __ __ __ __
 72
    65
 73
     2
 40
1.905
 49
1.27
 74
     0
 49
-0.635
 74
     0
  0
LTYPE
  5
40
330
5
100
AcDbSymbolTableRecord
100
AcDbLinetypeTableRecord
  2
PHANTOM
 70
     0
  3
Phantom ______  __  __  ______  __  __  ______
 72
    65
 73
     6
 40
12.7
 49
6.35
 74
     0
 49
-1.27
 74
     0
 49
1.27
 74
     0
 49
-1.27
 74
     0
 49
1.27
 74
     0
 49
-1.27
 74
     0
  0
LTYPE
  5
41
330
5
100
AcDbSymbolTableRecord
100
AcDbLinetypeTableRecord
  2
CENTER
 70
     0
  3
Center ____ _ ____ _ ____ _ ____ _ ____ _ ____
 72
    65
 73
     4
 40
10.16
 49
6.35
 74
     0
 49
-1.27
 74
     0
 49
1.27
 74
     0
 49
-1.27
 74
     0
  0
LTYPE
  5
42
330
5
100
AcDbSymbolTableRecord
100
AcDbLinetypeTableRecord
  2
CENTERX2
 70
     0
  3
Center (2x) ________  __  ________  __  _____
 72
    65
 73
     4
 40
20.32
 49
12.7
 74
     0
 49
-2.54
 74
     0
 49
2.54
 74
     0
 49
-2.54
 74
     0
  0
LTYPE
  5
43
330
5
100
AcDbSymbolTableRecord
100
AcDbLinetypeTableRecord
  2
DOT2
 70
     0
  3
Dot (.5x) ........................................
 72
    65
 73
     2
 40
0.635
 49
0.0
 74
     0
 49
-0.635
 74
     0
  0
ENDTAB
  0
TABLE
  2
LAYER
  5
2
330
0
100
AcDbSymbolTable
 70
     2
  0
LAYER
  5
10
330
2
100
AcDbSymbolTableRecord
100
AcDbLayerTableRecord
  2
0
 70
     0
 62
     7
  6
Continuous
370
    -3
390
F
  0
LAYER
  5
44
330
2
100
AcDbSymbolTableRecord
100
AcDbLayerTableRecord
  2
FORMAT
 70
     0
 62
     7
  6
Continuous
370
    -3
390
F
  0
ENDTAB
  0
TABLE
  2
STYLE
  5
3
330
0
100
AcDbSymbolTable
 70
     3
  0
STYLE
  5
11
330
3
100
AcDbSymbolTableRecord
100
AcDbTextStyleTableRecord
  2
Standard
 70
     0
 40
0.0
 41
1.0
 50
0.0
 71
     0
 42
3.5
  3
txt
  4

  0
STYLE
  5
57
330
3
100
AcDbSymbolTableRecord
100
AcDbTextStyleTableRecord
  2
SLDTEXTSTYLE0
 70
     0
 40
0.0
 41
0.75
 50
0.0
 71
     0
 42
0.2
  3
TXT
  4

  0
STYLE
  5
5B
330
3
100
AcDbSymbolTableRecord
100
AcDbTextStyleTableRecord
  2
SLDTEXTSTYLE1
 70
     0
 40
0.0
 41
0.6875
 50
0.0
 71
     0
 42
0.2
  3
TXT
  4

  0
ENDTAB
  0
TABLE
  2
VIEW
  5
6
330
0
100
AcDbSymbolTable
 70
     0
  0
ENDTAB
  0
TABLE
  2
UCS
  5
7
330
0
100
AcDbSymbolTable
 70
     0
  0
ENDTAB
  0
TABLE
  2
APPID
  5
9
330
0
100
AcDbSymbolTable
 70
     1
  0
APPID
  5
12
330
9
100
AcDbSymbolTableRecord
100
AcDbRegAppTableRecord
  2
ACAD
 70
     0
  0
ENDTAB
  0
TABLE
  2
DIMSTYLE
  5
A
330
0
100
AcDbSymbolTable
 70
    10
100
AcDbDimStyleTable
  0
DIMSTYLE
105
27
330
A
100
AcDbSymbolTableRecord
100
AcDbDimStyleTableRecord
  2
ISO-25
 70
     0
 41
2.5
 42
0.625
 43
3.75
 44
1.25
 73
     0
 74
     0
 77
     1
 78
     8
140
2.5
141
2.5
143
0.0393700787
147
0.625
171
     3
172
     1
178
     0
271
     2
272
     2
274
     3
278
    44
283
     0
284
     8
340
11
  0
DIMSTYLE
105
C0
102
{ACAD_REACTORS
330
BF
330
CA
330
D4
102
}
330
A
100
AcDbSymbolTableRecord
100
AcDbDimStyleTableRecord
  2
SLDDIMSTYLE0
 70
     0
 41
3.302
 44
0.0
 45
0.000000001
 73
     0
 74
     0
 77
     1
 78
     4
 79
     1
140
3.5
144
0.1
147
0.875
173
     1
178
     0
271
     2
272
     2
276
     2
284
    12
340
57
  0
DIMSTYLE
105
DF
102
{ACAD_REACTORS
330
DE
330
E9
330
F3
330
FD
330
107
330
111
330
11B
330
125
330
13C
330
1C4
330
1CE
330
1D8
330
237
330
2A1
330
2AB
330
2B5
330
2BF
330
2E9
102
}
330
A
100
AcDbSymbolTableRecord
100
AcDbDimStyleTableRecord
  2
SLDDIMSTYLE1
 70
     0
 41
3.302
 44
0.0
 45
0.000000001
 73
     0
 74
     0
 77
     1
 78
    12
 79
     3
140
3.5
144
0.1
147
0.875
173
     1
178
     0
271
     2
272
     2
276
     2
284
    12
340
57
  0
DIMSTYLE
105
130
102
{ACAD_REACTORS
330
12F
330
147
330
1EF
330
241
102
}
330
A
100
AcDbSymbolTableRecord
100
AcDbDimStyleTableRecord
  2
SLDDIMSTYLE2
 70
     0
 41
3.302
 44
0.0
 45
0.000000001
 73
     0
 74
     0
 77
     1
 78
    12
 79
     3
140
3.5
144
0.1
147
0.875
172
     1
173
     1
178
     0
271
     2
272
     2
276
     2
284
    12
289
     0
340
57
  0
DIMSTYLE
105
154
102
{ACAD_REACTORS
330
153
102
}
330
A
100
AcDbSymbolTableRecord
100
AcDbDimStyleTableRecord
  2
SLDDIMSTYLE3
 70
     0
 41
3.302
 44
0.0
 45
0.000000001
 73
     0
 74
     0
 77
     1
 78
    12
 79
     3
140
3.5
141
0.0
144
0.1
147
0.875
173
     1
178
     0
271
     2
272
     2
276
     2
279
     1
284
    12
340
57
  0
DIMSTYLE
105
1E3
102
{ACAD_REACTORS
330
1E2
330
2C9
102
}
330
A
100
AcDbSymbolTableRecord
100
AcDbDimStyleTableRecord
  2
SLDDIMSTYLE4
 70
     0
 41
3.302
 44
0.0
 45
0.000000001
 73
     0
 74
     0
 77
     1
 78
     4
 79
     1
140
3.5
144
0.1
147
0.875
172
     1
173
     1
178
     0
271
     2
272
     2
276
     2
284
    12
289
     0
340
57
  0
DIMSTYLE
105
1FC
102
{ACAD_REACTORS
330
1FB
330
205
102
}
330
A
100
AcDbSymbolTableRecord
100
AcDbDimStyleTableRecord
  2
SLDDIMSTYLE5
 70
     0
 41
3.302
 44
0.0
 73
     0
 74
     0
 77
     1
 78
    12
 79
     3
140
3.5
144
0.1
147
0.875
173
     1
178
     0
179
     2
272
     2
276
     2
284
    12
340
57
  0
DIMSTYLE
105
20F
102
{ACAD_REACTORS
330
20E
330
28D
330
297
330
2D5
330
2DF
102
}
330
A
100
AcDbSymbolTableRecord
100
AcDbDimStyleTableRecord
  2
SLDDIMSTYLE6
 70
     0
 41
3.302
 44
0.0
 73
     0
 74
     0
 77
     1
 78
    12
 79
     3
140
3.5
144
0.1
147
0.875
173
     1
178
     0
179
     2
272
     2
276
     2
284
    12
340
57
  0
DIMSTYLE
105
21C
102
{ACAD_REACTORS
330
21B
102
}
330
A
100
AcDbSymbolTableRecord
100
AcDbDimStyleTableRecord
  2
SLDDIMSTYLE7
 70
     0
 41
3.302
 44
0.0
 73
     0
 74
     0
 77
     1
 78
     4
 79
     1
140
3.5
144
0.1
147
0.875
173
     1
178
     0
179
     2
272
     2
276
     2
284
    12
340
57
  0
DIMSTYLE
105
22A
102
{ACAD_REACTORS
330
229
102
}
330
A
100
AcDbSymbolTableRecord
100
AcDbDimStyleTableRecord
  2
SLDDIMSTYLE8
 70
     0
 41
3.302
 44
0.0
 73
     0
 74
     0
 77
     1
 78
     4
 79
     1
140
3.5
144
0.1
147
0.875
173
     1
178
     0
179
     2
272
     2
276
     2
284
    12
340
57
  0
ENDTAB
  0
TABLE
  2
BLOCK_RECORD
  5
1
330
0
100
AcDbSymbolTable
 70
    40
  0
BLOCK_RECORD
  5
1F
330
1
100
AcDbSymbolTableRecord
100
AcDbBlockTableRecord
  2
*Model_Space
340
22
  0
BLOCK_RECORD
  5
1B
330
1
100
AcDbSymbolTableRecord
100
AcDbBlockTableRecord
  2
*Paper_Space
340
1E
  0
BLOCK_RECORD
  5
23
330
1
100
AcDbSymbolTableRecord
100
AcDbBlockTableRecord
  2
*Paper_Space0
340
26
  0
BLOCK_RECORD
  5
63
330
1
100
AcDbSymbolTableRecord
100
AcDbBlockTableRecord
  2
SW_TABLEANNOTATION_0
340
0
102
{BLKREFS
331
A1
102
}
  0
BLOCK_RECORD
  5
C1
330
1
100
AcDbSymbolTableRecord
100
AcDbBlockTableRecord
  2
_D
340
0
  0
BLOCK_RECORD
  5
CB
330
1
100
AcDbSymbolTableRecord
100
AcDbBlockTableRecord
  2
_D_1
340
0
  0
BLOCK_RECORD
  5
D5
330
1
100
AcDbSymbolTableRecord
100
AcDbBlockTableRecord
  2
_D_2
340
0
  0
BLOCK_RECORD
  5
E0
330
1
100
AcDbSymbolTableRecord
100
AcDbBlockTableRecord
  2
_D_3
340
0
  0
BLOCK_RECORD
  5
EA
330
1
100
AcDbSymbolTableRecord
100
AcDbBlockTableRecord
  2
_D_4
340
0
  0
BLOCK_RECORD
  5
F4
330
1
100
AcDbSymbolTableRecord
100
AcDbBlockTableRecord
  2
_D_5
340
0
  0
BLOCK_RECORD
  5
FE
330
1
100
AcDbSymbolTableRecord
100
AcDbBlockTableRecord
  2
_D_6
340
0
  0
BLOCK_RECORD
  5
108
330
1
100
AcDbSymbolTableRecord
100
AcDbBlockTableRecord
  2
_D_7
340
0
  0
BLOCK_RECORD
  5
112
330
1
100
AcDbSymbolTableRecord
100
AcDbBlockTableRecord
  2
_D_8
340
0
  0
BLOCK_RECORD
  5
11C
330
1
100
AcDbSymbolTableRecord
100
AcDbBlockTableRecord
  2
_D_9
340
0
  0
BLOCK_RECORD
  5
126
330
1
100
AcDbSymbolTableRecord
100
AcDbBlockTableRecord
  2
_D_10
340
0
  0
BLOCK_RECORD
  5
131
330
1
100
AcDbSymbolTableRecord
100
AcDbBlockTableRecord
  2
_D_11
340
0
  0
BLOCK_RECORD
  5
13D
330
1
100
AcDbSymbolTableRecord
100
AcDbBlockTableRecord
  2
_D_12
340
0
  0
BLOCK_RECORD
  5
148
330
1
100
AcDbSymbolTableRecord
100
AcDbBlockTableRecord
  2
_D_13
340
0
  0
BLOCK_RECORD
  5
155
330
1
100
AcDbSymbolTableRecord
100
AcDbBlockTableRecord
  2
_D_14
340
0
  0
BLOCK_RECORD
  5
165
330
1
100
AcDbSymbolTableRecord
100
AcDbBlockTableRecord
  2
SW_NOTE_0
340
0
102
{BLKREFS
331
18C
102
}
  0
BLOCK_RECORD
  5
1C5
330
1
100
AcDbSymbolTableRecord
100
AcDbBlockTableRecord
  2
_D_15
340
0
  0
BLOCK_RECORD
  5
1CF
330
1
100
AcDbSymbolTableRecord
100
AcDbBlockTableRecord
  2
_D_16
340
0
  0
BLOCK_RECORD
  5
1D9
330
1
100
AcDbSymbolTableRecord
100
AcDbBlockTableRecord
  2
_D_17
340
0
  0
BLOCK_RECORD
  5
1E4
330
1
100
AcDbSymbolTableRecord
100
AcDbBlockTableRecord
  2
_D_18
340
0
  0
BLOCK_RECORD
  5
1F0
330
1
100
AcDbSymbolTableRecord
100
AcDbBlockTableRecord
  2
_D_19
340
0
  0
BLOCK_RECORD
  5
1FD
330
1
100
AcDbSymbolTableRecord
100
AcDbBlockTableRecord
  2
_D_20
340
0
  0
BLOCK_RECORD
  5
206
330
1
100
AcDbSymbolTableRecord
100
AcDbBlockTableRecord
  2
_D_21
340
0
  0
BLOCK_RECORD
  5
210
330
1
100
AcDbSymbolTableRecord
100
AcDbBlockTableRecord
  2
_D_22
340
0
  0
BLOCK_RECORD
  5
21D
330
1
100
AcDbSymbolTableRecord
100
AcDbBlockTableRecord
  2
_D_23
340
0
  0
BLOCK_RECORD
  5
22B
330
1
100
AcDbSymbolTableRecord
100
AcDbBlockTableRecord
  2
_D_24
340
0
  0
BLOCK_RECORD
  5
238
330
1
100
AcDbSymbolTableRecord
100
AcDbBlockTableRecord
  2
_D_25
340
0
  0
BLOCK_RECORD
  5
242
330
1
100
AcDbSymbolTableRecord
100
AcDbBlockTableRecord
  2
_D_26
340
0
  0
BLOCK_RECORD
  5
28E
330
1
100
AcDbSymbolTableRecord
100
AcDbBlockTableRecord
  2
_D_27
340
0
  0
BLOCK_RECORD
  5
298
330
1
100
AcDbSymbolTableRecord
100
AcDbBlockTableRecord
  2
_D_28
340
0
  0
BLOCK_RECORD
  5
2A2
330
1
100
AcDbSymbolTableRecord
100
AcDbBlockTableRecord
  2
_D_29
340
0
  0
BLOCK_RECORD
  5
2AC
330
1
100
AcDbSymbolTableRecord
100
AcDbBlockTableRecord
  2
_D_30
340
0
  0
BLOCK_RECORD
  5
2B6
330
1
100
AcDbSymbolTableRecord
100
AcDbBlockTableRecord
  2
_D_31
340
0
  0
BLOCK_RECORD
  5
2C0
330
1
100
AcDbSymbolTableRecord
100
AcDbBlockTableRecord
  2
_D_32
340
0
  0
BLOCK_RECORD
  5
2CA
330
1
100
AcDbSymbolTableRecord
100
AcDbBlockTableRecord
  2
_D_33
340
0
  0
BLOCK_RECORD
  5
2D6
330
1
100
AcDbSymbolTableRecord
100
AcDbBlockTableRecord
  2
_D_34
340
0
  0
BLOCK_RECORD
  5
2E0
330
1
100
AcDbSymbolTableRecord
100
AcDbBlockTableRecord
  2
_D_35
340
0
  0
BLOCK_RECORD
  5
2EA
330
1
100
AcDbSymbolTableRecord
100
AcDbBlockTableRecord
  2
_D_36
340
0
  0
ENDTAB
  0
ENDSEC
  0
SECTION
  2
BLOCKS
  0
BLOCK
  5
20
330
1F
100
AcDbEntity
  8
0
100
AcDbBlockBegin
  2
*Model_Space
 70
     0
 10
0.0
 20
0.0
 30
0.0
  3
*Model_Space
  1

  0
ENDBLK
  5
21
330
1F
100
AcDbEntity
  8
0
100
AcDbBlockEnd
  0
BLOCK
  5
1C
330
1B
100
AcDbEntity
 67
     1
  8
0
100
AcDbBlockBegin
  2
*Paper_Space
 70
     0
 10
0.0
 20
0.0
 30
0.0
  3
*Paper_Space
  1

  0
ENDBLK
  5
1D
330
1B
100
AcDbEntity
 67
     1
  8
0
100
AcDbBlockEnd
  0
BLOCK
  5
24
330
23
100
AcDbEntity
  8
0
100
AcDbBlockBegin
  2
*Paper_Space0
 70
     0
 10
0.0
 20
0.0
 30
0.0
  3
*Paper_Space0
  1

  0
ENDBLK
  5
25
330
23
100
AcDbEntity
  8
0
100
AcDbBlockEnd
  0
BLOCK
  5
64
330
63
100
AcDbEntity
  8
0
100
AcDbBlockBegin
  2
SW_TABLEANNOTATION_0
 70
     0
 10
0.0
 20
0.0
 30
0.0
  3
SW_TABLEANNOTATION_0
  1

  0
LINE
  5
66
330
63
100
AcDbEntity
  8
0
  6
Continuous
 62
     0
370
     0
100
AcDbLine
 10
0.0
 20
0.0
 30
0.0
 11
0.0
 21
-91.6478897583
 31
0.0
  0
LINE
  5
67
330
63
100
AcDbEntity
  8
0
  6
Continuous
 62
     0
370
     0
100
AcDbLine
 10
0.0
 20
-91.6478897583
 30
0.0
 11
109.5830119169
 21
-91.6478897583
 31
0.0
  0
LINE
  5
68
330
63
100
AcDbEntity
  8
0
  6
Continuous
 62
     0
370
     0
100
AcDbLine
 10
109.5830119169
 20
-91.6478897583
 30
0.0
 11
109.5830119169
 21
0.0
 31
0.0
  0
LINE
  5
69
330
63
100
AcDbEntity
  8
0
  6
Continuous
 62
     0
370
     0
100
AcDbLine
 10
109.5830119169
 20
0.0
 30
0.0
 11
0.0
 21
0.0
 31
0.0
  0
LINE
  5
6A
330
63
100
AcDbEntity
  8
0
  6
Continuous
 62
     0
370
     0
100
AcDbLine
 10
18.0254780567
 20
0.0
 30
0.0
 11
18.0254780567
 21
-16.131827151
 31
0.0
  0
LINE
  5
6B
330
63
100
AcDbEntity
  8
0
  6
Continuous
 62
     0
370
     0
100
AcDbLine
 10
55.097331361
 20
0.0
 30
0.0
 11
55.097331361
 21
-16.131827151
 31
0.0
  0
LINE
  5
6C
330
63
100
AcDbEntity
  8
0
  6
Continuous
 62
     0
370
     0
100
AcDbLine
 10
81.2213908697
 20
0.0
 30
0.0
 11
81.2213908697
 21
-16.131827151
 31
0.0
  0
LINE
  5
6D
330
63
100
AcDbEntity
  8
0
  6
Continuous
 62
     0
370
     0
100
AcDbLine
 10
18.0254780567
 20
-16.131827151
 30
0.0
 11
18.0254780567
 21
-91.6478897583
 31
0.0
  0
LINE
  5
6E
330
63
100
AcDbEntity
  8
0
  6
Continuous
 62
     0
370
     0
100
AcDbLine
 10
55.097331361
 20
-16.131827151
 30
0.0
 11
55.097331361
 21
-91.6478897583
 31
0.0
  0
LINE
  5
6F
330
63
100
AcDbEntity
  8
0
  6
Continuous
 62
     0
370
     0
100
AcDbLine
 10
81.2213908697
 20
-16.131827151
 30
0.0
 11
81.2213908697
 21
-91.6478897583
 31
0.0
  0
LINE
  5
70
330
63
100
AcDbEntity
  8
0
  6
Continuous
 62
     0
370
     0
100
AcDbLine
 10
0.0
 20
-24.522500774
 30
0.0
 11
109.5830119169
 21
-24.522500774
 31
0.0
  0
LINE
  5
71
330
63
100
AcDbEntity
  8
0
  6
Continuous
 62
     0
370
     0
100
AcDbLine
 10
0.0
 20
-32.913174397
 30
0.0
 11
109.5830119169
 21
-32.913174397
 31
0.0
  0
LINE
  5
72
330
63
100
AcDbEntity
  8
0
  6
Continuous
 62
     0
370
     0
100
AcDbLine
 10
0.0
 20
-41.3038480201
 30
0.0
 11
109.5830119169
 21
-41.3038480201
 31
0.0
  0
LINE
  5
73
330
63
100
AcDbEntity
  8
0
  6
Continuous
 62
     0
370
     0
100
AcDbLine
 10
0.0
 20
-49.6945216431
 30
0.0
 11
109.5830119169
 21
-49.6945216431
 31
0.0
  0
LINE
  5
74
330
63
100
AcDbEntity
  8
0
  6
Continuous
 62
     0
370
     0
100
AcDbLine
 10
0.0
 20
-58.0851952661
 30
0.0
 11
109.5830119169
 21
-58.0851952661
 31
0.0
  0
LINE
  5
75
330
63
100
AcDbEntity
  8
0
  6
Continuous
 62
     0
370
     0
100
AcDbLine
 10
0.0
 20
-66.4758688892
 30
0.0
 11
109.5830119169
 21
-66.4758688892
 31
0.0
  0
LINE
  5
76
330
63
100
AcDbEntity
  8
0
  6
Continuous
 62
     0
370
     0
100
AcDbLine
 10
0.0
 20
-74.8665425122
 30
0.0
 11
109.5830119169
 21
-74.8665425122
 31
0.0
  0
LINE
  5
77
330
63
100
AcDbEntity
  8
0
  6
Continuous
 62
     0
370
     0
100
AcDbLine
 10
0.0
 20
-83.2572161352
 30
0.0
 11
109.5830119169
 21
-83.2572161352
 31
0.0
  0
LINE
  5
78
330
63
100
AcDbEntity
  8
0
  6
Continuous
 62
     0
370
     0
100
AcDbLine
 10
0.0
 20
-16.131827151
 30
0.0
 11
109.5830119169
 21
-16.131827151
 31
0.0
  0
MTEXT
  5
79
330
63
100
AcDbEntity
  8
0
  6
Continuous
 62
     0
370
     0
100
AcDbMText
 10
4.8540587011
 20
-5.8170237515
 30
0.0
 40
3.5
 41
0.0
 71
     1
 72
     1
  1
Tag
  7
SLDTEXTSTYLE0
 73
     1
 44
1.0
  0
MTEXT
  5
7A
330
63
100
AcDbEntity
  8
0
  6
Continuous
 62
     0
370
     0
100
AcDbMText
 10
26.4235570841
 20
-5.8170237515
 30
0.0
 40
3.5
 41
0.0
 71
     1
 72
     1
  1
Direction
  7
SLDTEXTSTYLE0
 73
     1
 44
1.0
  0
MTEXT
  5
7B
330
63
100
AcDbEntity
  8
0
  6
Continuous
 62
     0
370
     0
100
AcDbMText
 10
61.458319171
 20
-5.8170237515
 30
0.0
 40
3.5
 41
0.0
 71
     1
 72
     1
  1
Angle
  7
SLDTEXTSTYLE0
 73
     1
 44
1.0
  0
MTEXT
  5
7C
330
63
100
AcDbEntity
  8
0
  6
Continuous
 62
     0
370
     0
100
AcDbMText
 10
81.7619233743
 20
-5.8170237515
 30
0.0
 40
3.5
 41
0.0
 71
     1
 72
     1
  1
Inner Radius
  7
SLDTEXTSTYLE0
 73
     1
 44
1.0
  0
MTEXT
  5
7D
330
63
100
AcDbEntity
  8
0
  6
Continuous
 62
     0
370
     0
100
AcDbMText
 10
7.2870446309
 20
-18.5185663808
 30
0.0
 40
3.5
 41
0.0
 71
     1
 72
     1
  1
A
  7
SLDTEXTSTYLE0
 73
     1
 44
1.0
  0
MTEXT
  5
7E
330
63
100
AcDbEntity
  8
0
  6
Continuous
 62
     0
370
     0
100
AcDbMText
 10
28.8322385215
 20
-18.5185663808
 30
0.0
 40
3.5
 41
0.0
 71
     1
 72
     1
  1
DOWN
  7
SLDTEXTSTYLE0
 73
     1
 44
1.0
  0
MTEXT
  5
7F
330
63
100
AcDbEntity
  8
0
  6
Continuous
 62
     0
370
     0
100
AcDbMText
 10
64.6399166218
 20
-18.5185663808
 30
0.0
 40
3.5
 41
0.0
 71
     1
 72
     1
  1
30°
  7
SLDTEXTSTYLE0
 73
     1
 44
1.0
  0
MTEXT
  5
80
330
63
100
AcDbEntity
  8
0
  6
Continuous
 62
     0
370
     0
100
AcDbMText
 10
90.8765068628
 20
-18.5185663808
 30
0.0
 40
3.5
 41
0.0
 71
     1
 72
     1
  1
0.25
  7
SLDTEXTSTYLE0
 73
     1
 44
1.0
  0
MTEXT
  5
81
330
63
100
AcDbEntity
  8
0
  6
Continuous
 62
     0
370
     0
100
AcDbMText
 10
7.6735028704
 20
-26.9092400038
 30
0.0
 40
3.5
 41
0.0
 71
     1
 72
     1
  1
B
  7
SLDTEXTSTYLE0
 73
     1
 44
1.0
  0
MTEXT
  5
82
330
63
100
AcDbEntity
  8
0
  6
Continuous
 62
     0
370
     0
100
AcDbMText
 10
33.6520298199
 20
-26.9092400038
 30
0.0
 40
3.5
 41
0.0
 71
     1
 72
     1
  1
UP
  7
SLDTEXTSTYLE0
 73
     1
 44
1.0
  0
MTEXT
  5
83
330
63
100
AcDbEntity
  8
0
  6
Continuous
 62
     0
370
     0
100
AcDbMText
 10
64.6399166218
 20
-26.9092400038
 30
0.0
 40
3.5
 41
0.0
 71
     1
 72
     1
  1
30°
  7
SLDTEXTSTYLE0
 73
     1
 44
1.0
  0
MTEXT
  5
84
330
63
100
AcDbEntity
  8
0
  6
Continuous
 62
     0
370
     0
100
AcDbMText
 10
90.8765068628
 20
-26.9092400038
 30
0.0
 40
3.5
 41
0.0
 71
     1
 72
     1
  1
0.25
  7
SLDTEXTSTYLE0
 73
     1
 44
1.0
  0
MTEXT
  5
85
330
63
100
AcDbEntity
  8
0
  6
Continuous
 62
     0
370
     0
100
AcDbMText
 10
7.1169057335
 20
-35.2999136269
 30
0.0
 40
3.5
 41
0.0
 71
     1
 72
     1
  1
C
  7
SLDTEXTSTYLE0
 73
     1
 44
1.0
  0
MTEXT
  5
86
330
63
100
AcDbEntity
  8
0
  6
Continuous
 62
     0
370
     0
100
AcDbMText
 10
28.8322385215
 20
-35.2999136269
 30
0.0
 40
3.5
 41
0.0
 71
     1
 72
     1
  1
DOWN
  7
SLDTEXTSTYLE0
 73
     1
 44
1.0
  0
MTEXT
  5
87
330
63
100
AcDbEntity
  8
0
  6
Continuous
 62
     0
370
     0
100
AcDbMText
 10
64.6399166218
 20
-35.2999136269
 30
0.0
 40
3.5
 41
0.0
 71
     1
 72
     1
  1
30°
  7
SLDTEXTSTYLE0
 73
     1
 44
1.0
  0
MTEXT
  5
88
330
63
100
AcDbEntity
  8
0
  6
Continuous
 62
     0
370
     0
100
AcDbMText
 10
90.8765068628
 20
-35.2999136269
 30
0.0
 40
3.5
 41
0.0
 71
     1
 72
     1
  1
0.25
  7
SLDTEXTSTYLE0
 73
     1
 44
1.0
  0
MTEXT
  5
89
330
63
100
AcDbEntity
  8
0
  6
Continuous
 62
     0
370
     0
100
AcDbMText
 10
7.2773223217
 20
-43.6905872499
 30
0.0
 40
3.5
 41
0.0
 71
     1
 72
     1
  1
D
  7
SLDTEXTSTYLE0
 73
     1
 44
1.0
  0
MTEXT
  5
8A
330
63
100
AcDbEntity
  8
0
  6
Continuous
 62
     0
370
     0
100
AcDbMText
 10
33.6520298199
 20
-43.6905872499
 30
0.0
 40
3.5
 41
0.0
 71
     1
 72
     1
  1
UP
  7
SLDTEXTSTYLE0
 73
     1
 44
1.0
  0
MTEXT
  5
8B
330
63
100
AcDbEntity
  8
0
  6
Continuous
 62
     0
370
     0
100
AcDbMText
 10
64.6399166218
 20
-43.6905872499
 30
0.0
 40
3.5
 41
0.0
 71
     1
 72
     1
  1
30°
  7
SLDTEXTSTYLE0
 73
     1
 44
1.0
  0
MTEXT
  5
8C
330
63
100
AcDbEntity
  8
0
  6
Continuous
 62
     0
370
     0
100
AcDbMText
 10
90.8765068628
 20
-43.6905872499
 30
0.0
 40
3.5
 41
0.0
 71
     1
 72
     1
  1
0.25
  7
SLDTEXTSTYLE0
 73
     1
 44
1.0
  0
MTEXT
  5
8D
330
63
100
AcDbEntity
  8
0
  6
Continuous
 62
     0
370
     0
100
AcDbMText
 10
7.7610029546
 20
-52.081260873
 30
0.0
 40
3.5
 41
0.0
 71
     1
 72
     1
  1
E
  7
SLDTEXTSTYLE0
 73
     1
 44
1.0
  0
MTEXT
  5
8E
330
63
100
AcDbEntity
  8
0
  6
Continuous
 62
     0
370
     0
100
AcDbMText
 10
28.8322385215
 20
-52.081260873
 30
0.0
 40
3.5
 41
0.0
 71
     1
 72
     1
  1
DOWN
  7
SLDTEXTSTYLE0
 73
     1
 44
1.0
  0
MTEXT
  5
8F
330
63
100
AcDbEntity
  8
0
  6
Continuous
 62
     0
370
     0
100
AcDbMText
 10
64.6399166218
 20
-52.081260873
 30
0.0
 40
3.5
 41
0.0
 71
     1
 72
     1
  1
90°
  7
SLDTEXTSTYLE0
 73
     1
 44
1.0
  0
MTEXT
  5
90
330
63
100
AcDbEntity
  8
0
  6
Continuous
 62
     0
370
     0
100
AcDbMText
 10
90.8765068628
 20
-52.081260873
 30
0.0
 40
3.5
 41
0.0
 71
     1
 72
     1
  1
0.25
  7
SLDTEXTSTYLE0
 73
     1
 44
1.0
  0
MTEXT
  5
91
330
63
100
AcDbEntity
  8
0
  6
Continuous
 62
     0
370
     0
100
AcDbMText
 10
7.8825306553
 20
-60.471934496
 30
0.0
 40
3.5
 41
0.0
 71
     1
 72
     1
  1
F
  7
SLDTEXTSTYLE0
 73
     1
 44
1.0
  0
MTEXT
  5
92
330
63
100
AcDbEntity
  8
0
  6
Continuous
 62
     0
370
     0
100
AcDbMText
 10
33.6520298199
 20
-60.471934496
 30
0.0
 40
3.5
 41
0.0
 71
     1
 72
     1
  1
UP
  7
SLDTEXTSTYLE0
 73
     1
 44
1.0
  0
MTEXT
  5
93
330
63
100
AcDbEntity
  8
0
  6
Continuous
 62
     0
370
     0
100
AcDbMText
 10
62.7003332848
 20
-60.471934496
 30
0.0
 40
3.5
 41
0.0
 71
     1
 72
     1
  1
87.5°
  7
SLDTEXTSTYLE0
 73
     1
 44
1.0
  0
MTEXT
  5
94
330
63
100
AcDbEntity
  8
0
  6
Continuous
 62
     0
370
     0
100
AcDbMText
 10
90.8765068628
 20
-60.471934496
 30
0.0
 40
3.5
 41
0.0
 71
     1
 72
     1
  1
0.25
  7
SLDTEXTSTYLE0
 73
     1
 44
1.0
  0
MTEXT
  5
95
330
63
100
AcDbEntity
  8
0
  6
Continuous
 62
     0
370
     0
100
AcDbMText
 10
6.97836405
 20
-68.862608119
 30
0.0
 40
3.5
 41
0.0
 71
     1
 72
     1
  1
G
  7
SLDTEXTSTYLE0
 73
     1
 44
1.0
  0
MTEXT
  5
96
330
63
100
AcDbEntity
  8
0
  6
Continuous
 62
     0
370
     0
100
AcDbMText
 10
33.6520298199
 20
-68.862608119
 30
0.0
 40
3.5
 41
0.0
 71
     1
 72
     1
  1
UP
  7
SLDTEXTSTYLE0
 73
     1
 44
1.0
  0
MTEXT
  5
97
330
63
100
AcDbEntity
  8
0
  6
Continuous
 62
     0
370
     0
100
AcDbMText
 10
62.7003332848
 20
-68.862608119
 30
0.0
 40
3.5
 41
0.0
 71
     1
 72
     1
  1
87.5°
  7
SLDTEXTSTYLE0
 73
     1
 44
1.0
  0
MTEXT
  5
98
330
63
100
AcDbEntity
  8
0
  6
Continuous
 62
     0
370
     0
100
AcDbMText
 10
90.8765068628
 20
-68.862608119
 30
0.0
 40
3.5
 41
0.0
 71
     1
 72
     1
  1
0.25
  7
SLDTEXTSTYLE0
 73
     1
 44
1.0
  0
MTEXT
  5
99
330
63
100
AcDbEntity
  8
0
  6
Continuous
 62
     0
370
     0
100
AcDbMText
 10
7.4182946408
 20
-77.2532817421
 30
0.0
 40
3.5
 41
0.0
 71
     1
 72
     1
  1
H
  7
SLDTEXTSTYLE0
 73
     1
 44
1.0
  0
MTEXT
  5
9A
330
63
100
AcDbEntity
  8
0
  6
Continuous
 62
     0
370
     0
100
AcDbMText
 10
33.6520298199
 20
-77.2532817421
 30
0.0
 40
3.5
 41
0.0
 71
     1
 72
     1
  1
UP
  7
SLDTEXTSTYLE0
 73
     1
 44
1.0
  0
MTEXT
  5
9B
330
63
100
AcDbEntity
  8
0
  6
Continuous
 62
     0
370
     0
100
AcDbMText
 10
64.6399166218
 20
-77.2532817421
 30
0.0
 40
3.5
 41
0.0
 71
     1
 72
     1
  1
90°
  7
SLDTEXTSTYLE0
 73
     1
 44
1.0
  0
MTEXT
  5
9C
330
63
100
AcDbEntity
  8
0
  6
Continuous
 62
     0
370
     0
100
AcDbMText
 10
90.8765068628
 20
-77.2532817421
 30
0.0
 40
3.5
 41
0.0
 71
     1
 72
     1
  1
0.25
  7
SLDTEXTSTYLE0
 73
     1
 44
1.0
  0
MTEXT
  5
9D
330
63
100
AcDbEntity
  8
0
  6
Continuous
 62
     0
370
     0
100
AcDbMText
 10
7.8873918099
 20
-85.6439553651
 30
0.0
 40
3.5
 41
0.0
 71
     1
 72
     1
  1
J
  7
SLDTEXTSTYLE0
 73
     1
 44
1.0
  0
MTEXT
  5
9E
330
63
100
AcDbEntity
  8
0
  6
Continuous
 62
     0
370
     0
100
AcDbMText
 10
33.6520298199
 20
-85.6439553651
 30
0.0
 40
3.5
 41
0.0
 71
     1
 72
     1
  1
UP
  7
SLDTEXTSTYLE0
 73
     1
 44
1.0
  0
MTEXT
  5
9F
330
63
100
AcDbEntity
  8
0
  6
Continuous
 62
     0
370
     0
100
AcDbMText
 10
64.6399166218
 20
-85.6439553651
 30
0.0
 40
3.5
 41
0.0
 71
     1
 72
     1
  1
95°
  7
SLDTEXTSTYLE0
 73
     1
 44
1.0
  0
MTEXT
  5
A0
330
63
100
AcDbEntity
  8
0
  6
Continuous
 62
     0
370
     0
100
AcDbMText
 10
90.8765068628
 20
-85.6439553651
 30
0.0
 40
3.5
 41
0.0
 71
     1
 72
     1
  1
0.25
  7
SLDTEXTSTYLE0
 73
     1
 44
1.0
  0
ENDBLK
  5
65
330
63
100
AcDbEntity
  8
0
100
AcDbBlockEnd
  0
BLOCK
  5
C2
330
C1
100
AcDbEntity
  8
0
100
AcDbBlockBegin
  2
_D
 70
     0
 10
0.0
 20
0.0
 30
0.0
  3
_D
  1

  0
SOLID
  5
C4
330
C1
100
AcDbEntity
  8
0
  6
Continuous
 62
     7
370
     0
100
AcDbTrace
 10
220.0943493622
 20
145.5623707933
 30
0.0
 11
223.3963493622
 21
145.0543707933
 31
0.0
 12
223.3963493622
 22
146.0703707933
 32
0.0
 13
223.3963493622
 23
146.0703707933
 33
0.0
  0
SOLID
  5
C5
330
C1
100
AcDbEntity
  8
0
  6
Continuous
 62
     7
370
     0
100
AcDbTrace
 10
255.0943493622
 20
145.5623707933
 30
0.0
 11
251.7923493622
 21
146.0703707933
 31
0.0
 12
251.7923493622
 22
145.0543707933
 32
0.0
 13
251.7923493622
 23
145.0543707933
 33
0.0
  0
LINE
  5
C6
330
C1
100
AcDbEntity
  8
0
  6
Continuous
 62
     7
370
     0
100
AcDbLine
 10
220.0943493622
 20
158.9493584558
 30
0.0
 11
220.0943493622
 21
144.5623707933
 31
0.0
  0
LINE
  5
C7
330
C1
100
AcDbEntity
  8
0
  6
Continuous
 62
     7
370
     0
100
AcDbLine
 10
255.0943493622
 20
158.9493584558
 30
0.0
 11
255.0943493622
 21
144.5623707933
 31
0.0
  0
LINE
  5
C8
330
C1
100
AcDbEntity
  8
0
  6
Continuous
 62
     7
370
     0
100
AcDbLine
 10
220.0943493622
 20
145.5623707933
 30
0.0
 11
255.0943493622
 21
145.5623707933
 31
0.0
  0
MTEXT
  5
C9
330
C1
100
AcDbEntity
  8
0
  6
Continuous
 62
     7
370
     0
100
AcDbMText
 10
231.646779977
 20
150.0741077079
 30
-13.0321881997
 40
3.5
 41
0.0
 71
     1
 72
     1
  1
3.50
  7
SLDTEXTSTYLE0
 73
     1
 44
1.0
  0
ENDBLK
  5
C3
330
C1
100
AcDbEntity
  8
0
100
AcDbBlockEnd
  0
BLOCK
  5
CC
330
CB
100
AcDbEntity
  8
0
100
AcDbBlockBegin
  2
_D_1
 70
     0
 10
0.0
 20
0.0
 30
0.0
  3
_D_1
  1

  0
SOLID
  5
CE
330
CB
100
AcDbEntity
  8
0
  6
Continuous
 62
     7
370
     0
100
AcDbTrace
 10
220.0943493622
 20
139.5623707933
 30
0.0
 11
223.3963493622
 21
139.0543707933
 31
0.0
 12
223.3963493622
 22
140.0703707933
 32
0.0
 13
223.3963493622
 23
140.0703707933
 33
0.0
  0
SOLID
  5
CF
330
CB
100
AcDbEntity
  8
0
  6
Continuous
 62
     7
370
     0
100
AcDbTrace
 10
266.0967193856
 20
139.5623707933
 30
0.0
 11
262.7947193856
 21
140.0703707933
 31
0.0
 12
262.7947193856
 22
139.0543707933
 32
0.0
 13
262.7947193856
 23
139.0543707933
 33
0.0
  0
LINE
  5
D0
330
CB
100
AcDbEntity
  8
0
  6
Continuous
 62
     7
370
     0
100
AcDbLine
 10
220.0943493622
 20
158.9493584558
 30
0.0
 11
220.0943493622
 21
138.5623707933
 31
0.0
  0
LINE
  5
D1
330
CB
100
AcDbEntity
  8
0
  6
Continuous
 62
     7
370
     0
100
AcDbLine
 10
266.0967193856
 20
169.2959340028
 30
0.0
 11
266.0967193856
 21
138.5623707933
 31
0.0
  0
LINE
  5
D2
330
CB
100
AcDbEntity
  8
0
  6
Continuous
 62
     7
370
     0
100
AcDbLine
 10
220.0943493622
 20
139.5623707933
 30
0.0
 11
266.0967193856
 21
139.5623707933
 31
0.0
  0
MTEXT
  5
D3
330
CB
100
AcDbEntity
  8
0
  6
Continuous
 62
     7
370
     0
100
AcDbMText
 10
236.5728040301
 20
144.0741077079
 30
-13.0321881997
 40
3.5
 41
0.0
 71
     1
 72
     1
  1
4.60
  7
SLDTEXTSTYLE0
 73
     1
 44
1.0
  0
ENDBLK
  5
CD
330
CB
100
AcDbEntity
  8
0
100
AcDbBlockEnd
  0
BLOCK
  5
D6
330
D5
100
AcDbEntity
  8
0
100
AcDbBlockBegin
  2
_D_2
 70
     0
 10
0.0
 20
0.0
 30
0.0
  3
_D_2
  1

  0
SOLID
  5
D8
330
D5
100
AcDbEntity
  8
0
  6
Continuous
 62
     7
370
     0
100
AcDbTrace
 10
220.0943493622
 20
133.9133298063
 30
0.0
 11
223.3963493622
 21
133.4053298063
 31
0.0
 12
223.3963493622
 22
134.4213298063
 32
0.0
 13
223.3963493622
 23
134.4213298063
 33
0.0
  0
SOLID
  5
D9
330
D5
100
AcDbEntity
  8
0
  6
Continuous
 62
     7
370
     0
100
AcDbTrace
 10
293.1333811444
 20
133.9133298063
 30
0.0
 11
289.8313811444
 21
134.4213298063
 31
0.0
 12
289.8313811444
 22
133.4053298063
 32
0.0
 13
289.8313811444
 23
133.4053298063
 33
0.0
  0
LINE
  5
DA
330
D5
100
AcDbEntity
  8
0
  6
Continuous
 62
     7
370
     0
100
AcDbLine
 10
220.0943493622
 20
158.9493584558
 30
0.0
 11
220.0943493622
 21
132.9133298063
 31
0.0
  0
LINE
  5
DB
330
D5
100
AcDbEntity
  8
0
  6
Continuous
 62
     7
370
     0
100
AcDbLine
 10
293.1333811444
 20
169.2959340028
 30
0.0
 11
293.1333811444
 21
132.9133298063
 31
0.0
  0
LINE
  5
DC
330
D5
100
AcDbEntity
  8
0
  6
Continuous
 62
     7
370
     0
100
AcDbLine
 10
220.0943493622
 20
133.9133298063
 30
0.0
 11
293.1333811444
 21
133.9133298063
 31
0.0
  0
MTEXT
  5
DD
330
D5
100
AcDbEntity
  8
0
  6
Continuous
 62
     7
370
     0
100
AcDbMText
 10
250.4926584348
 20
138.4250667209
 30
-13.0321881997
 40
3.5
 41
0.0
 71
     1
 72
     1
  1
7.30
  7
SLDTEXTSTYLE0
 73
     1
 44
1.0
  0
ENDBLK
  5
D7
330
D5
100
AcDbEntity
  8
0
100
AcDbBlockEnd
  0
BLOCK
  5
E1
330
E0
100
AcDbEntity
  8
0
100
AcDbBlockBegin
  2
_D_3
 70
     0
 10
0.0
 20
0.0
 30
0.0
  3
_D_3
  1

  0
SOLID
  5
E3
330
E0
100
AcDbEntity
  8
0
  6
Continuous
 62
     7
370
     0
100
AcDbTrace
 10
220.0943493622
 20
128.4397683258
 30
0.0
 11
223.3963493622
 21
127.9317683258
 31
0.0
 12
223.3963493622
 22
128.9477683258
 32
0.0
 13
223.3963493622
 23
128.9477683258
 33
0.0
  0
SOLID
  5
E4
330
E0
100
AcDbEntity
  8
0
  6
Continuous
 62
     7
370
     0
100
AcDbTrace
 10
348.2334349656
 20
128.4397683258
 30
0.0
 11
344.9314349656
 21
128.9477683258
 31
0.0
 12
344.9314349656
 22
127.9317683258
 32
0.0
 13
344.9314349656
 23
127.9317683258
 33
0.0
  0
LINE
  5
E5
330
E0
100
AcDbEntity
  8
0
  6
Continuous
 62
     7
370
     0
100
AcDbLine
 10
220.0943493622
 20
158.9493584558
 30
0.0
 11
220.0943493622
 21
127.4397683258
 31
0.0
  0
LINE
  5
E6
330
E0
100
AcDbEntity
  8
0
  6
Continuous
 62
     7
370
     0
100
AcDbLine
 10
348.2334349656
 20
169.2959340028
 30
0.0
 11
348.2334349656
 21
127.4397683258
 31
0.0
  0
LINE
  5
E7
330
E0
100
AcDbEntity
  8
0
  6
Continuous
 62
     7
370
     0
100
AcDbLine
 10
220.0943493622
 20
128.4397683258
 30
0.0
 11
348.2334349656
 21
128.4397683258
 31
0.0
  0
MTEXT
  5
E8
330
E0
100
AcDbEntity
  8
0
  6
Continuous
 62
     7
370
     0
100
AcDbMText
 10
273.9726672523
 20
132.9515052404
 30
-13.0321881997
 40
3.5
 41
0.0
 71
     1
 72
     1
  1
12.81
  7
SLDTEXTSTYLE0
 73
     1
 44
1.0
  0
ENDBLK
  5
E2
330
E0
100
AcDbEntity
  8
0
100
AcDbBlockEnd
  0
BLOCK
  5
EB
330
EA
100
AcDbEntity
  8
0
100
AcDbBlockBegin
  2
_D_4
 70
     0
 10
0.0
 20
0.0
 30
0.0
  3
_D_4
  1

  0
SOLID
  5
ED
330
EA
100
AcDbEntity
  8
0
  6
Continuous
 62
     7
370
     0
100
AcDbTrace
 10
220.0943493622
 20
122.2642888193
 30
0.0
 11
223.3963493622
 21
121.7562888193
 31
0.0
 12
223.3963493622
 22
122.7722888193
 32
0.0
 13
223.3963493622
 23
122.7722888193
 33
0.0
  0
SOLID
  5
EE
330
EA
100
AcDbEntity
  8
0
  6
Continuous
 62
     7
370
     0
100
AcDbTrace
 10
359.6116739953
 20
122.2642888193
 30
0.0
 11
356.3096739953
 21
122.7722888193
 31
0.0
 12
356.3096739953
 22
121.7562888193
 32
0.0
 13
356.3096739953
 23
121.7562888193
 33
0.0
  0
LINE
  5
EF
330
EA
100
AcDbEntity
  8
0
  6
Continuous
 62
     7
370
     0
100
AcDbLine
 10
220.0943493622
 20
158.9493584558
 30
0.0
 11
220.0943493622
 21
121.2642888193
 31
0.0
  0
LINE
  5
F0
330
EA
100
AcDbEntity
  8
0
  6
Continuous
 62
     7
370
     0
100
AcDbLine
 10
359.6116739953
 20
169.2959340028
 30
0.0
 11
359.6116739953
 21
121.2642888193
 31
0.0
  0
LINE
  5
F1
330
EA
100
AcDbEntity
  8
0
  6
Continuous
 62
     7
370
     0
100
AcDbLine
 10
220.0943493622
 20
122.2642888193
 30
0.0
 11
359.6116739953
 21
122.2642888193
 31
0.0
  0
MTEXT
  5
F2
330
EA
100
AcDbEntity
  8
0
  6
Continuous
 62
     7
370
     0
100
AcDbMText
 10
279.3835268754
 20
126.7760257339
 30
-13.0321881997
 40
3.5
 41
0.0
 71
     1
 72
     1
  1
13.95
  7
SLDTEXTSTYLE0
 73
     1
 44
1.0
  0
ENDBLK
  5
EC
330
EA
100
AcDbEntity
  8
0
100
AcDbBlockEnd
  0
BLOCK
  5
F5
330
F4
100
AcDbEntity
  8
0
100
AcDbBlockBegin
  2
_D_5
 70
     0
 10
0.0
 20
0.0
 30
0.0
  3
_D_5
  1

  0
SOLID
  5
F7
330
F4
100
AcDbEntity
  8
0
  6
Continuous
 62
     7
370
     0
100
AcDbTrace
 10
220.0943493622
 20
116.4397683258
 30
0.0
 11
223.3963493622
 21
115.9317683258
 31
0.0
 12
223.3963493622
 22
116.9477683258
 32
0.0
 13
223.3963493622
 23
116.9477683258
 33
0.0
  0
SOLID
  5
F8
330
F4
100
AcDbEntity
  8
0
  6
Continuous
 62
     7
370
     0
100
AcDbTrace
 10
370.2492300259
 20
116.4397683258
 30
0.0
 11
366.9472300259
 21
116.9477683258
 31
0.0
 12
366.9472300259
 22
115.9317683258
 32
0.0
 13
366.9472300259
 23
115.9317683258
 33
0.0
  0
LINE
  5
F9
330
F4
100
AcDbEntity
  8
0
  6
Continuous
 62
     7
370
     0
100
AcDbLine
 10
220.0943493622
 20
158.9493584558
 30
0.0
 11
220.0943493622
 21
115.4397683258
 31
0.0
  0
LINE
  5
FA
330
F4
100
AcDbEntity
  8
0
  6
Continuous
 62
     7
370
     0
100
AcDbLine
 10
370.2492300259
 20
158.9493584558
 30
0.0
 11
370.2492300259
 21
115.4397683258
 31
0.0
  0
LINE
  5
FB
330
F4
100
AcDbEntity
  8
0
  6
Continuous
 62
     7
370
     0
100
AcDbLine
 10
220.0943493622
 20
116.4397683258
 30
0.0
 11
370.2492300259
 21
116.4397683258
 31
0.0
  0
MTEXT
  5
FC
330
F4
100
AcDbEntity
  8
0
  6
Continuous
 62
     7
370
     0
100
AcDbMText
 10
285.1913389306
 20
120.9515052404
 30
-13.0321881997
 40
3.5
 41
0.0
 71
     1
 72
     1
  1
15.02
  7
SLDTEXTSTYLE0
 73
     1
 44
1.0
  0
ENDBLK
  5
F6
330
F4
100
AcDbEntity
  8
0
100
AcDbBlockEnd
  0
BLOCK
  5
FF
330
FE
100
AcDbEntity
  8
0
100
AcDbBlockBegin
  2
_D_6
 70
     0
 10
0.0
 20
0.0
 30
0.0
  3
_D_6
  1

  0
SOLID
  5
101
330
FE
100
AcDbEntity
  8
0
  6
Continuous
 62
     7
370
     0
100
AcDbTrace
 10
220.0943493622
 20
110.9662068453
 30
0.0
 11
223.3963493622
 21
110.4582068453
 31
0.0
 12
223.3963493622
 22
111.4742068453
 32
0.0
 13
223.3963493622
 23
111.4742068453
 33
0.0
  0
SOLID
  5
102
330
FE
100
AcDbEntity
  8
0
  6
Continuous
 62
     7
370
     0
100
AcDbTrace
 10
405.2492300259
 20
110.9662068453
 30
0.0
 11
401.9472300259
 21
111.4742068453
 31
0.0
 12
401.9472300259
 22
110.4582068453
 32
0.0
 13
401.9472300259
 23
110.4582068453
 33
0.0
  0
LINE
  5
103
330
FE
100
AcDbEntity
  8
0
  6
Continuous
 62
     7
370
     0
100
AcDbLine
 10
220.0943493622
 20
158.9493584558
 30
0.0
 11
220.0943493622
 21
109.9662068453
 31
0.0
  0
LINE
  5
104
330
FE
100
AcDbEntity
  8
0
  6
Continuous
 62
     7
370
     0
100
AcDbLine
 10
405.2492300259
 20
158.9493584558
 30
0.0
 11
405.2492300259
 21
109.9662068453
 31
0.0
  0
LINE
  5
105
330
FE
100
AcDbEntity
  8
0
  6
Continuous
 62
     7
370
     0
100
AcDbLine
 10
220.0943493622
 20
110.9662068453
 30
0.0
 11
405.2492300259
 21
110.9662068453
 31
0.0
  0
MTEXT
  5
106
330
FE
100
AcDbEntity
  8
0
  6
Continuous
 62
     7
370
     0
100
AcDbMText
 10
302.790254603
 20
115.4779437599
 30
-13.0321881997
 40
3.5
 41
0.0
 71
     1
 72
     1
  1
18.52
  7
SLDTEXTSTYLE0
 73
     1
 44
1.0
  0
ENDBLK
  5
100
330
FE
100
AcDbEntity
  8
0
100
AcDbBlockEnd
  0
BLOCK
  5
109
330
108
100
AcDbEntity
  8
0
100
AcDbBlockBegin
  2
_D_7
 70
     0
 10
0.0
 20
0.0
 30
0.0
  3
_D_7
  1

  0
SOLID
  5
10B
330
108
100
AcDbEntity
  8
0
  6
Continuous
 62
     7
370
     0
100
AcDbTrace
 10
203.9178378626
 20
206.5459340028
 30
0.0
 11
204.4258378626
 21
209.8479340028
 31
0.0
 12
203.4098378626
 22
209.8479340028
 32
0.0
 13
203.4098378626
 23
209.8479340028
 33
0.0
  0
SOLID
  5
10C
330
108
100
AcDbEntity
  8
0
  6
Continuous
 62
     7
370
     0
100
AcDbTrace
 10
203.9178378626
 20
234.0459340028
 30
0.0
 11
203.4098378626
 21
230.7439340028
 31
0.0
 12
204.4258378626
 22
230.7439340028
 32
0.0
 13
204.4258378626
 23
230.7439340028
 33
0.0
  0
LINE
  5
10D
330
108
100
AcDbEntity
  8
0
  6
Continuous
 62
     7
370
     0
100
AcDbLine
 10
207.0257658916
 20
206.5459340028
 30
0.0
 11
202.9178378626
 21
206.5459340028
 31
0.0
  0
LINE
  5
10E
330
108
100
AcDbEntity
  8
0
  6
Continuous
 62
     7
370
     0
100
AcDbLine
 10
207.0257658916
 20
234.0459340028
 30
0.0
 11
202.9178378626
 21
234.0459340028
 31
0.0
  0
LINE
  5
10F
330
108
100
AcDbEntity
  8
0
  6
Continuous
 62
     7
370
     0
100
AcDbLine
 10
203.9178378626
 20
206.5459340028
 30
0.0
 11
203.9178378626
 21
234.0459340028
 31
0.0
  0
MTEXT
  5
110
330
108
100
AcDbEntity
  8
0
  6
Continuous
 62
     7
370
     0
100
AcDbMText
 10
199.406100948
 20
215.1654543728
 30
1.0
 40
3.5
 41
0.0
 71
     1
 72
     1
  1
2.75
  7
SLDTEXTSTYLE0
 11
6.123233995736766E-17
 21
1.0
 31
0.0
 73
     1
 44
1.0
  0
ENDBLK
  5
10A
330
108
100
AcDbEntity
  8
0
100
AcDbBlockEnd
  0
BLOCK
  5
113
330
112
100
AcDbEntity
  8
0
100
AcDbBlockBegin
  2
_D_8
 70
     0
 10
0.0
 20
0.0
 30
0.0
  3
_D_8
  1

  0
SOLID
  5
115
330
112
100
AcDbEntity
  8
0
  6
Continuous
 62
     7
370
     0
100
AcDbTrace
 10
197.6784695363
 20
270.2959340028
 30
0.0
 11
197.1704695363
 21
266.9939340028
 31
0.0
 12
198.1864695363
 22
266.9939340028
 32
0.0
 13
198.1864695363
 23
266.9939340028
 33
0.0
  0
SOLID
  5
116
330
112
100
AcDbEntity
  8
0
  6
Continuous
 62
     7
370
     0
100
AcDbTrace
 10
197.6784695363
 20
170.2959340028
 30
0.0
 11
198.1864695363
 21
173.5979340028
 31
0.0
 12
197.1704695363
 22
173.5979340028
 32
0.0
 13
197.1704695363
 23
173.5979340028
 33
0.0
  0
LINE
  5
117
330
112
100
AcDbEntity
  8
0
  6
Continuous
 62
     7
370
     0
100
AcDbLine
 10
254.0943493622
 20
270.2959340028
 30
0.0
 11
196.6784695363
 21
270.2959340028
 31
0.0
  0
LINE
  5
118
330
112
100
AcDbEntity
  8
0
  6
Continuous
 62
     7
370
     0
100
AcDbLine
 10
254.0943493622
 20
170.2959340028
 30
0.0
 11
196.6784695363
 21
170.2959340028
 31
0.0
  0
LINE
  5
119
330
112
100
AcDbEntity
  8
0
  6
Continuous
 62
     7
370
     0
100
AcDbLine
 10
197.6784695363
 20
270.2959340028
 30
0.0
 11
197.6784695363
 21
170.2959340028
 31
0.0
  0
MTEXT
  5
11A
330
112
100
AcDbEntity
  8
0
  6
Continuous
 62
     7
370
     0
100
AcDbMText
 10
193.1667326217
 20
217.1050374769
 30
-13.0321881997
 40
3.5
 41
0.0
 71
     1
 72
     1
  1
10
  7
SLDTEXTSTYLE0
 11
-7.044195017643634E-15
 21
1.0
 31
0.0
 73
     1
 44
1.0
  0
ENDBLK
  5
114
330
112
100
AcDbEntity
  8
0
100
AcDbBlockEnd
  0
BLOCK
  5
11D
330
11C
100
AcDbEntity
  8
0
100
AcDbBlockBegin
  2
_D_9
 70
     0
 10
0.0
 20
0.0
 30
0.0
  3
_D_9
  1

  0
SOLID
  5
11F
330
11C
100
AcDbEntity
  8
0
  6
Continuous
 62
     7
370
     0
100
AcDbTrace
 10
191.6784695363
 20
271.4740312479
 30
0.0
 11
191.1704695363
 21
268.1720312479
 31
0.0
 12
192.1864695363
 22
268.1720312479
 32
0.0
 13
192.1864695363
 23
268.1720312479
 33
0.0
  0
SOLID
  5
120
330
11C
100
AcDbEntity
  8
0
  6
Continuous
 62
     7
370
     0
100
AcDbTrace
 10
191.6784695363
 20
169.1178367577
 30
0.0
 11
192.1864695363
 21
172.4198367577
 31
0.0
 12
191.1704695363
 22
172.4198367577
 32
0.0
 13
191.1704695363
 23
172.4198367577
 33
0.0
  0
LINE
  5
121
330
11C
100
AcDbEntity
  8
0
  6
Continuous
 62
     7
370
     0
100
AcDbLine
 10
219.0943493622
 20
271.4740312479
 30
0.0
 11
190.6784695363
 21
271.4740312479
 31
0.0
  0
LINE
  5
122
330
11C
100
AcDbEntity
  8
0
  6
Continuous
 62
     7
370
     0
100
AcDbLine
 10
219.0943493622
 20
169.1178367577
 30
0.0
 11
190.6784695363
 21
169.1178367577
 31
0.0
  0
LINE
  5
123
330
11C
100
AcDbEntity
  8
0
  6
Continuous
 62
     7
370
     0
100
AcDbLine
 10
191.6784695363
 20
271.4740312479
 30
0.0
 11
191.6784695363
 21
169.1178367577
 31
0.0
  0
MTEXT
  5
124
330
11C
100
AcDbEntity
  8
0
  6
Continuous
 62
     7
370
     0
100
AcDbMText
 10
187.1667326217
 20
213.8723986596
 30
-13.0321881997
 40
3.5
 41
0.0
 71
     1
 72
     1
  1
10.24
  7
SLDTEXTSTYLE0
 11
-7.044195017643634E-15
 21
1.0
 31
0.0
 73
     1
 44
1.0
  0
ENDBLK
  5
11E
330
11C
100
AcDbEntity
  8
0
100
AcDbBlockEnd
  0
BLOCK
  5
127
330
126
100
AcDbEntity
  8
0
100
AcDbBlockBegin
  2
_D_10
 70
     0
 10
0.0
 20
0.0
 30
0.0
  3
_D_10
  1

  0
SOLID
  5
129
330
126
100
AcDbEntity
  8
0
  6
Continuous
 62
     7
370
     0
100
AcDbTrace
 10
185.6784695363
 20
280.6425095498
 30
0.0
 11
185.1704695363
 21
277.3405095498
 31
0.0
 12
186.1864695363
 22
277.3405095498
 32
0.0
 13
186.1864695363
 23
277.3405095498
 33
0.0
  0
SOLID
  5
12A
330
126
100
AcDbEntity
  8
0
  6
Continuous
 62
     7
370
     0
100
AcDbTrace
 10
185.6784695363
 20
159.9493584558
 30
0.0
 11
186.1864695363
 21
163.2513584558
 31
0.0
 12
185.1704695363
 22
163.2513584558
 32
0.0
 13
185.1704695363
 23
163.2513584558
 33
0.0
  0
LINE
  5
12B
330
126
100
AcDbEntity
  8
0
  6
Continuous
 62
     7
370
     0
100
AcDbLine
 10
219.0943493622
 20
280.6425095498
 30
0.0
 11
184.6784695363
 21
280.6425095498
 31
0.0
  0
LINE
  5
12C
330
126
100
AcDbEntity
  8
0
  6
Continuous
 62
     7
370
     0
100
AcDbLine
 10
219.0943493622
 20
159.9493584558
 30
0.0
 11
184.6784695363
 21
159.9493584558
 31
0.0
  0
LINE
  5
12D
330
126
100
AcDbEntity
  8
0
  6
Continuous
 62
     7
370
     0
100
AcDbLine
 10
185.6784695363
 20
280.6425095498
 30
0.0
 11
185.6784695363
 21
159.9493584558
 31
0.0
  0
MTEXT
  5
12E
330
126
100
AcDbEntity
  8
0
  6
Continuous
 62
     7
370
     0
100
AcDbMText
 10
181.1667326217
 20
213.8723986596
 30
-13.0321881998
 40
3.5
 41
0.0
 71
     1
 72
     1
  1
12.07
  7
SLDTEXTSTYLE0
 11
-7.044195017643634E-15
 21
1.0
 31
0.0
 73
     1
 44
1.0
  0
ENDBLK
  5
128
330
126
100
AcDbEntity
  8
0
100
AcDbBlockEnd
  0
BLOCK
  5
132
330
131
100
AcDbEntity
  8
0
100
AcDbBlockBegin
  2
_D_11
 70
     0
 10
0.0
 20
0.0
 30
0.0
  3
_D_11
  1

  0
SOLID
  5
134
330
131
100
AcDbEntity
  8
0
  6
Continuous
 62
     7
370
     0
100
AcDbTrace
 10
220.0943493622
 20
143.9493584558
 30
0.0
 11
223.3963493622
 21
143.4413584558
 31
0.0
 12
223.3963493622
 22
144.4573584558
 32
0.0
 13
223.3963493622
 23
144.4573584558
 33
0.0
  0
SOLID
  5
135
330
131
100
AcDbEntity
  8
0
  6
Continuous
 62
     7
370
     0
100
AcDbTrace
 10
216.5600576269
 20
143.9493584558
 30
0.0
 11
213.2580576269
 21
144.4573584558
 31
0.0
 12
213.2580576269
 22
143.4413584558
 32
0.0
 13
213.2580576269
 23
143.4413584558
 33
0.0
  0
LINE
  5
136
330
131
100
AcDbEntity
  8
0
  6
Continuous
 62
     7
370
     0
100
AcDbLine
 10
220.0943493622
 20
158.9493584558
 30
0.0
 11
220.0943493622
 21
142.9493584558
 31
0.0
  0
LINE
  5
137
330
131
100
AcDbEntity
  8
0
  6
Continuous
 62
     7
370
     0
100
AcDbLine
 10
216.5600576269
 20
205.5459340028
 30
0.0
 11
216.5600576269
 21
142.9493584558
 31
0.0
  0
LINE
  5
138
330
131
100
AcDbEntity
  8
0
  6
Continuous
 62
     7
370
     0
100
AcDbLine
 10
220.0943493622
 20
143.9493584558
 30
0.0
 11
226.4443493622
 21
143.9493584558
 31
0.0
  0
LINE
  5
139
330
131
100
AcDbEntity
  8
0
  6
Continuous
 62
     7
370
     0
100
AcDbLine
 10
220.0943493622
 20
143.9493584558
 30
0.0
 11
216.5600576269
 21
143.9493584558
 31
0.0
  0
LINE
  5
13A
330
131
100
AcDbEntity
  8
0
  6
Continuous
 62
     7
370
     0
100
AcDbLine
 10
216.5600576269
 20
143.9493584558
 30
0.0
 11
191.7309001511
 21
143.9493584558
 31
0.0
  0
MTEXT
  5
13B
330
131
100
AcDbEntity
  8
0
  6
Continuous
 62
     7
370
     0
100
AcDbMText
 10
191.7309001511
 20
148.4610953704
 30
-13.0321881997
 40
3.5
 41
0.0
 71
     1
 72
     1
  1
0.35
  7
SLDTEXTSTYLE0
 73
     1
 44
1.0
  0
ENDBLK
  5
133
330
131
100
AcDbEntity
  8
0
100
AcDbBlockEnd
  0
BLOCK
  5
13E
330
13D
100
AcDbEntity
  8
0
100
AcDbBlockBegin
  2
_D_12
 70
     0
 10
0.0
 20
0.0
 30
0.0
  3
_D_12
  1

  0
SOLID
  5
140
330
13D
100
AcDbEntity
  8
0
  6
Continuous
 62
     7
370
     0
100
AcDbTrace
 10
220.0943493622
 20
137.9493584558
 30
0.0
 11
216.7923493622
 21
138.4573584558
 31
0.0
 12
216.7923493622
 22
137.4413584558
 32
0.0
 13
216.7923493622
 23
137.4413584558
 33
0.0
  0
SOLID
  5
141
330
13D
100
AcDbEntity
  8
0
  6
Continuous
 62
     7
370
     0
100
AcDbTrace
 10
208.0257658916
 20
137.9493584558
 30
0.0
 11
211.3277658916
 21
137.4413584558
 31
0.0
 12
211.3277658916
 22
138.4573584558
 32
0.0
 13
211.3277658916
 23
138.4573584558
 33
0.0
  0
LINE
  5
142
330
13D
100
AcDbEntity
  8
0
  6
Continuous
 62
     7
370
     0
100
AcDbLine
 10
220.0943493622
 20
158.9493584558
 30
0.0
 11
220.0943493622
 21
136.9493584558
 31
0.0
  0
LINE
  5
143
330
13D
100
AcDbEntity
  8
0
  6
Continuous
 62
     7
370
     0
100
AcDbLine
 10
208.0257658916
 20
205.5459340028
 30
0.0
 11
208.0257658916
 21
136.9493584558
 31
0.0
  0
LINE
  5
144
330
13D
100
AcDbEntity
  8
0
  6
Continuous
 62
     7
370
     0
100
AcDbLine
 10
220.0943493622
 20
137.9493584558
 30
0.0
 11
208.0257658916
 21
137.9493584558
 31
0.0
  0
LINE
  5
145
330
13D
100
AcDbEntity
  8
0
  6
Continuous
 62
     7
370
     0
100
AcDbLine
 10
208.0257658916
 20
137.9493584558
 30
0.0
 11
191.7309001511
 21
137.9493584558
 31
0.0
  0
MTEXT
  5
146
330
13D
100
AcDbEntity
  8
0
  6
Continuous
 62
     7
370
     0
100
AcDbMText
 10
191.7309001511
 20
142.4610953704
 30
-13.0321881998
 40
3.5
 41
0.0
 71
     1
 72
     1
  1
1.21
  7
SLDTEXTSTYLE0
 73
     1
 44
1.0
  0
ENDBLK
  5
13F
330
13D
100
AcDbEntity
  8
0
100
AcDbBlockEnd
  0
BLOCK
  5
149
330
148
100
AcDbEntity
  8
0
100
AcDbBlockBegin
  2
_D_13
 70
     0
 10
0.0
 20
0.0
 30
0.0
  3
_D_13
  1

  0
SOLID
  5
14B
330
148
100
AcDbEntity
  8
0
  6
Continuous
 62
     7
370
     0
100
AcDbTrace
 10
220.0943493622
 20
152.007330436
 30
0.0
 11
216.7923493622
 21
152.515330436
 31
0.0
 12
216.7923493622
 22
151.499330436
 32
0.0
 13
216.7923493622
 23
151.499330436
 33
0.0
  0
SOLID
  5
14C
330
148
100
AcDbEntity
  8
0
  6
Continuous
 62
     7
370
     0
100
AcDbTrace
 10
222.5943493622
 20
152.007330436
 30
0.0
 11
225.8963493622
 21
151.499330436
 31
0.0
 12
225.8963493622
 22
152.515330436
 32
0.0
 13
225.8963493622
 23
152.515330436
 33
0.0
  0
LINE
  5
14D
330
148
100
AcDbEntity
  8
0
  6
Continuous
 62
     7
370
     0
100
AcDbLine
 10
220.0943493622
 20
158.9493584558
 30
0.0
 11
220.0943493622
 21
151.007330436
 31
0.0
  0
LINE
  5
14E
330
148
100
AcDbEntity
  8
0
  6
Continuous
 62
     7
370
     0
100
AcDbLine
 10
222.5943493622
 20
203.0459340028
 30
0.0
 11
222.5943493622
 21
151.007330436
 31
0.0
  0
LINE
  5
14F
330
148
100
AcDbEntity
  8
0
  6
Continuous
 62
     7
370
     0
100
AcDbLine
 10
220.0943493622
 20
152.007330436
 30
0.0
 11
213.7443493622
 21
152.007330436
 31
0.0
  0
LINE
  5
150
330
148
100
AcDbEntity
  8
0
  6
Continuous
 62
     7
370
     0
100
AcDbLine
 10
220.0943493622
 20
152.007330436
 30
0.0
 11
222.5943493622
 21
152.007330436
 31
0.0
  0
LINE
  5
151
330
148
100
AcDbEntity
  8
0
  6
Continuous
 62
     7
370
     0
100
AcDbLine
 10
222.5943493622
 20
152.007330436
 30
0.0
 11
243.5419187473
 21
152.007330436
 31
0.0
  0
MTEXT
  5
152
330
148
100
AcDbEntity
  8
0
  6
Continuous
 62
     7
370
     0
100
AcDbMText
 10
231.646779977
 20
156.5190673505
 30
-13.0321881998
 40
3.5
 41
0.0
 71
     1
 72
     1
  1
0.25
  7
SLDTEXTSTYLE0
 73
     1
 44
1.0
  0
ENDBLK
  5
14A
330
148
100
AcDbEntity
  8
0
100
AcDbBlockEnd
  0
BLOCK
  5
156
330
155
100
AcDbEntity
  8
0
100
AcDbBlockBegin
  2
_D_14
 70
     0
 10
0.0
 20
0.0
 30
0.0
  3
_D_14
  1

  0
SOLID
  5
158
330
155
100
AcDbEntity
  8
0
  6
Continuous
 62
     7
370
     0
100
AcDbTrace
 10
223.801756645
 20
234.9724101964
 30
0.0
 11
226.8625252651
 21
233.6333943435
 31
0.0
 12
227.1234655853
 22
234.6153139682
 32
0.0
 13
227.1234655853
 23
234.6153139682
 33
0.0
  0
LINE
  5
159
330
155
100
AcDbEntity
  8
0
  6
Continuous
 62
     7
370
     0
100
AcDbLine
 10
223.801756645
 20
234.9724101964
 30
0.0
 11
201.4142082318
 21
240.9217912907
 31
0.0
  0
LINE
  5
15A
330
155
100
AcDbEntity
  8
0
  6
Continuous
 62
     7
370
     0
100
AcDbLine
 10
223.801756645
 20
234.9724101964
 30
0.0
 11
229.9387542992
 21
233.3415331953
 31
0.0
  0
MTEXT
  5
15B
330
155
100
AcDbEntity
  8
0
  6
Continuous
 62
     7
370
     0
100
AcDbMText
 10
202.5819316717
 20
245.2797944979
 30
-15.0321881998
 40
3.5
 41
0.0
 71
     1
 72
     1
  1
R0.13
  7
SLDTEXTSTYLE0
 11
0.9659258262891114
 21
-0.25881904510236
 31
0.0
 73
     1
 44
1.0
  0
ENDBLK
  5
157
330
155
100
AcDbEntity
  8
0
100
AcDbBlockEnd
  0
BLOCK
  5
166
330
165
100
AcDbEntity
  8
0
100
AcDbBlockBegin
  2
SW_NOTE_0
 70
     0
 10
0.0
 20
0.0
 30
0.0
  3
SW_NOTE_0
  1

  0
LINE
  5
168
330
165
100
AcDbEntity
  8
0
  6
Continuous
 62
     0
370
     0
100
AcDbLine
 10
-0.0306343487
 20
0.3469762556
 30
0.0
 11
24.4114485419
 21
0.3469762556
 31
0.0
  0
LINE
  5
169
330
165
100
AcDbEntity
  8
0
  6
Continuous
 62
     0
370
     0
100
AcDbLine
 10
-0.0306343487
 20
0.3469762556
 30
0.0
 11
0.7586936881
 21
-0.4417234683
 31
0.0
  0
LINE
  5
16A
330
165
100
AcDbEntity
  8
0
  6
Continuous
 62
     0
370
     0
100
AcDbLine
 10
0.702628138
 20
0.3469762556
 30
0.0
 11
1.4919561748
 21
-0.4417234683
 31
0.0
  0
LINE
  5
16B
330
165
100
AcDbEntity
  8
0
  6
Continuous
 62
     0
370
     0
100
AcDbLine
 10
1.4358906248
 20
0.3469762556
 30
0.0
 11
2.2252186615
 21
-0.4417234683
 31
0.0
  0
LINE
  5
16C
330
165
100
AcDbEntity
  8
0
  6
Continuous
 62
     0
370
     0
100
AcDbLine
 10
2.1691531115
 20
0.3469762556
 30
0.0
 11
2.9584811483
 21
-0.4417234683
 31
0.0
  0
LINE
  5
16D
330
165
100
AcDbEntity
  8
0
  6
Continuous
 62
     0
370
     0
100
AcDbLine
 10
2.9024155982
 20
0.3469762556
 30
0.0
 11
3.691743635
 21
-0.4417234683
 31
0.0
  0
LINE
  5
16E
330
165
100
AcDbEntity
  8
0
  6
Continuous
 62
     0
370
     0
100
AcDbLine
 10
3.6356780849
 20
0.3469762556
 30
0.0
 11
4.4250061217
 21
-0.4417234683
 31
0.0
  0
LINE
  5
16F
330
165
100
AcDbEntity
  8
0
  6
Continuous
 62
     0
370
     0
100
AcDbLine
 10
4.3689405716
 20
0.3469762556
 30
0.0
 11
5.1582686084
 21
-0.4417234683
 31
0.0
  0
LINE
  5
170
330
165
100
AcDbEntity
  8
0
  6
Continuous
 62
     0
370
     0
100
AcDbLine
 10
5.1022030583
 20
0.3469762556
 30
0.0
 11
5.8915310951
 21
-0.4417234683
 31
0.0
  0
LINE
  5
171
330
165
100
AcDbEntity
  8
0
  6
Continuous
 62
     0
370
     0
100
AcDbLine
 10
5.835465545
 20
0.3469762556
 30
0.0
 11
6.6247935818
 21
-0.4417234683
 31
0.0
  0
LINE
  5
172
330
165
100
AcDbEntity
  8
0
  6
Continuous
 62
     0
370
     0
100
AcDbLine
 10
6.5687280318
 20
0.3469762556
 30
0.0
 11
7.3580560686
 21
-0.4417234683
 31
0.0
  0
LINE
  5
173
330
165
100
AcDbEntity
  8
0
  6
Continuous
 62
     0
370
     0
100
AcDbLine
 10
7.3019905185
 20
0.3469762556
 30
0.0
 11
8.0913185553
 21
-0.4417234683
 31
0.0
  0
LINE
  5
174
330
165
100
AcDbEntity
  8
0
  6
Continuous
 62
     0
370
     0
100
AcDbLine
 10
8.0352530052
 20
0.3469762556
 30
0.0
 11
8.824581042
 21
-0.4417234683
 31
0.0
  0
LINE
  5
175
330
165
100
AcDbEntity
  8
0
  6
Continuous
 62
     0
370
     0
100
AcDbLine
 10
8.7685154919
 20
0.3469762556
 30
0.0
 11
9.5578435287
 21
-0.4417234683
 31
0.0
  0
LINE
  5
176
330
165
100
AcDbEntity
  8
0
  6
Continuous
 62
     0
370
     0
100
AcDbLine
 10
9.5017779786
 20
0.3469762556
 30
0.0
 11
10.2911060154
 21
-0.4417234683
 31
0.0
  0
LINE
  5
177
330
165
100
AcDbEntity
  8
0
  6
Continuous
 62
     0
370
     0
100
AcDbLine
 10
10.2350404653
 20
0.3469762556
 30
0.0
 11
11.0243685021
 21
-0.4417234683
 31
0.0
  0
LINE
  5
178
330
165
100
AcDbEntity
  8
0
  6
Continuous
 62
     0
370
     0
100
AcDbLine
 10
10.9683029521
 20
0.3469762556
 30
0.0
 11
11.7576309889
 21
-0.4417234683
 31
0.0
  0
LINE
  5
179
330
165
100
AcDbEntity
  8
0
  6
Continuous
 62
     0
370
     0
100
AcDbLine
 10
11.7015654388
 20
0.3469762556
 30
0.0
 11
12.4908934756
 21
-0.4417234683
 31
0.0
  0
LINE
  5
17A
330
165
100
AcDbEntity
  8
0
  6
Continuous
 62
     0
370
     0
100
AcDbLine
 10
12.4348279255
 20
0.3469762556
 30
0.0
 11
13.2241559623
 21
-0.4417234683
 31
0.0
  0
LINE
  5
17B
330
165
100
AcDbEntity
  8
0
  6
Continuous
 62
     0
370
     0
100
AcDbLine
 10
13.1680904122
 20
0.3469762556
 30
0.0
 11
13.957418449
 21
-0.4417234683
 31
0.0
  0
LINE
  5
17C
330
165
100
AcDbEntity
  8
0
  6
Continuous
 62
     0
370
     0
100
AcDbLine
 10
13.9013528989
 20
0.3469762556
 30
0.0
 11
14.6906809357
 21
-0.4417234683
 31
0.0
  0
LINE
  5
17D
330
165
100
AcDbEntity
  8
0
  6
Continuous
 62
     0
370
     0
100
AcDbLine
 10
14.6346153856
 20
0.3469762556
 30
0.0
 11
15.4239434224
 21
-0.4417234683
 31
0.0
  0
LINE
  5
17E
330
165
100
AcDbEntity
  8
0
  6
Continuous
 62
     0
370
     0
100
AcDbLine
 10
15.3678778724
 20
0.3469762556
 30
0.0
 11
16.1572059092
 21
-0.4417234683
 31
0.0
  0
LINE
  5
17F
330
165
100
AcDbEntity
  8
0
  6
Continuous
 62
     0
370
     0
100
AcDbLine
 10
16.1011403591
 20
0.3469762556
 30
0.0
 11
16.8904683959
 21
-0.4417234683
 31
0.0
  0
LINE
  5
180
330
165
100
AcDbEntity
  8
0
  6
Continuous
 62
     0
370
     0
100
AcDbLine
 10
16.8344028458
 20
0.3469762556
 30
0.0
 11
17.6237308826
 21
-0.4417234683
 31
0.0
  0
LINE
  5
181
330
165
100
AcDbEntity
  8
0
  6
Continuous
 62
     0
370
     0
100
AcDbLine
 10
17.5676653325
 20
0.3469762556
 30
0.0
 11
18.3569933693
 21
-0.4417234683
 31
0.0
  0
LINE
  5
182
330
165
100
AcDbEntity
  8
0
  6
Continuous
 62
     0
370
     0
100
AcDbLine
 10
18.3009278192
 20
0.3469762556
 30
0.0
 11
19.090255856
 21
-0.4417234683
 31
0.0
  0
LINE
  5
183
330
165
100
AcDbEntity
  8
0
  6
Continuous
 62
     0
370
     0
100
AcDbLine
 10
19.0341903059
 20
0.3469762556
 30
0.0
 11
19.8235183427
 21
-0.4417234683
 31
0.0
  0
LINE
  5
184
330
165
100
AcDbEntity
  8
0
  6
Continuous
 62
     0
370
     0
100
AcDbLine
 10
19.7674527927
 20
0.3469762556
 30
0.0
 11
20.5567808295
 21
-0.4417234683
 31
0.0
  0
LINE
  5
185
330
165
100
AcDbEntity
  8
0
  6
Continuous
 62
     0
370
     0
100
AcDbLine
 10
20.5007152794
 20
0.3469762556
 30
0.0
 11
21.2900433162
 21
-0.4417234683
 31
0.0
  0
LINE
  5
186
330
165
100
AcDbEntity
  8
0
  6
Continuous
 62
     0
370
     0
100
AcDbLine
 10
21.2339777661
 20
0.3469762556
 30
0.0
 11
22.0233058029
 21
-0.4417234683
 31
0.0
  0
LINE
  5
187
330
165
100
AcDbEntity
  8
0
  6
Continuous
 62
     0
370
     0
100
AcDbLine
 10
21.9672402528
 20
0.3469762556
 30
0.0
 11
22.7565682896
 21
-0.4417234683
 31
0.0
  0
LINE
  5
188
330
165
100
AcDbEntity
  8
0
  6
Continuous
 62
     0
370
     0
100
AcDbLine
 10
22.7005027395
 20
0.3469762556
 30
0.0
 11
23.4898307763
 21
-0.4417234683
 31
0.0
  0
LINE
  5
189
330
165
100
AcDbEntity
  8
0
  6
Continuous
 62
     0
370
     0
100
AcDbLine
 10
23.4337652262
 20
0.3469762556
 30
0.0
 11
24.223093263
 21
-0.4417234683
 31
0.0
  0
LINE
  5
18A
330
165
100
AcDbEntity
  8
0
  6
Continuous
 62
     0
370
     0
100
AcDbLine
 10
24.167027713
 20
0.3469762556
 30
0.0
 11
24.9563557498
 21
-0.4417234683
 31
0.0
  0
MTEXT
  5
18B
330
165
100
AcDbEntity
  8
0
  6
Continuous
 62
     0
370
     0
100
AcDbMText
 10
0.0
 20
4.5117370892
 30
0.0
 40
3.5
 41
0.0
 71
     1
 72
     1
  1
Fixed Face
  7
SLDTEXTSTYLE0
 73
     1
 44
1.0
  0
ENDBLK
  5
167
330
165
100
AcDbEntity
  8
0
100
AcDbBlockEnd
  0
BLOCK
  5
1C6
330
1C5
100
AcDbEntity
  8
0
100
AcDbBlockBegin
  2
_D_15
 70
     0
 10
0.0
 20
0.0
 30
0.0
  3
_D_15
  1

  0
SOLID
  5
1C8
330
1C5
100
AcDbEntity
  8
0
  6
Continuous
 62
     7
370
     0
100
AcDbTrace
 10
36.0665544354
 20
86.799396318
 30
0.0
 11
35.5585544354
 21
83.497396318
 31
0.0
 12
36.5745544354
 22
83.497396318
 32
0.0
 13
36.5745544354
 23
83.497396318
 33
0.0
  0
SOLID
  5
1C9
330
1C5
100
AcDbEntity
  8
0
  6
Continuous
 62
     7
370
     0
100
AcDbTrace
 10
36.0665544354
 20
54.1029049678
 30
0.0
 11
36.5745544354
 21
57.4049049678
 31
0.0
 12
35.5585544354
 22
57.4049049678
 32
0.0
 13
35.5585544354
 23
57.4049049678
 33
0.0
  0
LINE
  5
1CA
330
1C5
100
AcDbEntity
  8
0
  6
Continuous
 62
     7
370
     0
100
AcDbLine
 10
65.2897741398
 20
86.799396318
 30
0.0
 11
35.0665544354
 21
86.799396318
 31
0.0
  0
LINE
  5
1CB
330
1C5
100
AcDbEntity
  8
0
  6
Continuous
 62
     7
370
     0
100
AcDbLine
 10
63.5665544354
 20
54.1029049678
 30
0.0
 11
35.0665544354
 21
54.1029049678
 31
0.0
  0
LINE
  5
1CC
330
1C5
100
AcDbEntity
  8
0
  6
Continuous
 62
     7
370
     0
100
AcDbLine
 10
36.0665544354
 20
86.799396318
 30
0.0
 11
36.0665544354
 21
54.1029049678
 31
0.0
  0
MTEXT
  5
1CD
330
1C5
100
AcDbEntity
  8
0
  6
Continuous
 62
     7
370
     0
100
AcDbMText
 10
31.5548175208
 20
64.9563254843
 30
1.0
 40
3.5
 41
0.0
 71
     1
 72
     1
  1
3.27
  7
SLDTEXTSTYLE0
 11
-7.044195017643634E-15
 21
1.0
 31
0.0
 73
     1
 44
1.0
  0
ENDBLK
  5
1C7
330
1C5
100
AcDbEntity
  8
0
100
AcDbBlockEnd
  0
BLOCK
  5
1D0
330
1CF
100
AcDbEntity
  8
0
100
AcDbBlockBegin
  2
_D_16
 70
     0
 10
0.0
 20
0.0
 30
0.0
  3
_D_16
  1

  0
SOLID
  5
1D2
330
1CF
100
AcDbEntity
  8
0
  6
Continuous
 62
     7
370
     0
100
AcDbTrace
 10
58.0665544354
 20
21.4050337921
 30
0.0
 11
61.3685544354
 21
20.8970337921
 31
0.0
 12
61.3685544354
 22
21.9130337921
 32
0.0
 13
61.3685544354
 23
21.9130337921
 33
0.0
  0
SOLID
  5
1D3
330
1CF
100
AcDbEntity
  8
0
  6
Continuous
 62
     7
370
     0
100
AcDbTrace
 10
113.3382831827
 20
21.4050337921
 30
0.0
 11
110.0362831827
 21
21.9130337921
 31
0.0
 12
110.0362831827
 22
20.8970337921
 32
0.0
 13
110.0362831827
 23
20.8970337921
 33
0.0
  0
LINE
  5
1D4
330
1CF
100
AcDbEntity
  8
0
  6
Continuous
 62
     7
370
     0
100
AcDbLine
 10
58.0665544354
 20
59.6029049678
 30
0.0
 11
58.0665544354
 21
20.4050337921
 31
0.0
  0
LINE
  5
1D5
330
1CF
100
AcDbEntity
  8
0
  6
Continuous
 62
     7
370
     0
100
AcDbLine
 10
113.3382831827
 20
45.6029049678
 30
0.0
 11
113.3382831827
 21
20.4050337921
 31
0.0
  0
LINE
  5
1D6
330
1CF
100
AcDbEntity
  8
0
  6
Continuous
 62
     7
370
     0
100
AcDbLine
 10
58.0665544354
 20
21.4050337921
 30
0.0
 11
113.3382831827
 21
21.4050337921
 31
0.0
  0
MTEXT
  5
1D7
330
1CF
100
AcDbEntity
  8
0
  6
Continuous
 62
     7
370
     0
100
AcDbMText
 10
80.6308627218
 20
25.9167707067
 30
1.0
 40
3.5
 41
0.0
 71
     1
 72
     1
  1
5.53
  7
SLDTEXTSTYLE0
 73
     1
 44
1.0
  0
ENDBLK
  5
1D1
330
1CF
100
AcDbEntity
  8
0
100
AcDbBlockEnd
  0
BLOCK
  5
1DA
330
1D9
100
AcDbEntity
  8
0
100
AcDbBlockBegin
  2
_D_17
 70
     0
 10
0.0
 20
0.0
 30
0.0
  3
_D_17
  1

  0
SOLID
  5
1DC
330
1D9
100
AcDbEntity
  8
0
  6
Continuous
 62
     7
370
     0
100
AcDbTrace
 10
120.7362714305
 20
15.2511752781
 30
0.0
 11
117.4342714305
 21
15.7591752781
 31
0.0
 12
117.4342714305
 22
14.7431752781
 32
0.0
 13
117.4342714305
 23
14.7431752781
 33
0.0
  0
SOLID
  5
1DD
330
1D9
100
AcDbEntity
  8
0
  6
Continuous
 62
     7
370
     0
100
AcDbTrace
 10
58.0665544354
 20
15.2511752781
 30
0.0
 11
61.3685544354
 21
14.7431752781
 31
0.0
 12
61.3685544354
 22
15.7591752781
 32
0.0
 13
61.3685544354
 23
15.7591752781
 33
0.0
  0
LINE
  5
1DE
330
1D9
100
AcDbEntity
  8
0
  6
Continuous
 62
     7
370
     0
100
AcDbLine
 10
120.7362714305
 20
75.1046213493
 30
0.0
 11
120.7362714305
 21
14.2511752781
 31
0.0
  0
LINE
  5
1DF
330
1D9
100
AcDbEntity
  8
0
  6
Continuous
 62
     7
370
     0
100
AcDbLine
 10
58.0665544354
 20
59.6029049678
 30
0.0
 11
58.0665544354
 21
14.2511752781
 31
0.0
  0
LINE
  5
1E0
330
1D9
100
AcDbEntity
  8
0
  6
Continuous
 62
     7
370
     0
100
AcDbLine
 10
120.7362714305
 20
15.2511752781
 30
0.0
 11
58.0665544354
 21
15.2511752781
 31
0.0
  0
MTEXT
  5
1E1
330
1D9
100
AcDbEntity
  8
0
  6
Continuous
 62
     7
370
     0
100
AcDbMText
 10
80.6308627218
 20
19.7629121927
 30
1.0
 40
3.5
 41
0.0
 71
     1
 72
     1
  1
6.27
  7
SLDTEXTSTYLE0
 73
     1
 44
1.0
  0
ENDBLK
  5
1DB
330
1D9
100
AcDbEntity
  8
0
100
AcDbBlockEnd
  0
BLOCK
  5
1E5
330
1E4
100
AcDbEntity
  8
0
100
AcDbBlockBegin
  2
_D_18
 70
     0
 10
0.0
 20
0.0
 30
0.0
  3
_D_18
  1

  0
SOLID
  5
1E7
330
1E4
100
AcDbEntity
  8
0
  6
Continuous
 62
     7
370
     0
100
AcDbTrace
 10
109.3382831827
 20
36.6029049678
 30
0.0
 11
106.0362831827
 21
37.1109049678
 31
0.0
 12
106.0362831827
 22
36.0949049678
 32
0.0
 13
106.0362831827
 23
36.0949049678
 33
0.0
  0
SOLID
  5
1E8
330
1E4
100
AcDbEntity
  8
0
  6
Continuous
 62
     7
370
     0
100
AcDbTrace
 10
113.3382831827
 20
36.6029049678
 30
0.0
 11
116.6402831827
 21
36.0949049678
 31
0.0
 12
116.6402831827
 22
37.1109049678
 32
0.0
 13
116.6402831827
 23
37.1109049678
 33
0.0
  0
LINE
  5
1E9
330
1E4
100
AcDbEntity
  8
0
  6
Continuous
 62
     7
370
     0
100
AcDbLine
 10
109.3382831827
 20
45.6029049678
 30
0.0
 11
109.3382831827
 21
35.6029049678
 31
0.0
  0
LINE
  5
1EA
330
1E4
100
AcDbEntity
  8
0
  6
Continuous
 62
     7
370
     0
100
AcDbLine
 10
113.3382831827
 20
45.6029049678
 30
0.0
 11
113.3382831827
 21
35.6029049678
 31
0.0
  0
LINE
  5
1EB
330
1E4
100
AcDbEntity
  8
0
  6
Continuous
 62
     7
370
     0
100
AcDbLine
 10
109.3382831827
 20
36.6029049678
 30
0.0
 11
90.7237275673
 21
36.6029049678
 31
0.0
  0
LINE
  5
1EC
330
1E4
100
AcDbEntity
  8
0
  6
Continuous
 62
     7
370
     0
100
AcDbLine
 10
109.3382831827
 20
36.6029049678
 30
0.0
 11
113.3382831827
 21
36.6029049678
 31
0.0
  0
LINE
  5
1ED
330
1E4
100
AcDbEntity
  8
0
  6
Continuous
 62
     7
370
     0
100
AcDbLine
 10
113.3382831827
 20
36.6029049678
 30
0.0
 11
119.6882831827
 21
36.6029049678
 31
0.0
  0
MTEXT
  5
1EE
330
1E4
100
AcDbEntity
  8
0
  6
Continuous
 62
     7
370
     0
100
AcDbMText
 10
90.7237275673
 20
41.1146418824
 30
-49.0
 40
3.5
 41
0.0
 71
     1
 72
     1
  1
0.40
  7
SLDTEXTSTYLE0
 73
     1
 44
1.0
  0
ENDBLK
  5
1E6
330
1E4
100
AcDbEntity
  8
0
100
AcDbBlockEnd
  0
BLOCK
  5
1F1
330
1F0
100
AcDbEntity
  8
0
100
AcDbBlockBegin
  2
_D_19
 70
     0
 10
0.0
 20
0.0
 30
0.0
  3
_D_19
  1

  0
SOLID
  5
1F3
330
1F0
100
AcDbEntity
  8
0
  6
Continuous
 62
     7
370
     0
100
AcDbTrace
 10
113.3382831827
 20
30.6029049678
 30
0.0
 11
116.6402831827
 21
30.0949049678
 31
0.0
 12
116.6402831827
 22
31.1109049678
 32
0.0
 13
116.6402831827
 23
31.1109049678
 33
0.0
  0
SOLID
  5
1F4
330
1F0
100
AcDbEntity
  8
0
  6
Continuous
 62
     7
370
     0
100
AcDbTrace
 10
106.8382831828
 20
30.6029049678
 30
0.0
 11
103.5362831828
 21
31.1109049678
 31
0.0
 12
103.5362831828
 22
30.0949049678
 32
0.0
 13
103.5362831828
 23
30.0949049678
 33
0.0
  0
LINE
  5
1F5
330
1F0
100
AcDbEntity
  8
0
  6
Continuous
 62
     7
370
     0
100
AcDbLine
 10
113.3382831827
 20
45.6029049678
 30
0.0
 11
113.3382831827
 21
29.6029049678
 31
0.0
  0
LINE
  5
1F6
330
1F0
100
AcDbEntity
  8
0
  6
Continuous
 62
     7
370
     0
100
AcDbLine
 10
106.8382831827
 20
52.236879564
 30
0.0
 11
106.8382831828
 21
29.6029049678
 31
0.0
  0
LINE
  5
1F7
330
1F0
100
AcDbEntity
  8
0
  6
Continuous
 62
     7
370
     0
100
AcDbLine
 10
113.3382831827
 20
30.6029049678
 30
0.0
 11
119.6882831827
 21
30.6029049678
 31
0.0
  0
LINE
  5
1F8
330
1F0
100
AcDbEntity
  8
0
  6
Continuous
 62
     7
370
     0
100
AcDbLine
 10
113.3382831827
 20
30.6029049678
 30
0.0
 11
106.8382831828
 21
30.6029049678
 31
0.0
  0
LINE
  5
1F9
330
1F0
100
AcDbEntity
  8
0
  6
Continuous
 62
     7
370
     0
100
AcDbLine
 10
106.8382831828
 20
30.6029049678
 30
0.0
 11
90.7237275673
 21
30.6029049678
 31
0.0
  0
MTEXT
  5
1FA
330
1F0
100
AcDbEntity
  8
0
  6
Continuous
 62
     7
370
     0
100
AcDbMText
 10
90.7237275673
 20
35.1146418824
 30
-49.0
 40
3.5
 41
0.0
 71
     1
 72
     1
  1
0.65
  7
SLDTEXTSTYLE0
 73
     1
 44
1.0
  0
ENDBLK
  5
1F2
330
1F0
100
AcDbEntity
  8
0
100
AcDbBlockEnd
  0
BLOCK
  5
1FE
330
1FD
100
AcDbEntity
  8
0
100
AcDbBlockBegin
  2
_D_20
 70
     0
 10
0.0
 20
0.0
 30
0.0
  3
_D_20
  1

  0
ARC
  5
200
330
1FD
100
AcDbEntity
  8
0
  6
Continuous
 62
     7
370
     0
100
AcDbCircle
 10
57.8230038325
 20
58.1029049678
 30
0.0
 40
16.39992518900441
100
AcDbArc
 50
85.0
 51
180.0
  0
SOLID
  5
201
330
1FD
100
AcDbEntity
  8
0
  6
Continuous
 62
     7
370
     0
100
AcDbTrace
 10
59.2523514934
 20
74.4404234902
 30
0.0
 11
55.9444575502
 21
74.9085107261
 31
0.0
 12
55.9567270027
 22
73.8925848132
 32
0.0
 13
55.9567270027
 23
73.8925848132
 33
0.0
  0
SOLID
  5
202
330
1FD
100
AcDbEntity
  8
0
  6
Continuous
 62
     7
370
     0
100
AcDbTrace
 10
41.4230786435
 20
58.1029049678
 30
0.0
 11
42.2560652293
 21
61.3382413256
 31
0.0
 12
41.2450745745
 22
61.4390078666
 32
0.0
 13
41.2450745745
 23
61.4390078666
 33
0.0
  0
LINE
  5
203
330
1FD
100
AcDbEntity
  8
0
  6
Continuous
 62
     7
370
     0
100
AcDbLine
 10
63.5665544354
 20
58.1029049678
 30
0.0
 11
40.4230786435
 21
58.1029049678
 31
0.0
  0
MTEXT
  5
204
330
1FD
100
AcDbEntity
  8
0
  6
Continuous
 62
     7
370
     0
100
AcDbMText
 10
37.1843651171
 20
64.0829420172
 30
-49.0
 40
3.5
 41
0.0
 71
     1
 72
     1
  1
95°
  7
SLDTEXTSTYLE0
 11
0.4917210659964386
 21
0.8707527739004488
 31
0.0
 73
     1
 44
1.0
  0
ENDBLK
  5
1FF
330
1FD
100
AcDbEntity
  8
0
100
AcDbBlockEnd
  0
BLOCK
  5
207
330
206
100
AcDbEntity
  8
0
100
AcDbBlockBegin
  2
_D_21
 70
     0
 10
0.0
 20
0.0
 30
0.0
  3
_D_21
  1

  0
ARC
  5
209
330
206
100
AcDbEntity
  8
0
  6
Continuous
 62
     7
370
     0
100
AcDbCircle
 10
64.3657997224
 20
86.9925512125
 30
0.0
 40
11.86378731725716
100
AcDbArc
 50
355.0
 51
85.0
  0
SOLID
  5
20A
330
206
100
AcDbEntity
  8
0
  6
Continuous
 62
     7
370
     0
100
AcDbTrace
 10
76.1844417471
 20
85.958554017
 30
0.0
 11
76.5318884809
 21
89.2812861409
 31
0.0
 12
75.5170812884
 22
89.2320686448
 32
0.0
 13
75.5170812884
 23
89.2320686448
 33
0.0
  0
SOLID
  5
20B
330
206
100
AcDbEntity
  8
0
  6
Continuous
 62
     7
370
     0
100
AcDbTrace
 10
65.3997969178
 20
98.8111932372
 30
0.0
 11
68.5076935753
 21
97.5855316337
 31
0.0
 12
68.7323827668
 22
98.5763750962
 32
0.0
 13
68.7323827668
 23
98.5763750962
 33
0.0
  0
LINE
  5
20C
330
206
100
AcDbEntity
  8
0
  6
Continuous
 62
     7
370
     0
100
AcDbLine
 10
63.8864431373
 20
81.513480373
 30
0.0
 11
65.4869526606
 21
99.8073879353
 31
0.0
  0
MTEXT
  5
20D
330
206
100
AcDbEntity
  8
0
  6
Continuous
 62
     7
370
     0
100
AcDbMText
 10
77.5581912255
 20
97.8799402245
 30
-49.0
 40
3.5
 41
0.0
 71
     1
 72
     1
  1
90°
  7
SLDTEXTSTYLE0
 11
0.3865644682093052
 21
-0.92226238778238
 31
0.0
 73
     1
 44
1.0
  0
ENDBLK
  5
208
330
206
100
AcDbEntity
  8
0
100
AcDbBlockEnd
  0
BLOCK
  5
211
330
210
100
AcDbEntity
  8
0
100
AcDbBlockBegin
  2
_D_22
 70
     0
 10
0.0
 20
0.0
 30
0.0
  3
_D_22
  1

  0
ARC
  5
213
330
210
100
AcDbEntity
  8
0
  6
Continuous
 62
     7
370
     0
100
AcDbCircle
 10
113.3382831827
 20
58.1029049678
 30
0.0
 40
8.786651283317013
100
AcDbArc
 50
180.0
 51
270.0
  0
ARC
  5
214
330
210
100
AcDbEntity
  8
0
  6
Continuous
 62
     7
370
     0
100
AcDbCircle
 10
113.3382831827
 20
58.1029049678
 30
0.0
 40
8.786651283317019
100
AcDbArc
 50
140.7670905172
 51
180.0
  0
ARC
  5
215
330
210
100
AcDbEntity
  8
0
  6
Continuous
 62
     7
370
     0
100
AcDbCircle
 10
113.3382831827
 20
58.1029049678
 30
0.0
 40
8.786651283317013
100
AcDbArc
 50
270.0
 51
309.2329094828
  0
SOLID
  5
216
330
210
100
AcDbEntity
  8
0
  6
Continuous
 62
     7
370
     0
100
AcDbTrace
 10
104.5516318994
 20
58.1029049678
 30
0.0
 11
105.641742538
 21
61.2608990773
 31
0.0
 12
104.6421091345
 22
61.442527981
 32
0.0
 13
104.6421091345
 23
61.442527981
 33
0.0
  0
SOLID
  5
217
330
210
100
AcDbEntity
  8
0
  6
Continuous
 62
     7
370
     0
100
AcDbTrace
 10
113.3382831827
 20
49.3162536845
 30
0.0
 11
116.6779061959
 21
49.4067309196
 31
0.0
 12
116.4962772922
 22
50.4063643231
 32
0.0
 13
116.4962772922
 23
50.4063643231
 33
0.0
  0
LINE
  5
218
330
210
100
AcDbEntity
  8
0
  6
Continuous
 62
     7
370
     0
100
AcDbLine
 10
107.1251824764
 20
51.8898042615
 30
0.0
 11
122.7657875798
 21
53.4800691142
 31
0.0
  0
LINE
  5
219
330
210
100
AcDbEntity
  8
0
  6
Continuous
 62
     7
370
     0
100
AcDbLine
 10
122.7657875798
 20
53.4800691142
 30
0.0
 11
132.648426742
 21
53.4800691142
 31
0.0
  0
MTEXT
  5
21A
330
210
100
AcDbEntity
  8
0
  6
Continuous
 62
     7
370
     0
100
AcDbMText
 10
122.7657875798
 20
57.9918060288
 30
-49.0
 40
3.5
 41
0.0
 71
     1
 72
     1
  1
90°
  7
SLDTEXTSTYLE0
 73
     1
 44
1.0
  0
ENDBLK
  5
212
330
210
100
AcDbEntity
  8
0
100
AcDbBlockEnd
  0
BLOCK
  5
21E
330
21D
100
AcDbEntity
  8
0
100
AcDbBlockBegin
  2
_D_23
 70
     0
 10
0.0
 20
0.0
 30
0.0
  3
_D_23
  1

  0
ARC
  5
220
330
21D
100
AcDbEntity
  8
0
  6
Continuous
 62
     7
370
     0
100
AcDbCircle
 10
116.4329516042
 20
69.1029049678
 30
0.0
 40
7.515175388787836
100
AcDbArc
 50
180.0
 51
267.5
  0
ARC
  5
221
330
21D
100
AcDbEntity
  8
0
  6
Continuous
 62
     7
370
     0
100
AcDbCircle
 10
116.4329516042
 20
69.1029049678
 30
0.0
 40
7.515175388787824
100
AcDbArc
 50
134.9801195132
 51
180.0
  0
ARC
  5
222
330
21D
100
AcDbEntity
  8
0
  6
Continuous
 62
     7
370
     0
100
AcDbCircle
 10
116.4329516042
 20
69.1029049678
 30
0.0
 40
7.515175388787836
100
AcDbArc
 50
267.5
 51
312.5198804868
  0
SOLID
  5
223
330
21D
100
AcDbEntity
  8
0
  6
Continuous
 62
     7
370
     0
100
AcDbTrace
 10
108.9177762154
 20
69.1029049678
 30
0.0
 11
110.0935515837
 21
72.2300155004
 31
0.0
 12
109.0992397302
 22
72.4388214825
 32
0.0
 13
109.0992397302
 23
72.4388214825
 33
0.0
  0
SOLID
  5
224
330
21D
100
AcDbEntity
  8
0
  6
Continuous
 62
     7
370
     0
100
AcDbTrace
 10
116.1051442578
 20
61.5948823608
 30
0.0
 11
119.4458010464
 21
61.6306625279
 31
0.0
 12
119.2805650753
 22
62.6331360058
 32
0.0
 13
119.2805650753
 23
62.6331360058
 33
0.0
  0
LINE
  5
225
330
21D
100
AcDbEntity
  8
0
  6
Continuous
 62
     7
370
     0
100
AcDbLine
 10
116.4937234151
 20
70.4948082778
 30
0.0
 11
116.0615248704
 21
60.5958341392
 31
0.0
  0
LINE
  5
226
330
21D
100
AcDbEntity
  8
0
  6
Continuous
 62
     7
370
     0
100
AcDbLine
 10
111.0042597347
 20
63.90606307
 30
0.0
 11
126.8762894392
 21
64.7809955549
 31
0.0
  0
LINE
  5
227
330
21D
100
AcDbEntity
  8
0
  6
Continuous
 62
     7
370
     0
100
AcDbLine
 10
126.8762894392
 20
64.7809955549
 30
0.0
 11
143.224206236
 21
64.7809955549
 31
0.0
  0
MTEXT
  5
228
330
21D
100
AcDbEntity
  8
0
  6
Continuous
 62
     7
370
     0
100
AcDbMText
 10
126.8762894392
 20
69.2927324695
 30
-49.0
 40
3.5
 41
0.0
 71
     1
 72
     1
  1
87.50°
  7
SLDTEXTSTYLE0
 73
     1
 44
1.0
  0
ENDBLK
  5
21F
330
21D
100
AcDbEntity
  8
0
100
AcDbBlockEnd
  0
BLOCK
  5
22C
330
22B
100
AcDbEntity
  8
0
100
AcDbBlockBegin
  2
_D_24
 70
     0
 10
0.0
 20
0.0
 30
0.0
  3
_D_24
  1

  0
ARC
  5
22E
330
22B
100
AcDbEntity
  8
0
  6
Continuous
 62
     7
370
     0
100
AcDbCircle
 10
116.8382831827
 20
78.3865244125
 30
0.0
 40
5.948622395704589
100
AcDbArc
 50
267.5
 51
355.0
  0
ARC
  5
22F
330
22B
100
AcDbEntity
  8
0
  6
Continuous
 62
     7
370
     0
100
AcDbCircle
 10
116.8382831827
 20
78.3865244125
 30
0.0
 40
5.948622395704577
100
AcDbArc
 50
212.8271579908
 51
267.5
  0
ARC
  5
230
330
22B
100
AcDbEntity
  8
0
  6
Continuous
 62
     7
370
     0
100
AcDbCircle
 10
116.8382831827
 20
78.3865244125
 30
0.0
 40
5.948622395704589
100
AcDbArc
 50
355.0
 51
49.6728420092
  0
SOLID
  5
231
330
22B
100
AcDbEntity
  8
0
  6
Continuous
 62
     7
370
     0
100
AcDbTrace
 10
116.5788079182
 20
72.4435637872
 30
0.0
 11
113.5700459627
 21
73.8956724248
 31
0.0
 12
113.2727075031
 22
72.924155137
 32
0.0
 13
113.2727075031
 23
72.924155137
 33
0.0
  0
SOLID
  5
232
330
22B
100
AcDbEntity
  8
0
  6
Continuous
 62
     7
370
     0
100
AcDbTrace
 10
122.7642692743
 20
77.8680678092
 30
0.0
 11
122.7193221483
 21
81.2086138359
 31
0.0
 12
121.7173058687
 22
81.0406276002
 32
0.0
 13
121.7173058687
 23
81.0406276002
 33
0.0
  0
LINE
  5
233
330
22B
100
AcDbEntity
  8
0
  6
Continuous
 62
     7
370
     0
100
AcDbLine
 10
115.4503554854
 20
78.5079523518
 30
0.0
 11
123.7604639724
 21
77.7809120665
 31
0.0
  0
LINE
  5
234
330
22B
100
AcDbEntity
  8
0
  6
Continuous
 62
     7
370
     0
100
AcDbLine
 10
120.7604824649
 20
73.9141132957
 30
0.0
 11
126.9998430833
 21
76.0653961301
 31
0.0
  0
LINE
  5
235
330
22B
100
AcDbEntity
  8
0
  6
Continuous
 62
     7
370
     0
100
AcDbLine
 10
126.9998430833
 20
76.0653961301
 30
0.0
 11
143.3477598801
 21
76.0653961301
 31
0.0
  0
MTEXT
  5
236
330
22B
100
AcDbEntity
  8
0
  6
Continuous
 62
     7
370
     0
100
AcDbMText
 10
126.9998430833
 20
80.5771330446
 30
-49.0
 40
3.5
 41
0.0
 71
     1
 72
     1
  1
87.50°
  7
SLDTEXTSTYLE0
 73
     1
 44
1.0
  0
ENDBLK
  5
22D
330
22B
100
AcDbEntity
  8
0
100
AcDbBlockEnd
  0
BLOCK
  5
239
330
238
100
AcDbEntity
  8
0
100
AcDbBlockBegin
  2
_D_25
 70
     0
 10
0.0
 20
0.0
 30
0.0
  3
_D_25
  1

  0
SOLID
  5
23B
330
238
100
AcDbEntity
  8
0
  6
Continuous
 62
     7
370
     0
100
AcDbTrace
 10
106.8382831827
 20
27.4334348493
 30
0.0
 11
103.5362831827
 21
27.9414348493
 31
0.0
 12
103.5362831827
 22
26.9254348493
 32
0.0
 13
103.5362831827
 23
26.9254348493
 33
0.0
  0
SOLID
  5
23C
330
238
100
AcDbEntity
  8
0
  6
Continuous
 62
     7
370
     0
100
AcDbTrace
 10
64.5665544354
 20
27.4334348493
 30
0.0
 11
67.8685544354
 21
26.9254348493
 31
0.0
 12
67.8685544354
 22
27.9414348493
 32
0.0
 13
67.8685544354
 23
27.9414348493
 33
0.0
  0
LINE
  5
23D
330
238
100
AcDbEntity
  8
0
  6
Continuous
 62
     7
370
     0
100
AcDbLine
 10
106.8382831827
 20
48.7727779489
 30
0.0
 11
106.8382831827
 21
26.4334348493
 31
0.0
  0
LINE
  5
23E
330
238
100
AcDbEntity
  8
0
  6
Continuous
 62
     7
370
     0
100
AcDbLine
 10
64.5665544354
 20
53.1029049678
 30
0.0
 11
64.5665544354
 21
26.4334348493
 31
0.0
  0
LINE
  5
23F
330
238
100
AcDbEntity
  8
0
  6
Continuous
 62
     7
370
     0
100
AcDbLine
 10
106.8382831827
 20
27.4334348493
 30
0.0
 11
64.5665544354
 21
27.4334348493
 31
0.0
  0
MTEXT
  5
240
330
238
100
AcDbEntity
  8
0
  6
Continuous
 62
     7
370
     0
100
AcDbMText
 10
80.6308627218
 20
31.9451717639
 30
-49.0
 40
3.5
 41
0.0
 71
     1
 72
     1
  1
4.23
  7
SLDTEXTSTYLE0
 73
     1
 44
1.0
  0
ENDBLK
  5
23A
330
238
100
AcDbEntity
  8
0
100
AcDbBlockEnd
  0
BLOCK
  5
243
330
242
100
AcDbEntity
  8
0
100
AcDbBlockBegin
  2
_D_26
 70
     0
 10
0.0
 20
0.0
 30
0.0
  3
_D_26
  1

  0
SOLID
  5
245
330
242
100
AcDbEntity
  8
0
  6
Continuous
 62
     7
370
     0
100
AcDbTrace
 10
109.3382831827
 20
41.9843203395
 30
0.0
 11
112.6402831827
 21
41.4763203395
 31
0.0
 12
112.6402831827
 22
42.4923203395
 32
0.0
 13
112.6402831827
 23
42.4923203395
 33
0.0
  0
SOLID
  5
246
330
242
100
AcDbEntity
  8
0
  6
Continuous
 62
     7
370
     0
100
AcDbTrace
 10
106.8382831827
 20
41.9843203395
 30
0.0
 11
103.5362831827
 21
42.4923203395
 31
0.0
 12
103.5362831827
 22
41.4763203395
 32
0.0
 13
103.5362831827
 23
41.4763203395
 33
0.0
  0
LINE
  5
247
330
242
100
AcDbEntity
  8
0
  6
Continuous
 62
     7
370
     0
100
AcDbLine
 10
109.3382831827
 20
45.6029049678
 30
0.0
 11
109.3382831827
 21
40.9843203395
 31
0.0
  0
LINE
  5
248
330
242
100
AcDbEntity
  8
0
  6
Continuous
 62
     7
370
     0
100
AcDbLine
 10
106.8382831827
 20
48.7727779489
 30
0.0
 11
106.8382831827
 21
40.9843203395
 31
0.0
  0
LINE
  5
249
330
242
100
AcDbEntity
  8
0
  6
Continuous
 62
     7
370
     0
100
AcDbLine
 10
109.3382831827
 20
41.9843203395
 30
0.0
 11
115.6882831827
 21
41.9843203395
 31
0.0
  0
LINE
  5
24A
330
242
100
AcDbEntity
  8
0
  6
Continuous
 62
     7
370
     0
100
AcDbLine
 10
109.3382831827
 20
41.9843203395
 30
0.0
 11
106.8382831827
 21
41.9843203395
 31
0.0
  0
LINE
  5
24B
330
242
100
AcDbEntity
  8
0
  6
Continuous
 62
     7
370
     0
100
AcDbLine
 10
106.8382831827
 20
41.9843203395
 30
0.0
 11
91.0989182551
 21
41.9843203395
 31
0.0
  0
MTEXT
  5
24C
330
242
100
AcDbEntity
  8
0
  6
Continuous
 62
     7
370
     0
100
AcDbMText
 10
91.0989182551
 20
46.4960572541
 30
-49.0
 40
3.5
 41
0.0
 71
     1
 72
     1
  1
0.25
  7
SLDTEXTSTYLE0
 73
     1
 44
1.0
  0
ENDBLK
  5
244
330
242
100
AcDbEntity
  8
0
100
AcDbBlockEnd
  0
BLOCK
  5
28F
330
28E
100
AcDbEntity
  8
0
100
AcDbBlockBegin
  2
_D_27
 70
     0
 10
0.0
 20
0.0
 30
0.0
  3
_D_27
  1

  0
ARC
  5
291
330
28E
100
AcDbEntity
  8
0
  6
Continuous
 62
     7
370
     0
100
AcDbCircle
 10
290.4702679148
 20
65.1029049678
 30
0.0
 40
25.09897471021009
100
AcDbArc
 50
0.0
 51
30.0
  0
SOLID
  5
292
330
28E
100
AcDbEntity
  8
0
  6
Continuous
 62
     7
370
     0
100
AcDbTrace
 10
315.569242625
 20
65.1029049678
 30
0.0
 11
315.8603465035
 21
68.4310465712
 31
0.0
 12
314.8465187902
 22
68.364643501
 32
0.0
 13
314.8465187902
 23
68.364643501
 33
0.0
  0
SOLID
  5
293
330
28E
100
AcDbEntity
  8
0
  6
Continuous
 62
     7
370
     0
100
AcDbTrace
 10
312.2066176228
 20
77.6523923229
 30
0.0
 11
313.2115896885
 21
74.4662819753
 31
0.0
 12
314.1227917784
 22
74.9156890863
 32
0.0
 13
314.1227917784
 23
74.9156890863
 33
0.0
  0
LINE
  5
294
330
28E
100
AcDbEntity
  8
0
  6
Continuous
 62
     7
370
     0
100
AcDbLine
 10
289.728598164
 20
65.1029049678
 30
0.0
 11
316.569242625
 21
65.1029049678
 31
0.0
  0
LINE
  5
295
330
28E
100
AcDbEntity
  8
0
  6
Continuous
 62
     7
370
     0
100
AcDbLine
 10
299.7644965488
 20
70.4689303716
 30
0.0
 11
313.0726430265
 21
78.1523923229
 31
0.0
  0
MTEXT
  5
296
330
28E
100
AcDbEntity
  8
0
  6
Continuous
 62
     7
370
     0
100
AcDbMText
 10
318.1548924694
 20
76.7120584856
 30
-202.2828344729
 40
3.5
 41
0.0
 71
     1
 72
     1
  1
30°
  7
SLDTEXTSTYLE0
 11
0.2296429434212877
 21
-0.9732749449856434
 31
0.0
 73
     1
 44
1.0
  0
ENDBLK
  5
290
330
28E
100
AcDbEntity
  8
0
100
AcDbBlockEnd
  0
BLOCK
  5
299
330
298
100
AcDbEntity
  8
0
100
AcDbBlockBegin
  2
_D_28
 70
     0
 10
0.0
 20
0.0
 30
0.0
  3
_D_28
  1

  0
ARC
  5
29B
330
298
100
AcDbEntity
  8
0
  6
Continuous
 62
     7
370
     0
100
AcDbCircle
 10
290.4702679148
 20
58.1029049678
 30
0.0
 40
25.17492327890272
100
AcDbArc
 50
330.0
 51
0.0
  0
SOLID
  5
29C
330
298
100
AcDbEntity
  8
0
  6
Continuous
 62
     7
370
     0
100
AcDbTrace
 10
312.2723910126
 20
45.5154433284
 30
0.0
 11
314.1890990074
 21
48.2517727059
 31
0.0
 12
313.2779846052
 22
48.7013575655
 32
0.0
 13
313.2779846052
 23
48.7013575655
 33
0.0
  0
SOLID
  5
29D
330
298
100
AcDbEntity
  8
0
  6
Continuous
 62
     7
370
     0
100
AcDbTrace
 10
315.6451911937
 20
58.1029049678
 30
0.0
 11
314.9231036721
 21
54.8410255079
 31
0.0
 12
315.93694432
 22
54.7748202163
 32
0.0
 13
315.93694432
 23
54.7748202163
 33
0.0
  0
LINE
  5
29E
330
298
100
AcDbEntity
  8
0
  6
Continuous
 62
     7
370
     0
100
AcDbLine
 10
299.7644965488
 20
52.736879564
 30
0.0
 11
313.1384164164
 21
45.0154433284
 31
0.0
  0
LINE
  5
29F
330
298
100
AcDbEntity
  8
0
  6
Continuous
 62
     7
370
     0
100
AcDbLine
 10
289.728598164
 20
58.1029049678
 30
0.0
 11
316.6451911937
 21
58.1029049678
 31
0.0
  0
MTEXT
  5
2A0
330
298
100
AcDbEntity
  8
0
  6
Continuous
 62
     7
370
     0
100
AcDbMText
 10
309.3259973619
 20
48.3128397512
 30
-202.2828344729
 40
3.5
 41
0.0
 71
     1
 72
     1
  1
30°
  7
SLDTEXTSTYLE0
 11
0.2417493281370393
 21
0.9703387358779871
 31
0.0
 73
     1
 44
1.0
  0
ENDBLK
  5
29A
330
298
100
AcDbEntity
  8
0
100
AcDbBlockEnd
  0
BLOCK
  5
2A3
330
2A2
100
AcDbEntity
  8
0
100
AcDbBlockBegin
  2
_D_29
 70
     0
 10
0.0
 20
0.0
 30
0.0
  3
_D_29
  1

  0
SOLID
  5
2A5
330
2A2
100
AcDbEntity
  8
0
  6
Continuous
 62
     7
370
     0
100
AcDbTrace
 10
224.978598164
 20
36.7893287508
 30
0.0
 11
228.280598164
 21
36.2813287508
 31
0.0
 12
228.280598164
 22
37.2973287508
 32
0.0
 13
228.280598164
 23
37.2973287508
 33
0.0
  0
SOLID
  5
2A6
330
2A2
100
AcDbEntity
  8
0
  6
Continuous
 62
     7
370
     0
100
AcDbTrace
 10
252.478598164
 20
36.7893287508
 30
0.0
 11
249.176598164
 21
37.2973287508
 31
0.0
 12
249.176598164
 22
36.2813287508
 32
0.0
 13
249.176598164
 23
36.2813287508
 33
0.0
  0
LINE
  5
2A7
330
2A2
100
AcDbEntity
  8
0
  6
Continuous
 62
     7
370
     0
100
AcDbLine
 10
224.978598164
 20
45.6029049678
 30
0.0
 11
224.978598164
 21
35.7893287508
 31
0.0
  0
LINE
  5
2A8
330
2A2
100
AcDbEntity
  8
0
  6
Continuous
 62
     7
370
     0
100
AcDbLine
 10
252.478598164
 20
45.6029049678
 30
0.0
 11
252.478598164
 21
35.7893287508
 31
0.0
  0
LINE
  5
2A9
330
2A2
100
AcDbEntity
  8
0
  6
Continuous
 62
     7
370
     0
100
AcDbLine
 10
224.978598164
 20
36.7893287508
 30
0.0
 11
252.478598164
 21
36.7893287508
 31
0.0
  0
MTEXT
  5
2AA
330
2A2
100
AcDbEntity
  8
0
  6
Continuous
 62
     7
370
     0
100
AcDbMText
 10
233.0337122781
 20
41.3010656653
 30
-202.2828344729
 40
3.5
 41
0.0
 71
     1
 72
     1
  1
2.75
  7
SLDTEXTSTYLE0
 73
     1
 44
1.0
  0
ENDBLK
  5
2A4
330
2A2
100
AcDbEntity
  8
0
100
AcDbBlockEnd
  0
BLOCK
  5
2AD
330
2AC
100
AcDbEntity
  8
0
100
AcDbBlockBegin
  2
_D_30
 70
     0
 10
0.0
 20
0.0
 30
0.0
  3
_D_30
  1

  0
SOLID
  5
2AF
330
2AC
100
AcDbEntity
  8
0
  6
Continuous
 62
     7
370
     0
100
AcDbTrace
 10
188.728598164
 20
30.6029049678
 30
0.0
 11
192.030598164
 21
30.0949049678
 31
0.0
 12
192.030598164
 22
31.1109049678
 32
0.0
 13
192.030598164
 23
31.1109049678
 33
0.0
  0
SOLID
  5
2B0
330
2AC
100
AcDbEntity
  8
0
  6
Continuous
 62
     7
370
     0
100
AcDbTrace
 10
288.728598164
 20
30.6029049678
 30
0.0
 11
285.426598164
 21
31.1109049678
 31
0.0
 12
285.426598164
 22
30.0949049678
 32
0.0
 13
285.426598164
 23
30.0949049678
 33
0.0
  0
LINE
  5
2B1
330
2AC
100
AcDbEntity
  8
0
  6
Continuous
 62
     7
370
     0
100
AcDbLine
 10
188.728598164
 20
53.1029049678
 30
0.0
 11
188.728598164
 21
29.6029049678
 31
0.0
  0
LINE
  5
2B2
330
2AC
100
AcDbEntity
  8
0
  6
Continuous
 62
     7
370
     0
100
AcDbLine
 10
288.728598164
 20
53.1029049678
 30
0.0
 11
288.728598164
 21
29.6029049678
 31
0.0
  0
LINE
  5
2B3
330
2AC
100
AcDbEntity
  8
0
  6
Continuous
 62
     7
370
     0
100
AcDbLine
 10
188.728598164
 20
30.6029049678
 30
0.0
 11
288.728598164
 21
30.6029049678
 31
0.0
  0
MTEXT
  5
2B4
330
2AC
100
AcDbEntity
  8
0
  6
Continuous
 62
     7
370
     0
100
AcDbMText
 10
234.9732953822
 20
35.1146418824
 30
-202.2828344729
 40
3.5
 41
0.0
 71
     1
 72
     1
  1
10
  7
SLDTEXTSTYLE0
 73
     1
 44
1.0
  0
ENDBLK
  5
2AE
330
2AC
100
AcDbEntity
  8
0
100
AcDbBlockEnd
  0
BLOCK
  5
2B7
330
2B6
100
AcDbEntity
  8
0
100
AcDbBlockBegin
  2
_D_31
 70
     0
 10
0.0
 20
0.0
 30
0.0
  3
_D_31
  1

  0
SOLID
  5
2B9
330
2B6
100
AcDbEntity
  8
0
  6
Continuous
 62
     7
370
     0
100
AcDbTrace
 10
178.5587251829
 20
24.6029049678
 30
0.0
 11
181.8607251829
 21
24.0949049678
 31
0.0
 12
181.8607251829
 22
25.1109049678
 32
0.0
 13
181.8607251829
 23
25.1109049678
 33
0.0
  0
SOLID
  5
2BA
330
2B6
100
AcDbEntity
  8
0
  6
Continuous
 62
     7
370
     0
100
AcDbTrace
 10
298.898471145
 20
24.6029049678
 30
0.0
 11
295.596471145
 21
25.1109049678
 31
0.0
 12
295.596471145
 22
24.0949049678
 32
0.0
 13
295.596471145
 23
24.0949049678
 33
0.0
  0
LINE
  5
2BB
330
2B6
100
AcDbEntity
  8
0
  6
Continuous
 62
     7
370
     0
100
AcDbLine
 10
178.5587251829
 20
52.236879564
 30
0.0
 11
178.5587251829
 21
23.6029049678
 31
0.0
  0
LINE
  5
2BC
330
2B6
100
AcDbEntity
  8
0
  6
Continuous
 62
     7
370
     0
100
AcDbLine
 10
298.898471145
 20
52.236879564
 30
0.0
 11
298.898471145
 21
23.6029049678
 31
0.0
  0
LINE
  5
2BD
330
2B6
100
AcDbEntity
  8
0
  6
Continuous
 62
     7
370
     0
100
AcDbLine
 10
178.5587251829
 20
24.6029049678
 30
0.0
 11
298.898471145
 21
24.6029049678
 31
0.0
  0
MTEXT
  5
2BE
330
2B6
100
AcDbEntity
  8
0
  6
Continuous
 62
     7
370
     0
100
AcDbMText
 10
231.7406565649
 20
29.1146418824
 30
-202.2828344729
 40
3.5
 41
0.0
 71
     1
 72
     1
  1
12.03
  7
SLDTEXTSTYLE0
 73
     1
 44
1.0
  0
ENDBLK
  5
2B8
330
2B6
100
AcDbEntity
  8
0
100
AcDbBlockEnd
  0
BLOCK
  5
2C1
330
2C0
100
AcDbEntity
  8
0
100
AcDbBlockBegin
  2
_D_32
 70
     0
 10
0.0
 20
0.0
 30
0.0
  3
_D_32
  1

  0
SOLID
  5
2C3
330
2C0
100
AcDbEntity
  8
0
  6
Continuous
 62
     7
370
     0
100
AcDbTrace
 10
178.5587251829
 20
83.8122945779
 30
0.0
 11
181.8607251829
 21
83.3042945779
 31
0.0
 12
181.8607251829
 22
84.3202945779
 32
0.0
 13
181.8607251829
 23
84.3202945779
 33
0.0
  0
SOLID
  5
2C4
330
2C0
100
AcDbEntity
  8
0
  6
Continuous
 62
     7
370
     0
100
AcDbTrace
 10
188.728598164
 20
83.8122945779
 30
0.0
 11
185.426598164
 21
84.3202945779
 31
0.0
 12
185.426598164
 22
83.3042945779
 32
0.0
 13
185.426598164
 23
83.3042945779
 33
0.0
  0
LINE
  5
2C5
330
2C0
100
AcDbEntity
  8
0
  6
Continuous
 62
     7
370
     0
100
AcDbLine
 10
178.5587251829
 20
70.9689303716
 30
0.0
 11
178.5587251829
 21
84.8122945779
 31
0.0
  0
LINE
  5
2C6
330
2C0
100
AcDbEntity
  8
0
  6
Continuous
 62
     7
370
     0
100
AcDbLine
 10
178.5587251829
 20
83.8122945779
 30
0.0
 11
165.0383418959
 21
83.8122945779
 31
0.0
  0
LINE
  5
2C7
330
2C0
100
AcDbEntity
  8
0
  6
Continuous
 62
     7
370
     0
100
AcDbLine
 10
178.5587251829
 20
83.8122945779
 30
0.0
 11
188.728598164
 21
83.8122945779
 31
0.0
  0
MTEXT
  5
2C8
330
2C0
100
AcDbEntity
  8
0
  6
Continuous
 62
     7
370
     0
100
AcDbMText
 10
165.0383418959
 20
88.3240314925
 30
-202.2828344729
 40
3.5
 41
0.0
 71
     1
 72
     1
  1
1.02
  7
SLDTEXTSTYLE0
 73
     1
 44
1.0
  0
ENDBLK
  5
2C2
330
2C0
100
AcDbEntity
  8
0
100
AcDbBlockEnd
  0
BLOCK
  5
2CB
330
2CA
100
AcDbEntity
  8
0
100
AcDbBlockBegin
  2
_D_33
 70
     0
 10
0.0
 20
0.0
 30
0.0
  3
_D_33
  1

  0
SOLID
  5
2CD
330
2CA
100
AcDbEntity
  8
0
  6
Continuous
 62
     7
370
     0
100
AcDbTrace
 10
174.7030598254
 20
65.1029049678
 30
0.0
 11
175.2110598254
 21
68.4049049678
 31
0.0
 12
174.1950598254
 22
68.4049049678
 32
0.0
 13
174.1950598254
 23
68.4049049678
 33
0.0
  0
SOLID
  5
2CE
330
2CA
100
AcDbEntity
  8
0
  6
Continuous
 62
     7
370
     0
100
AcDbTrace
 10
174.7030598254
 20
58.1029049678
 30
0.0
 11
174.1950598254
 21
54.8009049678
 31
0.0
 12
175.2110598254
 22
54.8009049678
 32
0.0
 13
175.2110598254
 23
54.8009049678
 33
0.0
  0
LINE
  5
2CF
330
2CA
100
AcDbEntity
  8
0
  6
Continuous
 62
     7
370
     0
100
AcDbLine
 10
187.728598164
 20
65.1029049678
 30
0.0
 11
173.7030598254
 21
65.1029049678
 31
0.0
  0
LINE
  5
2D0
330
2CA
100
AcDbEntity
  8
0
  6
Continuous
 62
     7
370
     0
100
AcDbLine
 10
187.728598164
 20
58.1029049678
 30
0.0
 11
173.7030598254
 21
58.1029049678
 31
0.0
  0
LINE
  5
2D1
330
2CA
100
AcDbEntity
  8
0
  6
Continuous
 62
     7
370
     0
100
AcDbLine
 10
174.7030598254
 20
65.1029049678
 30
0.0
 11
174.7030598254
 21
71.4529049678
 31
0.0
  0
LINE
  5
2D2
330
2CA
100
AcDbEntity
  8
0
  6
Continuous
 62
     7
370
     0
100
AcDbLine
 10
174.7030598254
 20
65.1029049678
 30
0.0
 11
174.7030598254
 21
58.1029049678
 31
0.0
  0
LINE
  5
2D3
330
2CA
100
AcDbEntity
  8
0
  6
Continuous
 62
     7
370
     0
100
AcDbLine
 10
174.7030598254
 20
58.1029049678
 30
0.0
 11
174.7030598254
 21
30.6553355826
 31
0.0
  0
MTEXT
  5
2D4
330
2CA
100
AcDbEntity
  8
0
  6
Continuous
 62
     7
370
     0
100
AcDbMText
 10
170.1913229109
 20
30.6553355826
 30
-202.2828344729
 40
3.5
 41
0.0
 71
     1
 72
     1
  1
0.70
  7
SLDTEXTSTYLE0
 11
-7.044195017643634E-15
 21
1.0
 31
0.0
 73
     1
 44
1.0
  0
ENDBLK
  5
2CC
330
2CA
100
AcDbEntity
  8
0
100
AcDbBlockEnd
  0
BLOCK
  5
2D7
330
2D6
100
AcDbEntity
  8
0
100
AcDbBlockBegin
  2
_D_34
 70
     0
 10
0.0
 20
0.0
 30
0.0
  3
_D_34
  1

  0
ARC
  5
2D9
330
2D6
100
AcDbEntity
  8
0
  6
Continuous
 62
     7
370
     0
100
AcDbCircle
 10
186.9869284132
 20
65.1029049678
 30
0.0
 40
28.24820670486483
100
AcDbArc
 50
150.0
 51
180.0
  0
SOLID
  5
2DA
330
2D6
100
AcDbEntity
  8
0
  6
Continuous
 62
     7
370
     0
100
AcDbTrace
 10
162.5232637954
 20
79.2270083202
 30
0.0
 11
160.5873757955
 21
76.5042145984
 31
0.0
 12
161.4953086137
 22
76.0482387243
 32
0.0
 13
161.4953086137
 23
76.0482387243
 33
0.0
  0
SOLID
  5
2DB
330
2D6
100
AcDbEntity
  8
0
  6
Continuous
 62
     7
370
     0
100
AcDbTrace
 10
158.7387217083
 20
65.1029049678
 30
0.0
 11
159.437871205
 21
68.3697777816
 31
0.0
 12
158.4235903825
 22
68.4288575002
 32
0.0
 13
158.4235903825
 23
68.4288575002
 33
0.0
  0
LINE
  5
2DC
330
2D6
100
AcDbEntity
  8
0
  6
Continuous
 62
     7
370
     0
100
AcDbLine
 10
177.6926997791
 20
70.4689303716
 30
0.0
 11
161.6572383916
 21
79.7270083202
 31
0.0
  0
LINE
  5
2DD
330
2D6
100
AcDbEntity
  8
0
  6
Continuous
 62
     7
370
     0
100
AcDbLine
 10
187.728598164
 20
65.1029049678
 30
0.0
 11
157.7387217083
 21
65.1029049678
 31
0.0
  0
MTEXT
  5
2DE
330
2D6
100
AcDbEntity
  8
0
  6
Continuous
 62
     7
370
     0
100
AcDbMText
 10
154.1348380119
 20
69.3890105919
 30
-202.2828344729
 40
3.5
 41
0.0
 71
     1
 72
     1
  1
30°
  7
SLDTEXTSTYLE0
 11
0.2758170839089242
 21
0.9612101415528123
 31
0.0
 73
     1
 44
1.0
  0
ENDBLK
  5
2D8
330
2D6
100
AcDbEntity
  8
0
100
AcDbBlockEnd
  0
BLOCK
  5
2E1
330
2E0
100
AcDbEntity
  8
0
100
AcDbBlockBegin
  2
_D_35
 70
     0
 10
0.0
 20
0.0
 30
0.0
  3
_D_35
  1

  0
ARC
  5
2E3
330
2E0
100
AcDbEntity
  8
0
  6
Continuous
 62
     7
370
     0
100
AcDbCircle
 10
186.9869284132
 20
58.1029049678
 30
0.0
 40
27.82617263055094
100
AcDbArc
 50
180.0
 51
210.0
  0
SOLID
  5
2E4
330
2E0
100
AcDbEntity
  8
0
  6
Continuous
 62
     7
370
     0
100
AcDbTrace
 10
159.1607557826
 20
58.1029049678
 30
0.0
 11
158.8485325012
 21
54.7766781832
 31
0.0
 12
159.8627612819
 22
54.8366446783
 32
0.0
 13
159.8627612819
 23
54.8366446783
 33
0.0
  0
SOLID
  5
2E5
330
2E0
100
AcDbEntity
  8
0
  6
Continuous
 62
     7
370
     0
100
AcDbTrace
 10
162.888756025
 20
44.1898186525
 30
0.0
 11
161.8635804762
 21
47.3694857883
 31
0.0
 12
160.9552493394
 22
46.9143039061
 32
0.0
 13
160.9552493394
 23
46.9143039061
 33
0.0
  0
LINE
  5
2E6
330
2E0
100
AcDbEntity
  8
0
  6
Continuous
 62
     7
370
     0
100
AcDbLine
 10
187.728598164
 20
58.1029049678
 30
0.0
 11
158.1607557826
 21
58.1029049678
 31
0.0
  0
LINE
  5
2E7
330
2E0
100
AcDbEntity
  8
0
  6
Continuous
 62
     7
370
     0
100
AcDbLine
 10
177.6926997791
 20
52.736879564
 30
0.0
 11
162.0227306212
 21
43.6898186525
 31
0.0
  0
MTEXT
  5
2E8
330
2E0
100
AcDbEntity
  8
0
  6
Continuous
 62
     7
370
     0
100
AcDbMText
 10
163.1562230491
 20
57.8253553168
 30
-202.2828344729
 40
3.5
 41
0.0
 71
     1
 72
     1
  1
30°
  7
SLDTEXTSTYLE0
 11
0.2187156986834792
 21
-0.9757886262656466
 31
0.0
 73
     1
 44
1.0
  0
ENDBLK
  5
2E2
330
2E0
100
AcDbEntity
  8
0
100
AcDbBlockEnd
  0
BLOCK
  5
2EB
330
2EA
100
AcDbEntity
  8
0
100
AcDbBlockBegin
  2
_D_36
 70
     0
 10
0.0
 20
0.0
 30
0.0
  3
_D_36
  1

  0
SOLID
  5
2ED
330
2EA
100
AcDbEntity
  8
0
  6
Continuous
 62
     7
370
     0
100
AcDbTrace
 10
298.8984711451
 20
83.6856555091
 30
0.0
 11
295.5964711451
 21
84.1936555091
 31
0.0
 12
295.5964711451
 22
83.1776555091
 32
0.0
 13
295.5964711451
 23
83.1776555091
 33
0.0
  0
SOLID
  5
2EE
330
2EA
100
AcDbEntity
  8
0
  6
Continuous
 62
     7
370
     0
100
AcDbTrace
 10
288.728598164
 20
83.6856555091
 30
0.0
 11
292.030598164
 21
83.1776555091
 31
0.0
 12
292.030598164
 22
84.1936555091
 32
0.0
 13
292.030598164
 23
84.1936555091
 33
0.0
  0
LINE
  5
2EF
330
2EA
100
AcDbEntity
  8
0
  6
Continuous
 62
     7
370
     0
100
AcDbLine
 10
298.898471145
 20
70.9689303716
 30
0.0
 11
298.8984711451
 21
84.6856555091
 31
0.0
  0
LINE
  5
2F0
330
2EA
100
AcDbEntity
  8
0
  6
Continuous
 62
     7
370
     0
100
AcDbLine
 10
298.8984711451
 20
83.6856555091
 30
0.0
 11
310.7733949547
 21
83.6856555091
 31
0.0
  0
LINE
  5
2F1
330
2EA
100
AcDbEntity
  8
0
  6
Continuous
 62
     7
370
     0
100
AcDbLine
 10
298.8984711451
 20
83.6856555091
 30
0.0
 11
288.728598164
 21
83.6856555091
 31
0.0
  0
MTEXT
  5
2F2
330
2EA
100
AcDbEntity
  8
0
  6
Continuous
 62
     7
370
     0
100
AcDbMText
 10
298.8782561844
 20
88.1973924237
 30
-202.2828344729
 40
3.5
 41
0.0
 71
     1
 72
     1
  1
1.02
  7
SLDTEXTSTYLE0
 73
     1
 44
1.0
  0
ENDBLK
  5
2EC
330
2EA
100
AcDbEntity
  8
0
100
AcDbBlockEnd
  0
ENDSEC
  0
SECTION
  2
ENTITIES
  0
LINE
  5
45
330
1F
100
AcDbEntity
  8
0
  6
Continuous
 62
     7
370
    40
100
AcDbLine
 10
25.0788435654
 20
10.2147801566
 30
0.0
 11
25.0788435654
 21
287.2147801566
 31
0.0
  0
LINE
  5
46
330
1F
100
AcDbEntity
  8
0
  6
Continuous
 62
     7
370
    40
100
AcDbLine
 10
0.0788435654
 20
0.2147801566
 30
0.0
 11
420.0788435654
 21
0.2147801566
 31
0.0
  0
LINE
  5
47
330
1F
100
AcDbEntity
  8
0
  6
Continuous
 62
     7
370
    40
100
AcDbLine
 10
0.0788435654
 20
0.2147801566
 30
0.0
 11
0.0788435654
 21
297.2147801566
 31
0.0
  0
LINE
  5
48
330
1F
100
AcDbEntity
  8
0
  6
Continuous
 62
     7
370
    40
100
AcDbLine
 10
0.0788435654
 20
297.2147801566
 30
0.0
 11
420.0788435654
 21
297.2147801566
 31
0.0
  0
LINE
  5
49
330
1F
100
AcDbEntity
  8
0
  6
Continuous
 62
     7
370
    40
100
AcDbLine
 10
420.0788435654
 20
0.2147801566
 30
0.0
 11
420.0788435654
 21
297.2147801566
 31
0.0
  0
LINE
  5
4A
330
1F
100
AcDbEntity
  8
0
  6
Continuous
 62
     7
370
    40
100
AcDbLine
 10
25.0788435654
 20
287.2147801566
 30
0.0
 11
410.0788435654
 21
287.2147801566
 31
0.0
  0
LINE
  5
4B
330
1F
100
AcDbEntity
  8
0
  6
Continuous
 62
     7
370
    40
100
AcDbLine
 10
25.0788435654
 20
10.2147801566
 30
0.0
 11
410.0788435654
 21
10.2147801566
 31
0.0
  0
LINE
  5
4C
330
1F
100
AcDbEntity
  8
0
  6
Continuous
 62
     7
370
    40
100
AcDbLine
 10
410.0788435654
 20
287.2147801566
 30
0.0
 11
410.0788435654
 21
10.2147801566
 31
0.0
  0
LINE
  5
4D
330
1F
100
AcDbEntity
  8
0
  6
Continuous
 62
     7
370
    40
100
AcDbLine
 10
321.6788435654
 20
14.4647801566
 30
0.0
 11
410.0788435654
 21
14.4647801566
 31
0.0
  0
LINE
  5
4E
330
1F
100
AcDbEntity
  8
0
  6
Continuous
 62
     7
370
    40
100
AcDbLine
 10
410.0788435654
 20
48.4647801566
 30
0.0
 11
321.6788435654
 21
48.4647801566
 31
0.0
  0
LINE
  5
4F
330
1F
100
AcDbEntity
  8
0
  6
Continuous
 62
     7
370
    40
100
AcDbLine
 10
321.6788435654
 20
65.4647801566
 30
0.0
 11
410.0788435654
 21
65.4647801566
 31
0.0
  0
LINE
  5
50
330
1F
100
AcDbEntity
  8
0
  6
Continuous
 62
     7
370
    40
100
AcDbLine
 10
321.6788435654
 20
27.2147801566
 30
0.0
 11
410.0788435654
 21
27.2147801566
 31
0.0
  0
LINE
  5
51
330
1F
100
AcDbEntity
  8
0
  6
Continuous
 62
     7
370
    40
100
AcDbLine
 10
321.6788435654
 20
65.4647801566
 30
0.0
 11
321.6788435654
 21
10.2147801566
 31
0.0
  0
LINE
  5
52
330
1F
100
AcDbEntity
  8
0
  6
Continuous
 62
     7
370
    40
100
AcDbLine
 10
365.8788435654
 20
10.2147801566
 30
0.0
 11
365.8788435654
 21
14.4647801566
 31
0.0
  0
LINE
  5
53
330
1F
100
AcDbEntity
  8
0
  6
Continuous
 62
     7
370
    40
100
AcDbLine
 10
373.6788435654
 20
59.0897801566
 30
0.0
 11
373.6788435654
 21
65.4647801566
 31
0.0
  0
LINE
  5
54
330
1F
100
AcDbEntity
  8
0
  6
Continuous
 62
     7
370
    40
100
AcDbLine
 10
397.0788435654
 20
14.4647801566
 30
0.0
 11
397.0788435654
 21
27.2147801566
 31
0.0
  0
LINE
  5
55
330
1F
100
AcDbEntity
  8
0
  6
Continuous
 62
     7
370
    40
100
AcDbLine
 10
410.0788435654
 20
59.0897801566
 30
0.0
 11
321.6788435654
 21
59.0897801566
 31
0.0
  0
LINE
  5
56
330
1F
100
AcDbEntity
  8
0
  6
Continuous
 62
     7
370
    40
100
AcDbLine
 10
410.0788435654
 20
18.7147801566
 30
0.0
 11
397.0788435654
 21
18.7147801566
 31
0.0
  0
MTEXT
  5
58
330
1F
100
AcDbEntity
  8
0
  6
Continuous
 62
     7
370
     0
100
AcDbMText
 10
330.4986581194
 20
41.5400833305
 30
0.0
 40
3.5
 41
0.0
 71
     1
 72
     1
  1
All units in mm or degrees
  7
SLDTEXTSTYLE0
 73
     1
 44
1.0
  0
MTEXT
  5
59
330
1F
100
AcDbEntity
  8
0
  6
Continuous
 62
     7
370
     0
100
AcDbMText
 10
363.0460427451
 20
24.8465185664
 30
0.0
 40
6.35
 41
0.0
 71
     2
 72
     1
  1
t400-thermo-clip2
  7
SLDTEXTSTYLE0
 73
     1
 44
1.0
  0
MTEXT
  5
5A
330
1F
100
AcDbEntity
  8
0
  6
Continuous
 62
     7
370
     0
100
AcDbMText
 10
400.9998284117
 20
24.5152246678
 30
0.0
 40
2.9104166667
 41
0.0
 71
     1
 72
     1
  1
A3
  7
SLDTEXTSTYLE0
 73
     1
 44
1.0
  0
MTEXT
  5
5C
330
1F
100
AcDbEntity
  8
0
  6
Continuous
 62
     7
370
     0
100
AcDbMText
 10
367.3571379932
 20
13.1148674312
 30
0.0
 40
1.5
 41
0.0
 71
     1
 72
     1
  1
SHEET 1 OF 1
  7
SLDTEXTSTYLE1
 73
     1
 44
1.0
  0
MTEXT
  5
5D
330
1F
100
AcDbEntity
  8
0
  6
Continuous
 62
     7
370
     0
100
AcDbMText
 10
322.9528096828
 20
13.1148674312
 30
0.0
 40
1.5
 41
0.0
 71
     1
 72
     1
  1
SCALE:10:1
  7
SLDTEXTSTYLE0
 73
     1
 44
1.0
  0
MTEXT
  5
5E
330
1F
100
AcDbEntity
  8
0
  6
Continuous
 62
     7
370
     0
100
AcDbMText
 10
322.9528096828
 20
25.0834179837
 30
0.0
 40
1.5
 41
0.0
 71
     1
 72
     1
  1
DWG NO.
  7
SLDTEXTSTYLE0
 73
     1
 44
1.0
  0
MTEXT
  5
5F
330
1F
100
AcDbEntity
  8
0
  6
Continuous
 62
     7
370
     0
100
AcDbMText
 10
322.835030502
 20
46.4931144426
 30
0.0
 40
1.5
 41
0.0
 71
     1
 72
     1
  1
TITLE:
  7
SLDTEXTSTYLE0
 73
     1
 44
1.0
  0
MTEXT
  5
60
330
1F
100
AcDbEntity
  8
0
  6
Continuous
 62
     7
370
     0
100
AcDbMText
 10
376.2064252647
 20
62.5496888371
 30
0.0
 40
1.5
 41
0.0
 71
     1
 72
     1
  1
REVISION
  7
SLDTEXTSTYLE0
 73
     1
 44
1.0
  0
MTEXT
  5
61
330
1F
100
AcDbEntity
  8
0
  6
Continuous
 62
     7
370
     0
100
AcDbMText
 10
335.4934840882
 20
62.7477737317
 30
0.0
 40
1.5
 41
0.0
 71
     1
 72
     1
  1
DO NOT SCALE DRAWING
  7
SLDTEXTSTYLE0
 73
     1
 44
1.0
  0
MTEXT
  5
62
330
1F
100
AcDbEntity
  8
0
  6
Continuous
 62
     7
370
     0
100
AcDbMText
 10
387.4407679683
 20
64.5496307441
 30
0.0
 40
3.5
 41
0.0
 71
     1
 72
     1
  1
1
  7
SLDTEXTSTYLE0
 73
     1
 44
1.0
  0
INSERT
  5
A1
330
1F
100
AcDbEntity
  8
0
  6
Continuous
 62
     7
370
     0
100
AcDbBlockReference
  2
SW_TABLEANNOTATION_0
 10
25.0788435654
 20
287.3518376004
 30
0.0
  0
LINE
  5
A2
330
1F
100
AcDbEntity
  8
0
  6
CENTERX2
 62
     7
100
AcDbLine
 10
255.0943493622
 20
169.1178367577
 30
0.0
 11
220.0943493622
 21
169.1178367577
 31
0.0
  0
LINE
  5
A3
330
1F
100
AcDbEntity
  8
0
  6
CENTERX2
 62
     7
100
AcDbLine
 10
405.2492300261
 20
169.1178367577
 30
0.0
 11
370.2492300259
 21
169.1178367577
 31
0.0
  0
LINE
  5
A4
330
1F
100
AcDbEntity
  8
0
  6
CENTERX2
 62
     7
100
AcDbLine
 10
220.0943493622
 20
271.4740312479
 30
0.0
 11
255.0943493622
 21
271.4740312479
 31
0.0
  0
LINE
  5
A5
330
1F
100
AcDbEntity
  8
0
  6
CENTERX2
 62
     7
100
AcDbLine
 10
370.2492300259
 20
271.4740312479
 30
0.0
 11
405.2492300259
 21
271.4740312479
 31
0.0
  0
LINE
  5
A6
330
1F
100
AcDbEntity
  8
0
  6
CENTERX2
 62
     7
100
AcDbLine
 10
216.5600576269
 20
206.5459340028
 30
0.0
 11
216.5600576269
 21
234.0459340028
 31
0.0
  0
LINE
  5
A7
330
1F
100
AcDbEntity
  8
0
  6
CENTERX2
 62
     7
100
AcDbLine
 10
359.6116739953
 20
270.2959340028
 30
0.0
 11
359.6116739953
 21
170.2959340028
 31
0.0
  0
LINE
  5
A8
330
1F
100
AcDbEntity
  8
0
  6
CENTERX2
 62
     7
100
AcDbLine
 10
348.2334349656
 20
270.2959340028
 30
0.0
 11
348.2334349656
 21
170.2959340028
 31
0.0
  0
LINE
  5
A9
330
1F
100
AcDbEntity
  8
0
  6
CENTERX2
 62
     7
100
AcDbLine
 10
293.1333811444
 20
170.2959340028
 30
0.0
 11
293.1333811444
 21
270.2959340028
 31
0.0
  0
LINE
  5
AA
330
1F
100
AcDbEntity
  8
0
  6
CENTERX2
 62
     7
100
AcDbLine
 10
266.0967193856
 20
170.2959340028
 30
0.0
 11
266.0967193856
 21
270.2959340028
 31
0.0
  0
LINE
  5
AB
330
1F
100
AcDbEntity
  8
0
  6
Continuous
 62
     7
370
    15
100
AcDbLine
 10
370.2492300259
 20
270.2959340028
 30
0.0
 11
370.2492300259
 21
280.6425095498
 31
0.0
  0
LINE
  5
AC
330
1F
100
AcDbEntity
  8
0
  6
Continuous
 62
     7
370
    15
100
AcDbLine
 10
405.2492300259
 20
280.6425095498
 30
0.0
 11
370.2492300259
 21
280.6425095498
 31
0.0
  0
LINE
  5
AD
330
1F
100
AcDbEntity
  8
0
  6
Continuous
 62
     7
370
    15
100
AcDbLine
 10
405.2492300259
 20
280.6425095498
 30
0.0
 11
405.2492300259
 21
159.9493584558
 31
0.0
  0
LINE
  5
AE
330
1F
100
AcDbEntity
  8
0
  6
Continuous
 62
     7
370
    15
100
AcDbLine
 10
405.2492300259
 20
159.9493584558
 30
0.0
 11
370.2492300259
 21
159.9493584558
 31
0.0
  0
LINE
  5
AF
330
1F
100
AcDbEntity
  8
0
  6
Continuous
 62
     7
370
    15
100
AcDbLine
 10
370.2492300259
 20
170.2959340028
 30
0.0
 11
370.2492300259
 21
159.9493584558
 31
0.0
  0
LINE
  5
B0
330
1F
100
AcDbEntity
  8
0
  6
Continuous
 62
     7
370
    15
100
AcDbLine
 10
370.2492300259
 20
170.2959340028
 30
0.0
 11
255.0943493622
 21
170.2959340028
 31
0.0
  0
LINE
  5
B1
330
1F
100
AcDbEntity
  8
0
  6
Continuous
 62
     7
370
    15
100
AcDbLine
 10
255.0943493622
 20
170.2959340028
 30
0.0
 11
255.0943493622
 21
159.9493584558
 31
0.0
  0
LINE
  5
B2
330
1F
100
AcDbEntity
  8
0
  6
Continuous
 62
     7
370
    15
100
AcDbLine
 10
220.0943493622
 20
159.9493584558
 30
0.0
 11
255.0943493622
 21
159.9493584558
 31
0.0
  0
LINE
  5
B3
330
1F
100
AcDbEntity
  8
0
  6
Continuous
 62
     7
370
    15
100
AcDbLine
 10
220.0943493622
 20
159.9493584558
 30
0.0
 11
220.0943493622
 21
204.0459340028
 31
0.0
  0
LINE
  5
B4
330
1F
100
AcDbEntity
  8
0
  6
Continuous
 62
     7
370
    15
100
AcDbLine
 10
220.0943493622
 20
204.0459340028
 30
0.0
 11
222.5943493622
 21
204.0459340028
 31
0.0
  0
ARC
  5
B5
330
1F
100
AcDbEntity
  8
0
  6
Continuous
 62
     7
370
    15
100
AcDbCircle
 10
222.5943493622
 20
205.2959340028
 30
0.0
 40
1.25
100
AcDbArc
 50
270.0
 51
90.0
  0
LINE
  5
B6
330
1F
100
AcDbEntity
  8
0
  6
Continuous
 62
     7
370
    15
100
AcDbLine
 10
222.5943493622
 20
206.5459340028
 30
0.0
 11
208.0257658916
 21
206.5459340028
 31
0.0
  0
LINE
  5
B7
330
1F
100
AcDbEntity
  8
0
  6
Continuous
 62
     7
370
    15
100
AcDbLine
 10
208.0257658916
 20
206.5459340028
 30
0.0
 11
208.0257658916
 21
234.0459340028
 31
0.0
  0
LINE
  5
B8
330
1F
100
AcDbEntity
  8
0
  6
Continuous
 62
     7
370
    15
100
AcDbLine
 10
222.5943493622
 20
234.0459340028
 30
0.0
 11
208.0257658916
 21
234.0459340028
 31
0.0
  0
ARC
  5
B9
330
1F
100
AcDbEntity
  8
0
  6
Continuous
 62
     7
370
    15
100
AcDbCircle
 10
222.5943493622
 20
235.2959340028
 30
0.0
 40
1.25
100
AcDbArc
 50
270.0
 51
90.0
  0
LINE
  5
BA
330
1F
100
AcDbEntity
  8
0
  6
Continuous
 62
     7
370
    15
100
AcDbLine
 10
220.0943493622
 20
236.5459340028
 30
0.0
 11
222.5943493622
 21
236.5459340028
 31
0.0
  0
LINE
  5
BB
330
1F
100
AcDbEntity
  8
0
  6
Continuous
 62
     7
370
    15
100
AcDbLine
 10
220.0943493622
 20
280.6425095498
 30
0.0
 11
220.0943493622
 21
236.5459340028
 31
0.0
  0
LINE
  5
BC
330
1F
100
AcDbEntity
  8
0
  6
Continuous
 62
     7
370
    15
100
AcDbLine
 10
220.0943493622
 20
280.6425095498
 30
0.0
 11
255.0943493622
 21
280.6425095498
 31
0.0
  0
LINE
  5
BD
330
1F
100
AcDbEntity
  8
0
  6
Continuous
 62
     7
370
    15
100
AcDbLine
 10
255.0943493622
 20
270.2959340028
 30
0.0
 11
255.0943493622
 21
280.6425095498
 31
0.0
  0
LINE
  5
BE
330
1F
100
AcDbEntity
  8
0
  6
Continuous
 62
     7
370
    15
100
AcDbLine
 10
370.2492300259
 20
270.2959340028
 30
0.0
 11
255.0943493622
 21
270.2959340028
 31
0.0
  0
DIMENSION
  5
BF
330
1F
100
AcDbEntity
  8
0
  6
Continuous
 62
     7
370
     0
100
AcDbDimension
  2
_D
 10
255.0943493622
 20
145.5623707933
 30
0.0
 11
237.5943493622
 21
145.5623707933
 31
0.0
 70
   160
  1
<>
 71
     2
 42
-1.0
  3
SLDDIMSTYLE0
100
AcDbAlignedDimension
 13
220.0943493622
 23
159.9493584558
 33
0.0
 14
255.0943493622
 24
159.9493584558
 34
0.0
100
AcDbRotatedDimension
  0
DIMENSION
  5
CA
330
1F
100
AcDbEntity
  8
0
  6
Continuous
 62
     7
370
     0
100
AcDbDimension
  2
_D_1
 10
266.0967193856
 20
139.5623707933
 30
0.0
 11
242.5203734152
 21
139.5623707933
 31
0.0
 70
   160
  1
<>
 71
     2
 42
-1.0
  3
SLDDIMSTYLE0
100
AcDbAlignedDimension
 13
220.0943493622
 23
159.9493584558
 33
0.0
 14
266.0967193856
 24
170.2959340028
 34
0.0
100
AcDbRotatedDimension
  0
DIMENSION
  5
D4
330
1F
100
AcDbEntity
  8
0
  6
Continuous
 62
     7
370
     0
100
AcDbDimension
  2
_D_2
 10
293.1333811444
 20
133.9133298063
 30
0.0
 11
256.4402278199
 21
133.9133298063
 31
0.0
 70
   160
  1
<>
 71
     2
 42
-1.0
  3
SLDDIMSTYLE0
100
AcDbAlignedDimension
 13
220.0943493622
 23
159.9493584558
 33
0.0
 14
293.1333811444
 24
170.2959340028
 34
0.0
100
AcDbRotatedDimension
  0
DIMENSION
  5
DE
330
1F
100
AcDbEntity
  8
0
  6
Continuous
 62
     7
370
     0
100
AcDbDimension
  2
_D_3
 10
348.2334349656
 20
128.4397683258
 30
0.0
 11
281.2132923507
 21
128.4397683258
 31
0.0
 70
   160
  1
<>
 71
     2
 42
-1.0
  3
SLDDIMSTYLE1
100
AcDbAlignedDimension
 13
220.0943493622
 23
159.9493584558
 33
0.0
 14
348.2334349656
 24
170.2959340028
 34
0.0
100
AcDbRotatedDimension
  0
DIMENSION
  5
E9
330
1F
100
AcDbEntity
  8
0
  6
Continuous
 62
     7
370
     0
100
AcDbDimension
  2
_D_4
 10
359.6116739953
 20
122.2642888193
 30
0.0
 11
286.6241519737
 21
122.2642888193
 31
0.0
 70
   160
  1
<>
 71
     2
 42
-1.0
  3
SLDDIMSTYLE1
100
AcDbAlignedDimension
 13
220.0943493622
 23
159.9493584558
 33
0.0
 14
359.6116739953
 24
170.2959340028
 34
0.0
100
AcDbRotatedDimension
  0
DIMENSION
  5
F3
330
1F
100
AcDbEntity
  8
0
  6
Continuous
 62
     7
370
     0
100
AcDbDimension
  2
_D_5
 10
370.2492300259
 20
116.4397683258
 30
0.0
 11
292.431964029
 21
116.4397683258
 31
0.0
 70
   160
  1
<>
 71
     2
 42
-1.0
  3
SLDDIMSTYLE1
100
AcDbAlignedDimension
 13
220.0943493622
 23
159.9493584558
 33
0.0
 14
370.2492300259
 24
159.9493584558
 34
0.0
100
AcDbRotatedDimension
  0
DIMENSION
  5
FD
330
1F
100
AcDbEntity
  8
0
  6
Continuous
 62
     7
370
     0
100
AcDbDimension
  2
_D_6
 10
405.2492300259
 20
110.9662068453
 30
0.0
 11
310.0308797013
 21
110.9662068453
 31
0.0
 70
   160
  1
<>
 71
     2
 42
-1.0
  3
SLDDIMSTYLE1
100
AcDbAlignedDimension
 13
220.0943493622
 23
159.9493584558
 33
0.0
 14
405.2492300259
 24
159.9493584558
 34
0.0
100
AcDbRotatedDimension
  0
DIMENSION
  5
107
330
1F
100
AcDbEntity
  8
0
  6
Continuous
 62
     7
370
     0
100
AcDbDimension
  2
_D_7
 10
203.9178378626
 20
234.0459340028
 30
0.0
 11
203.9178378626
 21
221.113023758
 31
0.0
 70
   160
  1
<>
 71
     2
 42
-1.0
  3
SLDDIMSTYLE1
100
AcDbAlignedDimension
 13
208.0257658916
 23
206.5459340028
 33
0.0
 14
208.0257658916
 24
234.0459340028
 34
0.0
 50
90.0
100
AcDbRotatedDimension
  0
DIMENSION
  5
111
330
1F
100
AcDbEntity
  8
0
  6
Continuous
 62
     7
370
     0
100
AcDbDimension
  2
_D_8
 10
197.6784695363
 20
170.2959340028
 30
0.0
 11
197.6784695363
 21
221.113023758
 31
0.0
 70
   160
  1
<>
 71
     2
 42
-1.0
  3
SLDDIMSTYLE1
100
AcDbAlignedDimension
 13
255.0943493622
 23
270.2959340028
 33
0.0
 14
255.0943493622
 24
170.2959340028
 34
0.0
 50
90.0
100
AcDbRotatedDimension
  0
DIMENSION
  5
11B
330
1F
100
AcDbEntity
  8
0
  6
Continuous
 62
     7
370
     0
100
AcDbDimension
  2
_D_9
 10
191.6784695363
 20
169.1178367577
 30
0.0
 11
191.6784695363
 21
221.113023758
 31
0.0
 70
   160
  1
<>
 71
     2
 42
-1.0
  3
SLDDIMSTYLE1
100
AcDbAlignedDimension
 13
220.0943493622
 23
271.4740312479
 33
0.0
 14
220.0943493622
 24
169.1178367577
 34
0.0
 50
90.0
100
AcDbRotatedDimension
  0
DIMENSION
  5
125
330
1F
100
AcDbEntity
  8
0
  6
Continuous
 62
     7
370
     0
100
AcDbDimension
  2
_D_10
 10
185.6784695363
 20
159.9493584558
 30
0.0
 11
185.6784695363
 21
221.113023758
 31
0.0
 70
   160
  1
<>
 71
     2
 42
-1.0
  3
SLDDIMSTYLE1
100
AcDbAlignedDimension
 13
220.0943493622
 23
280.6425095498
 33
0.0
 14
220.0943493622
 24
159.9493584558
 34
0.0
 50
90.0
100
AcDbRotatedDimension
  0
DIMENSION
  5
12F
330
1F
100
AcDbEntity
  8
0
  6
Continuous
 62
     7
370
     0
100
AcDbDimension
  2
_D_11
 10
216.5600576269
 20
143.9493584558
 30
0.0
 11
197.6784695363
 21
143.9493584558
 31
0.0
 70
   160
  1
<>
 71
     2
 42
-1.0
  3
SLDDIMSTYLE2
100
AcDbAlignedDimension
 13
220.0943493622
 23
159.9493584558
 33
0.0
 14
216.5600576269
 24
206.5459340028
 34
0.0
100
AcDbRotatedDimension
  0
DIMENSION
  5
13C
330
1F
100
AcDbEntity
  8
0
  6
Continuous
 62
     7
370
     0
100
AcDbDimension
  2
_D_12
 10
208.0257658916
 20
137.9493584558
 30
0.0
 11
197.6784695363
 21
137.9493584558
 31
0.0
 70
   160
  1
<>
 71
     2
 42
-1.0
  3
SLDDIMSTYLE1
100
AcDbAlignedDimension
 13
220.0943493622
 23
159.9493584558
 33
0.0
 14
208.0257658916
 24
206.5459340028
 34
0.0
100
AcDbRotatedDimension
  0
DIMENSION
  5
147
330
1F
100
AcDbEntity
  8
0
  6
Continuous
 62
     7
370
     0
100
AcDbDimension
  2
_D_13
 10
222.5943493622
 20
152.007330436
 30
0.0
 11
237.5943493622
 21
152.007330436
 31
0.0
 70
   160
  1
<>
 71
     2
 42
-1.0
  3
SLDDIMSTYLE2
100
AcDbAlignedDimension
 13
220.0943493622
 23
159.9493584558
 33
0.0
 14
222.5943493622
 24
204.0459340028
 34
0.0
100
AcDbRotatedDimension
  0
DIMENSION
  5
153
330
1F
100
AcDbEntity
  8
0
  6
Continuous
 62
     7
370
     0
100
AcDbDimension
  2
_D_14
 10
222.5943493622
 20
235.2959340028
 30
0.0
 11
208.2948658612
 21
239.1274817386
 31
0.0
 70
   164
  1
<>
 71
     1
 42
-1.0
  3
SLDDIMSTYLE3
100
AcDbRadialDimension
 15
223.801756645
 25
234.9724101964
 35
0.0
 40
0.0
  0
MTEXT
  5
15C
330
1F
100
AcDbEntity
  8
0
  6
Continuous
 62
     7
370
     0
100
AcDbMText
 10
237.4545924647
 20
173.6734861177
 30
0.0
 40
3.5
 41
0.0
 71
     2
 72
     1
  1
A
  7
SLDTEXTSTYLE0
 73
     1
 44
1.0
  0
MTEXT
  5
15D
330
1F
100
AcDbEntity
  8
0
  6
Continuous
 62
     7
370
     0
100
AcDbMText
 10
387.722493868
 20
173.6734861177
 30
0.0
 40
3.5
 41
0.0
 71
     2
 72
     1
  1
B
  7
SLDTEXTSTYLE0
 73
     1
 44
1.0
  0
MTEXT
  5
15E
330
1F
100
AcDbEntity
  8
0
  6
Continuous
 62
     7
370
     0
100
AcDbMText
 10
237.5578910673
 20
276.0296806079
 30
0.0
 40
3.5
 41
0.0
 71
     2
 72
     1
  1
C
  7
SLDTEXTSTYLE0
 73
     1
 44
1.0
  0
MTEXT
  5
15F
330
1F
100
AcDbEntity
  8
0
  6
Continuous
 62
     7
370
     0
100
AcDbMText
 10
387.7091258193
 20
276.0296806079
 30
0.0
 40
3.5
 41
0.0
 71
     2
 72
     1
  1
D
  7
SLDTEXTSTYLE0
 73
     1
 44
1.0
  0
MTEXT
  5
160
330
1F
100
AcDbEntity
  8
0
  6
Continuous
 62
     7
370
     0
100
AcDbMText
 10
212.1106781925
 20
220.3020104291
 30
0.0
 40
3.5
 41
0.0
 71
     2
 72
     1
  1
E
  7
SLDTEXTSTYLE0
 11
-3.491481338843133E-15
 21
1.0
 31
0.0
 73
     1
 44
1.0
  0
MTEXT
  5
161
330
1F
100
AcDbEntity
  8
0
  6
Continuous
 62
     7
370
     0
100
AcDbMText
 10
355.1622945608
 20
220.2594756297
 30
0.0
 40
3.5
 41
0.0
 71
     2
 72
     1
  1
F
  7
SLDTEXTSTYLE0
 11
-3.491481338843133E-15
 21
1.0
 31
0.0
 73
     1
 44
1.0
  0
MTEXT
  5
162
330
1F
100
AcDbEntity
  8
0
  6
Continuous
 62
     7
370
     0
100
AcDbMText
 10
343.7840555312
 20
220.2849965244
 30
0.0
 40
3.5
 41
0.0
 71
     2
 72
     1
  1
G
  7
SLDTEXTSTYLE0
 11
-3.491481338843133E-15
 21
1.0
 31
0.0
 73
     1
 44
1.0
  0
MTEXT
  5
163
330
1F
100
AcDbEntity
  8
0
  6
Continuous
 62
     7
370
     0
100
AcDbMText
 10
288.68400171
 20
220.2874271152
 30
0.0
 40
3.5
 41
0.0
 71
     2
 72
     1
  1
H
  7
SLDTEXTSTYLE0
 11
-3.491481338843133E-15
 21
1.0
 31
0.0
 73
     1
 44
1.0
  0
MTEXT
  5
164
330
1F
100
AcDbEntity
  8
0
  6
Continuous
 62
     7
370
     0
100
AcDbMText
 10
261.6473399512
 20
220.2643367843
 30
0.0
 40
3.5
 41
0.0
 71
     2
 72
     1
  1
J
  7
SLDTEXTSTYLE0
 11
-3.491481338843133E-15
 21
1.0
 31
0.0
 73
     1
 44
1.0
  0
INSERT
  5
18C
330
1F
100
AcDbEntity
  8
0
  6
Continuous
 62
     7
370
     0
100
AcDbBlockReference
  2
SW_NOTE_0
 10
311.135841575
 20
215.7702394724
 30
0.0
  0
LINE
  5
18D
330
1F
100
AcDbEntity
  8
0
  6
Continuous
 62
     7
370
    15
100
AcDbLine
 10
71.8382831827
 20
73.4330319867
 30
0.0
 11
71.8382831827
 21
69.9689303716
 31
0.0
  0
LINE
  5
18E
330
1F
100
AcDbEntity
  8
0
  6
Continuous
 62
     7
370
    15
100
AcDbLine
 10
71.8382831827
 20
73.4330319867
 30
0.0
 11
106.8382831827
 21
73.4330319867
 31
0.0
  0
LINE
  5
18F
330
1F
100
AcDbEntity
  8
0
  6
Continuous
 62
     7
370
    15
100
AcDbLine
 10
106.8382831827
 20
69.9689303716
 30
0.0
 11
106.8382831827
 21
73.4330319867
 31
0.0
  0
LINE
  5
190
330
1F
100
AcDbEntity
  8
0
  6
Continuous
 62
     7
370
    15
100
AcDbLine
 10
71.8382831827
 20
69.9689303716
 30
0.0
 11
106.8382831827
 21
69.9689303716
 31
0.0
  0
LINE
  5
191
330
1F
100
AcDbEntity
  8
0
  6
Continuous
 62
     7
370
    15
100
AcDbLine
 10
71.8382831827
 20
69.9689303716
 30
0.0
 11
71.8382831824
 21
65.9737398432
 31
0.0
  0
LINE
  5
192
330
1F
100
AcDbEntity
  8
0
  6
Continuous
 62
     7
370
    15
100
AcDbLine
 10
106.8382831827
 20
65.9737398432
 30
0.0
 11
106.8382831827
 21
69.9689303716
 31
0.0
  0
LINE
  5
193
330
1F
100
AcDbEntity
  8
0
  6
Continuous
 62
     7
370
    15
100
AcDbLine
 10
71.8382831824
 20
65.9737398432
 30
0.0
 11
106.8382831827
 21
65.9737398432
 31
0.0
  0
LINE
  5
194
330
1F
100
AcDbEntity
  8
0
  6
Continuous
 62
     7
370
    15
100
AcDbLine
 10
106.8382831827
 20
49.7727779489
 30
0.0
 11
106.8382831827
 21
53.236879564
 31
0.0
  0
LINE
  5
195
330
1F
100
AcDbEntity
  8
0
  6
Continuous
 62
     7
370
    15
100
AcDbLine
 10
106.8382831827
 20
49.7727779489
 30
0.0
 11
71.8382831827
 21
49.7727779489
 31
0.0
  0
LINE
  5
196
330
1F
100
AcDbEntity
  8
0
  6
Continuous
 62
     7
370
    15
100
AcDbLine
 10
71.8382831827
 20
53.236879564
 30
0.0
 11
71.8382831827
 21
49.7727779489
 31
0.0
  0
LINE
  5
197
330
1F
100
AcDbEntity
  8
0
  6
Continuous
 62
     7
370
    15
100
AcDbLine
 10
106.8382831827
 20
53.236879564
 30
0.0
 11
71.8382831827
 21
53.236879564
 31
0.0
  0
LINE
  5
198
330
1F
100
AcDbEntity
  8
0
  6
Continuous
 62
     7
370
    15
100
AcDbLine
 10
106.8382831828
 20
57.2320700924
 30
0.0
 11
71.8382831827
 21
57.2320700924
 31
0.0
  0
LINE
  5
199
330
1F
100
AcDbEntity
  8
0
  6
Continuous
 62
     7
370
    15
100
AcDbLine
 10
71.8382831827
 20
57.2320700924
 30
0.0
 11
71.8382831827
 21
53.236879564
 31
0.0
  0
LINE
  5
19A
330
1F
100
AcDbEntity
  8
0
  6
Continuous
 62
     7
370
    15
100
AcDbLine
 10
106.8382831827
 20
53.236879564
 30
0.0
 11
106.8382831828
 21
57.2320700924
 31
0.0
  0
LINE
  5
19B
330
1F
100
AcDbEntity
  8
0
  6
Continuous
 62
     7
370
    15
100
AcDbLine
 10
71.8382831827
 20
57.2320700924
 30
0.0
 11
71.8382831827
 21
58.1029049678
 31
0.0
  0
LINE
  5
19C
330
1F
100
AcDbEntity
  8
0
  6
Continuous
 62
     7
370
    15
100
AcDbLine
 10
71.8382831827
 20
58.1029049678
 30
0.0
 11
106.8382831827
 21
58.1029049678
 31
0.0
  0
LINE
  5
19D
330
1F
100
AcDbEntity
  8
0
  6
Continuous
 62
     7
370
    15
100
AcDbLine
 10
106.8382831828
 20
57.2320700924
 30
0.0
 11
106.8382831827
 21
58.1029049678
 31
0.0
  0
LINE
  5
19E
330
1F
100
AcDbEntity
  8
0
  6
Continuous
 62
     7
370
    15
100
AcDbLine
 10
71.8382831824
 20
65.1029049678
 30
0.0
 11
106.8382831827
 21
65.1029049678
 31
0.0
  0
LINE
  5
19F
330
1F
100
AcDbEntity
  8
0
  6
Continuous
 62
     7
370
    15
100
AcDbLine
 10
106.8382831827
 20
65.9737398432
 30
0.0
 11
106.8382831827
 21
65.1029049678
 31
0.0
  0
LINE
  5
1A0
330
1F
100
AcDbEntity
  8
0
  6
Continuous
 62
     7
370
    15
100
AcDbLine
 10
71.8382831824
 20
65.9737398432
 30
0.0
 11
71.8382831824
 21
65.1029049678
 31
0.0
  0
LINE
  5
1A1
330
1F
100
AcDbEntity
  8
0
  6
Continuous
 62
     7
370
    15
100
AcDbLine
 10
120.7300848707
 20
75.8210953314
 30
0.0
 11
116.7338919844
 21
75.9955728809
 31
0.0
  0
LINE
  5
1A2
330
1F
100
AcDbEntity
  8
0
  6
Continuous
 62
     7
370
    15
100
AcDbLine
 10
120.5335356888
 20
71.3193789499
 30
0.0
 11
120.7300848707
 21
75.8210953314
 31
0.0
  0
LINE
  5
1A3
330
1F
100
AcDbEntity
  8
0
  6
Continuous
 62
     7
370
    15
100
AcDbLine
 10
116.5373428025
 20
71.4938564994
 30
0.0
 11
120.5335356888
 21
71.3193789499
 31
0.0
  0
LINE
  5
1A4
330
1F
100
AcDbEntity
  8
0
  6
Continuous
 62
     7
370
    15
100
AcDbLine
 10
116.5373428025
 20
71.4938564994
 30
0.0
 11
116.7338919844
 21
75.9955728809
 31
0.0
  0
ARC
  5
1A5
330
1F
100
AcDbEntity
  8
0
  6
Continuous
 62
     7
370
    15
100
AcDbCircle
 10
114.2362714304
 20
76.1046213493
 30
0.0
 40
6.499999999999989
100
AcDbArc
 50
357.5
 51
85.0
  0
ARC
  5
1A6
330
1F
100
AcDbEntity
  8
0
  6
Continuous
 62
     7
370
    15
100
AcDbCircle
 10
114.2362714304
 20
76.1046213493
 30
0.0
 40
2.500000000000027
100
AcDbArc
 50
357.5
 51
85.0
  0
LINE
  5
1A7
330
1F
100
AcDbEntity
  8
0
  6
Continuous
 62
     7
370
    15
100
AcDbLine
 10
114.4541607873
 20
78.5951080945
 30
0.0
 11
114.8027837583
 21
82.5798868869
 31
0.0
  0
LINE
  5
1A8
330
1F
100
AcDbEntity
  8
0
  6
Continuous
 62
     7
370
    15
100
AcDbLine
 10
66.8562864676
 20
86.7746618556
 30
0.0
 11
66.5076634966
 21
82.7898830632
 31
0.0
  0
LINE
  5
1A9
330
1F
100
AcDbEntity
  8
0
  6
Continuous
 62
     7
370
    15
100
AcDbLine
 10
114.8027837583
 20
82.5798868869
 30
0.0
 11
66.8562864676
 21
86.7746618556
 31
0.0
  0
LINE
  5
1AA
330
1F
100
AcDbEntity
  8
0
  6
Continuous
 62
     7
370
    15
100
AcDbLine
 10
114.4541607873
 20
78.5951080945
 30
0.0
 11
66.5076634966
 21
82.7898830632
 31
0.0
  0
ARC
  5
1AB
330
1F
100
AcDbEntity
  8
0
  6
Continuous
 62
     7
370
    15
100
AcDbCircle
 10
66.2897741398
 20
80.299396318
 30
0.0
 40
6.500000000000004
100
AcDbArc
 50
85.0
 51
175.0
  0
LINE
  5
1AC
330
1F
100
AcDbEntity
  8
0
  6
Continuous
 62
     7
370
    15
100
AcDbLine
 10
63.7992873945
 20
80.5172856749
 30
0.0
 11
59.8145086022
 21
80.8659086459
 31
0.0
  0
ARC
  5
1AD
330
1F
100
AcDbEntity
  8
0
  6
Continuous
 62
     7
370
    15
100
AcDbCircle
 10
66.2897741398
 20
80.299396318
 30
0.0
 40
2.500000000000025
100
AcDbArc
 50
85.0
 51
175.0
  0
LINE
  5
1AE
330
1F
100
AcDbEntity
  8
0
  6
Continuous
 62
     7
370
    15
100
AcDbLine
 10
58.0912888978
 20
61.1694172957
 30
0.0
 11
62.0760676902
 21
60.8207943247
 31
0.0
  0
LINE
  5
1AF
330
1F
100
AcDbEntity
  8
0
  6
Continuous
 62
     7
370
    15
100
AcDbLine
 10
59.8145086022
 20
80.8659086459
 30
0.0
 11
58.0912888978
 21
61.1694172957
 31
0.0
  0
LINE
  5
1B0
330
1F
100
AcDbEntity
  8
0
  6
Continuous
 62
     7
370
    15
100
AcDbLine
 10
63.7992873945
 20
80.5172856749
 30
0.0
 11
62.0760676902
 21
60.8207943247
 31
0.0
  0
ARC
  5
1B1
330
1F
100
AcDbEntity
  8
0
  6
Continuous
 62
     7
370
    15
100
AcDbCircle
 10
64.5665544354
 20
60.6029049678
 30
0.0
 40
6.500000000000007
100
AcDbArc
 50
175.0
 51
270.0
  0
ARC
  5
1B2
330
1F
100
AcDbEntity
  8
0
  6
Continuous
 62
     7
370
    15
100
AcDbCircle
 10
64.5665544354
 20
60.6029049678
 30
0.0
 40
2.5
100
AcDbArc
 50
175.0
 51
270.0
  0
LINE
  5
1B3
330
1F
100
AcDbEntity
  8
0
  6
Continuous
 62
     7
370
    15
100
AcDbLine
 10
64.5665544354
 20
58.1029049678
 30
0.0
 11
64.5665544354
 21
54.1029049678
 31
0.0
  0
LINE
  5
1B4
330
1F
100
AcDbEntity
  8
0
  6
Continuous
 62
     7
370
    15
100
AcDbLine
 10
64.5665544354
 20
54.1029049678
 30
0.0
 11
71.8382831827
 21
54.1029049678
 31
0.0
  0
LINE
  5
1B5
330
1F
100
AcDbEntity
  8
0
  6
Continuous
 62
     7
370
    15
100
AcDbLine
 10
64.5665544354
 20
58.1029049678
 30
0.0
 11
71.8382831827
 21
58.1029049678
 31
0.0
  0
LINE
  5
1B6
330
1F
100
AcDbEntity
  8
0
  6
Continuous
 62
     7
370
    15
100
AcDbLine
 10
114.0397222485
 20
65.1029049678
 30
0.0
 11
114.0397222485
 21
69.1029049678
 31
0.0
  0
LINE
  5
1B7
330
1F
100
AcDbEntity
  8
0
  6
Continuous
 62
     7
370
    15
100
AcDbLine
 10
106.8382831827
 20
65.1029049678
 30
0.0
 11
114.0397222485
 21
65.1029049678
 31
0.0
  0
LINE
  5
1B8
330
1F
100
AcDbEntity
  8
0
  6
Continuous
 62
     7
370
    15
100
AcDbLine
 10
106.8382831827
 20
69.1029049678
 30
0.0
 11
114.0397222485
 21
69.1029049678
 31
0.0
  0
ARC
  5
1B9
330
1F
100
AcDbEntity
  8
0
  6
Continuous
 62
     7
370
    15
100
AcDbCircle
 10
114.0397222485
 20
71.6029049678
 30
0.0
 40
2.5
100
AcDbArc
 50
270.0
 51
357.5
  0
ARC
  5
1BA
330
1F
100
AcDbEntity
  8
0
  6
Continuous
 62
     7
370
    15
100
AcDbCircle
 10
114.0397222485
 20
71.6029049678
 30
0.0
 40
6.499999999999986
100
AcDbArc
 50
270.0
 51
357.5
  0
LINE
  5
1BB
330
1F
100
AcDbEntity
  8
0
  6
Continuous
 62
     7
370
    15
100
AcDbLine
 10
109.3382831827
 20
51.6029049678
 30
0.0
 11
113.3382831827
 21
51.6029049678
 31
0.0
  0
ARC
  5
1BC
330
1F
100
AcDbEntity
  8
0
  6
Continuous
 62
     7
370
    15
100
AcDbCircle
 10
106.8382831827
 20
51.6029049678
 30
0.0
 40
2.5
100
AcDbArc
 50
0.0
 51
90.0
  0
ARC
  5
1BD
330
1F
100
AcDbEntity
  8
0
  6
Continuous
 62
     7
370
    15
100
AcDbCircle
 10
106.8382831827
 20
51.6029049678
 30
0.0
 40
6.500000000000014
100
AcDbArc
 50
0.0000000001
 51
90.0
  0
LINE
  5
1BE
330
1F
100
AcDbEntity
  8
0
  6
Continuous
 62
     7
370
    15
100
AcDbLine
 10
113.3382831827
 20
51.6029049678
 30
0.0
 11
113.3382831827
 21
46.6029049678
 31
0.0
  0
LINE
  5
1BF
330
1F
100
AcDbEntity
  8
0
  6
Continuous
 62
     7
370
    15
100
AcDbLine
 10
109.3382831827
 20
51.6029049678
 30
0.0
 11
109.3382831827
 21
46.6029049678
 31
0.0
  0
LINE
  5
1C0
330
1F
100
AcDbEntity
  8
0
  6
Continuous
 62
     7
370
    15
100
AcDbLine
 10
109.3382831827
 20
46.6029049678
 30
0.0
 11
113.3382831827
 21
46.6029049678
 31
0.0
  0
POINT
  5
1C1
330
1F
100
AcDbEntity
  8
0
  6
Continuous
 62
     7
370
     0
100
AcDbPoint
 10
66.2897741398
 20
86.799396318
 30
0.0
  0
POINT
  5
1C2
330
1F
100
AcDbEntity
  8
0
  6
Continuous
 62
     7
370
     0
100
AcDbPoint
 10
58.0665544354
 20
60.6029049678
 30
0.0
  0
POINT
  5
1C3
330
1F
100
AcDbEntity
  8
0
  6
Continuous
 62
     7
370
     0
100
AcDbPoint
 10
120.7362714304
 20
76.1046213493
 30
0.0
  0
DIMENSION
  5
1C4
330
1F
100
AcDbEntity
  8
0
  6
Continuous
 62
     7
370
     0
100
AcDbDimension
  2
_D_15
 10
36.0665544354
 20
54.1029049678
 30
0.0
 11
36.0665544354
 21
70.9038948695
 31
0.0
 70
   160
  1
<>
 71
     2
 42
-1.0
  3
SLDDIMSTYLE1
100
AcDbAlignedDimension
 13
66.2897741398
 23
86.799396318
 33
0.0
 14
64.5665544354
 24
54.1029049678
 34
0.0
 50
90.0
100
AcDbRotatedDimension
  0
DIMENSION
  5
1CE
330
1F
100
AcDbEntity
  8
0
  6
Continuous
 62
     7
370
     0
100
AcDbDimension
  2
_D_16
 10
113.3382831827
 20
21.4050337921
 30
0.0
 11
86.578432107
 21
21.4050337921
 31
0.0
 70
   160
  1
<>
 71
     2
 42
-1.0
  3
SLDDIMSTYLE1
100
AcDbAlignedDimension
 13
58.0665544354
 23
60.6029049678
 33
0.0
 14
113.3382831827
 24
46.6029049678
 34
0.0
 50
0.0
100
AcDbRotatedDimension
  0
DIMENSION
  5
1D8
330
1F
100
AcDbEntity
  8
0
  6
Continuous
 62
     7
370
     0
100
AcDbDimension
  2
_D_17
 10
58.0665544354
 20
15.2511752781
 30
0.0
 11
86.578432107
 21
15.2511752781
 31
0.0
 70
   160
  1
<>
 71
     2
 42
-1.0
  3
SLDDIMSTYLE1
100
AcDbAlignedDimension
 13
120.7362714305
 23
76.1046213493
 33
0.0
 14
58.0665544354
 24
60.6029049678
 34
0.0
100
AcDbRotatedDimension
  0
DIMENSION
  5
1E2
330
1F
100
AcDbEntity
  8
0
  6
Continuous
 62
     7
370
     0
100
AcDbDimension
  2
_D_18
 10
113.3382831827
 20
36.6029049678
 30
0.0
 11
96.6712969525
 21
36.6029049678
 31
0.0
 70
   160
  1
<>
 71
     2
 42
-1.0
  3
SLDDIMSTYLE4
100
AcDbAlignedDimension
 13
109.3382831827
 23
46.6029049678
 33
0.0
 14
113.3382831827
 24
46.6029049678
 34
0.0
100
AcDbRotatedDimension
  0
DIMENSION
  5
1EF
330
1F
100
AcDbEntity
  8
0
  6
Continuous
 62
     7
370
     0
100
AcDbDimension
  2
_D_19
 10
106.8382831827
 20
30.6029049678
 30
0.0
 11
96.6712969525
 21
30.6029049678
 31
0.0
 70
   160
  1
<>
 71
     2
 42
-1.0
  3
SLDDIMSTYLE2
100
AcDbAlignedDimension
 13
113.3382831827
 23
46.6029049678
 33
0.0
 14
106.8382831827
 24
53.236879564
 34
0.0
100
AcDbRotatedDimension
  0
DIMENSION
  5
1FB
330
1F
100
AcDbEntity
  8
0
  6
Continuous
 62
     7
370
     0
100
AcDbDimension
  2
_D_20
 10
59.8145086022
 20
80.8659086459
 30
0.0
 11
43.5427234825
 21
66.167093664
 31
0.0
 70
   162
  1
<>
 71
     1
 42
-1.0
  3
SLDDIMSTYLE5
100
AcDb2LineAngularDimension
 13
64.5665544354
 23
58.1029049678
 33
0.0
 14
106.8382831827
 24
58.1029049678
 34
0.0
 15
58.0912888978
 25
61.1694172957
 35
0.0
 16
46.7433749692
 26
70.194198135
 36
0.0
  0
DIMENSION
  5
205
330
1F
100
AcDbEntity
  8
0
  6
Continuous
 62
     7
370
     0
100
AcDbDimension
  2
_D_21
 10
114.8027837583
 20
82.5798868869
 30
0.0
 11
75.3073245418
 21
91.5786698477
 31
0.0
 70
   162
  1
<>
 71
     1
 42
-1.0
  3
SLDDIMSTYLE5
100
AcDb2LineAngularDimension
 13
63.7992873945
 23
80.5172856749
 33
0.0
 14
62.0760676902
 24
60.8207943247
 34
0.0
 15
66.8562864676
 25
86.7746618556
 35
0.0
 16
73.4539880711
 26
94.618446704
 36
0.0
  0
DIMENSION
  5
20E
330
1F
100
AcDbEntity
  8
0
  6
Continuous
 62
     7
370
     0
100
AcDbDimension
  2
_D_22
 10
64.5665544354
 20
58.1029049678
 30
0.0
 11
107.1251824764
 21
51.8898042615
 31
0.0
 70
   162
  1
<>
 71
     1
 42
-1.0
  3
SLDDIMSTYLE6
100
AcDb2LineAngularDimension
 13
113.3382831827
 23
46.6029049678
 33
0.0
 14
113.3382831827
 24
51.6029049678
 34
0.0
 15
106.8382831827
 25
58.1029049678
 35
0.0
 16
107.1251824764
 26
51.8898042615
 36
0.0
  0
DIMENSION
  5
21B
330
1F
100
AcDbEntity
  8
0
  6
Continuous
 62
     7
370
     0
100
AcDbDimension
  2
_D_23
 10
71.8382831824
 20
69.1029049678
 30
0.0
 11
111.0042597347
 21
63.90606307
 31
0.0
 70
   162
  1
<>
 71
     1
 42
-1.0
  3
SLDDIMSTYLE7
100
AcDb2LineAngularDimension
 13
116.5373428025
 23
71.4938564994
 33
0.0
 14
116.7338919844
 24
75.9955728809
 34
0.0
 15
114.0397222485
 25
69.1029049678
 35
0.0
 16
111.0042597347
 26
63.90606307
 36
0.0
  0
DIMENSION
  5
229
330
1F
100
AcDbEntity
  8
0
  6
Continuous
 62
     7
370
     0
100
AcDbDimension
  2
_D_24
 10
116.5373428025
 20
71.4938564994
 30
0.0
 11
120.7604824649
 21
73.9141132957
 31
0.0
 70
   162
  1
<>
 71
     1
 42
-1.0
  3
SLDDIMSTYLE8
100
AcDb2LineAngularDimension
 13
114.4541607873
 23
78.5951080945
 33
0.0
 14
66.5076634966
 24
82.7898830632
 34
0.0
 15
116.7338919844
 25
75.9955728809
 35
0.0
 16
120.7604824649
 26
73.9141132957
 36
0.0
  0
DIMENSION
  5
237
330
1F
100
AcDbEntity
  8
0
  6
Continuous
 62
     7
370
     0
100
AcDbDimension
  2
_D_25
 10
64.5665544354
 20
27.4334348493
 30
0.0
 11
86.578432107
 21
27.4334348493
 31
0.0
 70
   160
  1
<>
 71
     2
 42
-1.0
  3
SLDDIMSTYLE1
100
AcDbAlignedDimension
 13
106.8382831827
 23
49.7727779489
 33
0.0
 14
64.5665544354
 24
54.1029049678
 34
0.0
100
AcDbRotatedDimension
  0
DIMENSION
  5
241
330
1F
100
AcDbEntity
  8
0
  6
Continuous
 62
     7
370
     0
100
AcDbDimension
  2
_D_26
 10
106.8382831827
 20
41.9843203395
 30
0.0
 11
97.0464876403
 21
41.9843203395
 31
0.0
 70
   160
  1
<>
 71
     2
 42
-1.0
  3
SLDDIMSTYLE2
100
AcDbAlignedDimension
 13
109.3382831827
 23
46.6029049678
 33
0.0
 14
106.8382831827
 24
49.7727779489
 34
0.0
100
AcDbRotatedDimension
  0
LINE
  5
24D
330
1F
100
AcDbEntity
  8
0
  6
Continuous
 62
     7
370
    15
100
AcDbLine
 10
288.728598164
 20
86.799396318
 30
0.0
 11
188.728598164
 21
86.799396318
 31
0.0
  0
LINE
  5
24E
330
1F
100
AcDbEntity
  8
0
  6
Continuous
 62
     7
370
    15
100
AcDbLine
 10
188.728598164
 20
75.8210953314
 30
0.0
 11
188.728598164
 21
82.5798868869
 31
0.0
  0
LINE
  5
24F
330
1F
100
AcDbEntity
  8
0
  6
Continuous
 62
     7
370
    15
100
AcDbLine
 10
188.728598164
 20
82.5798868869
 30
0.0
 11
288.728598164
 21
82.5798868869
 31
0.0
  0
LINE
  5
250
330
1F
100
AcDbEntity
  8
0
  6
Continuous
 62
     7
370
    15
100
AcDbLine
 10
288.728598164
 20
75.8210953314
 30
0.0
 11
288.728598164
 21
82.5798868869
 31
0.0
  0
LINE
  5
251
330
1F
100
AcDbEntity
  8
0
  6
Continuous
 62
     7
370
    15
100
AcDbLine
 10
188.728598164
 20
75.8210953314
 30
0.0
 11
288.728598164
 21
75.8210953314
 31
0.0
  0
LINE
  5
252
330
1F
100
AcDbEntity
  8
0
  6
Continuous
 62
     7
370
    15
100
AcDbLine
 10
188.728598164
 20
71.3193789499
 30
0.0
 11
188.728598164
 21
75.8210953314
 31
0.0
  0
LINE
  5
253
330
1F
100
AcDbEntity
  8
0
  6
Continuous
 62
     7
370
    15
100
AcDbLine
 10
288.728598164
 20
71.3193789499
 30
0.0
 11
288.728598164
 21
75.8210953314
 31
0.0
  0
LINE
  5
254
330
1F
100
AcDbEntity
  8
0
  6
Continuous
 62
     7
370
    15
100
AcDbLine
 10
188.728598164
 20
71.3193789499
 30
0.0
 11
288.728598164
 21
71.3193789499
 31
0.0
  0
LINE
  5
255
330
1F
100
AcDbEntity
  8
0
  6
Continuous
 62
     7
370
    15
100
AcDbLine
 10
188.728598164
 20
65.1029049678
 30
0.0
 11
188.728598164
 21
71.3193789499
 31
0.0
  0
LINE
  5
256
330
1F
100
AcDbEntity
  8
0
  6
Continuous
 62
     7
370
    15
100
AcDbLine
 10
188.728598164
 20
65.1029049678
 30
0.0
 11
288.728598164
 21
65.1029049678
 31
0.0
  0
LINE
  5
257
330
1F
100
AcDbEntity
  8
0
  6
Continuous
 62
     7
370
    15
100
AcDbLine
 10
288.728598164
 20
65.1029049678
 30
0.0
 11
288.728598164
 21
71.3193789499
 31
0.0
  0
LINE
  5
258
330
1F
100
AcDbEntity
  8
0
  6
Continuous
 62
     7
370
    15
100
AcDbLine
 10
188.728598164
 20
82.5798868869
 30
0.0
 11
188.728598164
 21
86.7746618556
 31
0.0
  0
LINE
  5
259
330
1F
100
AcDbEntity
  8
0
  6
Continuous
 62
     7
370
    15
100
AcDbLine
 10
188.728598164
 20
86.7746618556
 30
0.0
 11
288.728598164
 21
86.7746618556
 31
0.0
  0
LINE
  5
25A
330
1F
100
AcDbEntity
  8
0
  6
Continuous
 62
     7
370
    15
100
AcDbLine
 10
288.728598164
 20
82.5798868869
 30
0.0
 11
288.728598164
 21
86.7746618556
 31
0.0
  0
LINE
  5
25B
330
1F
100
AcDbEntity
  8
0
  6
Continuous
 62
     7
370
    15
100
AcDbLine
 10
224.978598164
 20
58.1029049678
 30
0.0
 11
224.978598164
 21
51.6029049678
 31
0.0
  0
LINE
  5
25C
330
1F
100
AcDbEntity
  8
0
  6
Continuous
 62
     7
370
    15
100
AcDbLine
 10
224.978598164
 20
58.1029049678
 30
0.0
 11
252.478598164
 21
58.1029049678
 31
0.0
  0
LINE
  5
25D
330
1F
100
AcDbEntity
  8
0
  6
Continuous
 62
     7
370
    15
100
AcDbLine
 10
252.478598164
 20
51.6029049678
 30
0.0
 11
224.978598164
 21
51.6029049678
 31
0.0
  0
LINE
  5
25E
330
1F
100
AcDbEntity
  8
0
  6
Continuous
 62
     7
370
    15
100
AcDbLine
 10
252.478598164
 20
58.1029049678
 30
0.0
 11
252.478598164
 21
51.6029049678
 31
0.0
  0
LINE
  5
25F
330
1F
100
AcDbEntity
  8
0
  6
Continuous
 62
     7
370
    15
100
AcDbLine
 10
224.978598164
 20
51.6029049678
 30
0.0
 11
224.978598164
 21
46.6029049678
 31
0.0
  0
LINE
  5
260
330
1F
100
AcDbEntity
  8
0
  6
Continuous
 62
     7
370
    15
100
AcDbLine
 10
252.478598164
 20
51.6029049678
 30
0.0
 11
252.478598164
 21
46.6029049678
 31
0.0
  0
LINE
  5
261
330
1F
100
AcDbEntity
  8
0
  6
Continuous
 62
     7
370
    15
100
AcDbLine
 10
252.478598164
 20
46.6029049678
 30
0.0
 11
224.978598164
 21
46.6029049678
 31
0.0
  0
LINE
  5
262
330
1F
100
AcDbEntity
  8
0
  6
Continuous
 62
     7
370
    15
100
AcDbLine
 10
296.8984711451
 20
49.7727779489
 30
0.0
 11
289.978598164
 21
53.7679684773
 31
0.0
  0
LINE
  5
263
330
1F
100
AcDbEntity
  8
0
  6
Continuous
 62
     7
370
    15
100
AcDbLine
 10
289.978598164
 20
53.7679684773
 30
0.0
 11
291.978598164
 21
57.2320700924
 31
0.0
  0
LINE
  5
264
330
1F
100
AcDbEntity
  8
0
  6
Continuous
 62
     7
370
    15
100
AcDbLine
 10
298.8984711451
 20
53.236879564
 30
0.0
 11
291.978598164
 21
57.2320700924
 31
0.0
  0
LINE
  5
265
330
1F
100
AcDbEntity
  8
0
  6
Continuous
 62
     7
370
    15
100
AcDbLine
 10
296.8984711451
 20
49.7727779489
 30
0.0
 11
298.8984711451
 21
53.236879564
 31
0.0
  0
LINE
  5
266
330
1F
100
AcDbEntity
  8
0
  6
Continuous
 62
     7
370
    15
100
AcDbLine
 10
288.728598164
 20
58.1029049678
 30
0.0
 11
288.728598164
 21
54.1029049678
 31
0.0
  0
ARC
  5
267
330
1F
100
AcDbEntity
  8
0
  6
Continuous
 62
     7
370
    15
100
AcDbCircle
 10
288.728598164
 20
51.6029049678
 30
0.0
 40
2.500000000000036
100
AcDbArc
 50
60.0
 51
90.0
  0
ARC
  5
268
330
1F
100
AcDbEntity
  8
0
  6
Continuous
 62
     7
370
    15
100
AcDbCircle
 10
288.728598164
 20
51.6029049678
 30
0.0
 40
6.500000000000047
100
AcDbArc
 50
60.0
 51
90.0
  0
LINE
  5
269
330
1F
100
AcDbEntity
  8
0
  6
Continuous
 62
     7
370
    15
100
AcDbLine
 10
288.728598164
 20
58.1029049678
 30
0.0
 11
254.978598164
 21
58.1029049678
 31
0.0
  0
LINE
  5
26A
330
1F
100
AcDbEntity
  8
0
  6
Continuous
 62
     7
370
    15
100
AcDbLine
 10
288.728598164
 20
54.1029049678
 30
0.0
 11
254.978598164
 21
54.1029049678
 31
0.0
  0
LINE
  5
26B
330
1F
100
AcDbEntity
  8
0
  6
Continuous
 62
     7
370
    15
100
AcDbLine
 10
254.978598164
 20
54.1029049678
 30
0.0
 11
254.978598164
 21
58.1029049678
 31
0.0
  0
LINE
  5
26C
330
1F
100
AcDbEntity
  8
0
  6
Continuous
 62
     7
370
    15
100
AcDbLine
 10
188.728598164
 20
58.1029049678
 30
0.0
 11
188.728598164
 21
54.1029049678
 31
0.0
  0
LINE
  5
26D
330
1F
100
AcDbEntity
  8
0
  6
Continuous
 62
     7
370
    15
100
AcDbLine
 10
188.728598164
 20
58.1029049678
 30
0.0
 11
222.478598164
 21
58.1029049678
 31
0.0
  0
LINE
  5
26E
330
1F
100
AcDbEntity
  8
0
  6
Continuous
 62
     7
370
    15
100
AcDbLine
 10
222.478598164
 20
54.1029049678
 30
0.0
 11
222.478598164
 21
58.1029049678
 31
0.0
  0
LINE
  5
26F
330
1F
100
AcDbEntity
  8
0
  6
Continuous
 62
     7
370
    15
100
AcDbLine
 10
188.728598164
 20
54.1029049678
 30
0.0
 11
222.478598164
 21
54.1029049678
 31
0.0
  0
LINE
  5
270
330
1F
100
AcDbEntity
  8
0
  6
Continuous
 62
     7
370
    15
100
AcDbLine
 10
178.5587251829
 20
53.236879564
 30
0.0
 11
185.478598164
 21
57.2320700924
 31
0.0
  0
LINE
  5
271
330
1F
100
AcDbEntity
  8
0
  6
Continuous
 62
     7
370
    15
100
AcDbLine
 10
187.478598164
 20
53.7679684773
 30
0.0
 11
185.478598164
 21
57.2320700924
 31
0.0
  0
LINE
  5
272
330
1F
100
AcDbEntity
  8
0
  6
Continuous
 62
     7
370
    15
100
AcDbLine
 10
180.5587251829
 20
49.7727779489
 30
0.0
 11
187.478598164
 21
53.7679684773
 31
0.0
  0
LINE
  5
273
330
1F
100
AcDbEntity
  8
0
  6
Continuous
 62
     7
370
    15
100
AcDbLine
 10
180.5587251829
 20
49.7727779489
 30
0.0
 11
178.5587251829
 21
53.236879564
 31
0.0
  0
ARC
  5
274
330
1F
100
AcDbEntity
  8
0
  6
Continuous
 62
     7
370
    15
100
AcDbCircle
 10
188.728598164
 20
51.6029049678
 30
0.0
 40
6.500000000000019
100
AcDbArc
 50
90.0
 51
120.0
  0
ARC
  5
275
330
1F
100
AcDbEntity
  8
0
  6
Continuous
 62
     7
370
    15
100
AcDbCircle
 10
188.728598164
 20
51.6029049678
 30
0.0
 40
2.5
100
AcDbArc
 50
90.0
 51
120.0
  0
LINE
  5
276
330
1F
100
AcDbEntity
  8
0
  6
Continuous
 62
     7
370
    15
100
AcDbLine
 10
291.978598164
 20
65.9737398432
 30
0.0
 11
298.8984711451
 21
69.9689303716
 31
0.0
  0
LINE
  5
277
330
1F
100
AcDbEntity
  8
0
  6
Continuous
 62
     7
370
    15
100
AcDbLine
 10
291.978598164
 20
65.9737398432
 30
0.0
 11
289.978598164
 21
69.4378414584
 31
0.0
  0
LINE
  5
278
330
1F
100
AcDbEntity
  8
0
  6
Continuous
 62
     7
370
    15
100
AcDbLine
 10
289.978598164
 20
69.4378414584
 30
0.0
 11
296.8984711451
 21
73.4330319867
 31
0.0
  0
LINE
  5
279
330
1F
100
AcDbEntity
  8
0
  6
Continuous
 62
     7
370
    15
100
AcDbLine
 10
298.8984711451
 20
69.9689303716
 30
0.0
 11
296.8984711451
 21
73.4330319867
 31
0.0
  0
ARC
  5
27A
330
1F
100
AcDbEntity
  8
0
  6
Continuous
 62
     7
370
    15
100
AcDbCircle
 10
288.728598164
 20
71.6029049678
 30
0.0
 40
6.500000000000053
100
AcDbArc
 50
270.0
 51
300.0
  0
ARC
  5
27B
330
1F
100
AcDbEntity
  8
0
  6
Continuous
 62
     7
370
    15
100
AcDbCircle
 10
288.728598164
 20
71.6029049678
 30
0.0
 40
2.500000000000036
100
AcDbArc
 50
270.0
 51
300.0
  0
LINE
  5
27C
330
1F
100
AcDbEntity
  8
0
  6
Continuous
 62
     7
370
    15
100
AcDbLine
 10
185.478598164
 20
65.9737398432
 30
0.0
 11
187.478598164
 21
69.4378414584
 31
0.0
  0
LINE
  5
27D
330
1F
100
AcDbEntity
  8
0
  6
Continuous
 62
     7
370
    15
100
AcDbLine
 10
185.478598164
 20
65.9737398432
 30
0.0
 11
178.5587251829
 21
69.9689303716
 31
0.0
  0
LINE
  5
27E
330
1F
100
AcDbEntity
  8
0
  6
Continuous
 62
     7
370
    15
100
AcDbLine
 10
178.5587251829
 20
69.9689303716
 30
0.0
 11
180.5587251829
 21
73.4330319867
 31
0.0
  0
LINE
  5
27F
330
1F
100
AcDbEntity
  8
0
  6
Continuous
 62
     7
370
    15
100
AcDbLine
 10
187.478598164
 20
69.4378414584
 30
0.0
 11
180.5587251829
 21
73.4330319867
 31
0.0
  0
ARC
  5
280
330
1F
100
AcDbEntity
  8
0
  6
Continuous
 62
     7
370
    15
100
AcDbCircle
 10
188.728598164
 20
71.6029049678
 30
0.0
 40
2.5
100
AcDbArc
 50
240.0
 51
270.0
  0
ARC
  5
281
330
1F
100
AcDbEntity
  8
0
  6
Continuous
 62
     7
370
    15
100
AcDbCircle
 10
188.728598164
 20
71.6029049678
 30
0.0
 40
6.500000000000025
100
AcDbArc
 50
240.0
 51
270.0
  0
LINE
  5
282
330
1F
100
AcDbEntity
  8
0
  6
Continuous
 62
     7
370
    15
100
AcDbLine
 10
254.978598164
 20
58.1029049678
 30
0.0
 11
252.478598164
 21
58.1029049678
 31
0.0
  0
LINE
  5
283
330
1F
100
AcDbEntity
  8
0
  6
Continuous
 62
     7
370
    15
100
AcDbLine
 10
254.978598164
 20
54.1029049678
 30
0.0
 11
252.478598164
 21
54.1029049678
 31
0.0
  0
LINE
  5
284
330
1F
100
AcDbEntity
  8
0
  6
Continuous
 62
     7
370
    15
100
AcDbLine
 10
222.478598164
 20
58.1029049678
 30
0.0
 11
224.978598164
 21
58.1029049678
 31
0.0
  0
LINE
  5
285
330
1F
100
AcDbEntity
  8
0
  6
Continuous
 62
     7
370
    15
100
AcDbLine
 10
222.478598164
 20
54.1029049678
 30
0.0
 11
224.978598164
 21
54.1029049678
 31
0.0
  0
LINE
  5
286
330
1F
100
AcDbEntity
  8
0
  6
Continuous
 62
     7
370
    15
100
AcDbLine
 10
188.728598164
 20
86.7746618556
 30
0.0
 11
188.728598164
 21
86.799396318
 31
0.0
  0
LINE
  5
287
330
1F
100
AcDbEntity
  8
0
  6
Continuous
 62
     7
370
    15
100
AcDbLine
 10
288.728598164
 20
86.7746618556
 30
0.0
 11
288.728598164
 21
86.799396318
 31
0.0
  0
LINE
  5
288
330
1F
100
AcDbEntity
  8
0
  6
Continuous
 62
     7
370
    15
100
AcDbLine
 10
188.728598164
 20
60.8207943247
 30
0.0
 11
188.728598164
 21
58.1029049678
 31
0.0
  0
LINE
  5
289
330
1F
100
AcDbEntity
  8
0
  6
Continuous
 62
     7
370
    15
100
AcDbLine
 10
188.728598164
 20
60.8207943247
 30
0.0
 11
288.728598164
 21
60.8207943247
 31
0.0
  0
LINE
  5
28A
330
1F
100
AcDbEntity
  8
0
  6
Continuous
 62
     7
370
    15
100
AcDbLine
 10
288.728598164
 20
60.8207943247
 30
0.0
 11
288.728598164
 21
58.1029049678
 31
0.0
  0
LINE
  5
28B
330
1F
100
AcDbEntity
  8
0
  6
Continuous
 62
     7
370
    15
100
AcDbLine
 10
188.728598164
 20
65.1029049678
 30
0.0
 11
188.728598164
 21
60.8207943247
 31
0.0
  0
LINE
  5
28C
330
1F
100
AcDbEntity
  8
0
  6
Continuous
 62
     7
370
    15
100
AcDbLine
 10
288.728598164
 20
65.1029049678
 30
0.0
 11
288.728598164
 21
60.8207943247
 31
0.0
  0
DIMENSION
  5
28D
330
1F
100
AcDbEntity
  8
0
  6
Continuous
 62
     7
370
     0
100
AcDbDimension
  2
_D_27
 10
188.728598164
 20
65.1029049678
 30
0.0
 11
314.898471145
 21
70.8667073971
 31
0.0
 70
   162
  1
<>
 71
     1
 42
-1.0
  3
SLDDIMSTYLE6
100
AcDb2LineAngularDimension
 13
298.898471145
 23
69.9689303716
 33
0.0
 14
291.978598164
 24
65.9737398432
 34
0.0
 15
288.728598164
 25
65.1029049678
 35
0.0
 16
314.7140158007
 26
71.5989976354
 36
0.0
  0
DIMENSION
  5
297
330
1F
100
AcDbEntity
  8
0
  6
Continuous
 62
     7
370
     0
100
AcDbDimension
  2
_D_28
 10
254.978598164
 20
58.1029049678
 30
0.0
 11
314.898471145
 21
52.0168841792
 31
0.0
 70
   162
  1
<>
 71
     1
 42
-1.0
  3
SLDDIMSTYLE6
100
AcDb2LineAngularDimension
 13
298.898471145
 23
53.236879564
 33
0.0
 14
291.978598164
 24
57.2320700924
 34
0.0
 15
288.728598164
 25
58.1029049678
 35
0.0
 16
314.7873764847
 26
51.5871553642
 36
0.0
  0
DIMENSION
  5
2A1
330
1F
100
AcDbEntity
  8
0
  6
Continuous
 62
     7
370
     0
100
AcDbDimension
  2
_D_29
 10
252.478598164
 20
36.7893287508
 30
0.0
 11
238.9812816633
 21
36.7893287508
 31
0.0
 70
   160
  1
<>
 71
     2
 42
-1.0
  3
SLDDIMSTYLE1
100
AcDbAlignedDimension
 13
224.978598164
 23
46.6029049678
 33
0.0
 14
252.478598164
 24
46.6029049678
 34
0.0
 50
0.0
100
AcDbRotatedDimension
  0
DIMENSION
  5
2AB
330
1F
100
AcDbEntity
  8
0
  6
Continuous
 62
     7
370
     0
100
AcDbDimension
  2
_D_30
 10
288.728598164
 20
30.6029049678
 30
0.0
 11
238.9812816633
 21
30.6029049678
 31
0.0
 70
   160
  1
<>
 71
     2
 42
-1.0
  3
SLDDIMSTYLE1
100
AcDbAlignedDimension
 13
188.728598164
 23
54.1029049678
 33
0.0
 14
288.728598164
 24
54.1029049678
 34
0.0
 50
0.0
100
AcDbRotatedDimension
  0
DIMENSION
  5
2B5
330
1F
100
AcDbEntity
  8
0
  6
Continuous
 62
     7
370
     0
100
AcDbDimension
  2
_D_31
 10
298.898471145
 20
24.6029049678
 30
0.0
 11
238.9812816633
 21
24.6029049678
 31
0.0
 70
   160
  1
<>
 71
     2
 42
-1.0
  3
SLDDIMSTYLE1
100
AcDbAlignedDimension
 13
178.5587251829
 23
53.236879564
 33
0.0
 14
298.898471145
 24
53.236879564
 34
0.0
 50
0.0
100
AcDbRotatedDimension
  0
DIMENSION
  5
2BF
330
1F
100
AcDbEntity
  8
0
  6
Continuous
 62
     7
370
     0
100
AcDbDimension
  2
_D_32
 10
188.728598164
 20
83.8122945779
 30
0.0
 11
170.985911281
 21
83.8122945779
 31
0.0
 70
   160
  1
<>
 71
     2
 42
-1.0
  3
SLDDIMSTYLE1
100
AcDbAlignedDimension
 13
178.5587251829
 23
69.9689303716
 33
0.0
 14
188.728598164
 24
86.7746618556
 34
0.0
 50
0.0
100
AcDbRotatedDimension
  0
DIMENSION
  5
2C9
330
1F
100
AcDbEntity
  8
0
  6
Continuous
 62
     7
370
     0
100
AcDbDimension
  2
_D_33
 10
174.7030598254
 20
58.1029049678
 30
0.0
 11
174.7030598254
 21
36.6029049678
 31
0.0
 70
   160
  1
<>
 71
     2
 42
-1.0
  3
SLDDIMSTYLE4
100
AcDbAlignedDimension
 13
188.728598164
 23
65.1029049678
 33
0.0
 14
188.728598164
 24
58.1029049678
 34
0.0
 50
90.0
100
AcDbRotatedDimension
  0
DIMENSION
  5
2D5
330
1F
100
AcDbEntity
  8
0
  6
Continuous
 62
     7
370
     0
100
AcDbDimension
  2
_D_34
 10
178.5587251829
 20
69.9689303716
 30
0.0
 11
159.8344656478
 21
72.8942429668
 31
0.0
 70
   162
  1
<>
 71
     1
 42
-1.0
  3
SLDDIMSTYLE6
100
AcDb2LineAngularDimension
 13
188.728598164
 23
65.1029049678
 33
0.0
 14
288.728598164
 24
65.1029049678
 34
0.0
 15
185.478598164
 25
65.9737398432
 35
0.0
 16
159.7012560106
 26
72.414078853
 36
0.0
  0
DIMENSION
  5
2DF
330
1F
100
AcDbEntity
  8
0
  6
Continuous
 62
     7
370
     0
100
AcDbDimension
  2
_D_35
 10
185.478598164
 20
57.2320700924
 30
0.0
 11
159.8344656478
 21
52.0168841792
 31
0.0
 70
   162
  1
<>
 71
     1
 42
-1.0
  3
SLDDIMSTYLE6
100
AcDb2LineAngularDimension
 13
188.728598164
 23
58.1029049678
 33
0.0
 14
222.478598164
 24
58.1029049678
 34
0.0
 15
178.5587251829
 25
53.236879564
 35
0.0
 16
160.1089096225
 26
50.9009615387
 36
0.0
  0
DIMENSION
  5
2E9
330
1F
100
AcDbEntity
  8
0
  6
Continuous
 62
     7
370
     0
100
AcDbDimension
  2
_D_36
 10
288.728598164
 20
83.6856555091
 30
0.0
 11
304.8258255695
 21
83.6856555091
 31
0.0
 70
   160
  1
<>
 71
     2
 42
-1.0
  3
SLDDIMSTYLE1
100
AcDbAlignedDimension
 13
298.898471145
 23
69.9689303716
 33
0.0
 14
288.728598164
 24
82.5798868869
 34
0.0
 50
0.0
100
AcDbRotatedDimension
  0
LINE
  5
2F3
330
1F
100
AcDbEntity
  8
0
  6
Continuous
 62
     7
370
    15
100
AcDbLine
 10
86.3522539783
 20
113.6615985668
 30
0.0
 11
157.0629320969
 21
154.482004158
 31
0.0
  0
LINE
  5
2F4
330
1F
100
AcDbEntity
  8
0
  6
Continuous
 62
     7
370
    15
100
AcDbLine
 10
116.7991482258
 20
192.3334019641
 30
0.0
 11
46.0884701071
 21
151.512996373
 31
0.0
  0
ARC
  5
2F5
330
1F
100
AcDbEntity
  8
0
  6
Continuous
 62
     7
370
    15
100
AcDbCircle
 10
77.8225544285
 20
119.7944265497
 30
0.0
 40
10.01296224458403
100
AcDbArc
 50
1.2004887187
 51
54.4650396867
  0
LINE
  5
2F6
330
1F
100
AcDbEntity
  8
0
  6
Continuous
 62
     7
370
    15
100
AcDbLine
 10
83.6420840652
 20
127.9425850974
 30
0.0
 11
154.3527621839
 21
168.7629906885
 31
0.0
  0
ARC
  5
2F7
330
1F
100
AcDbEntity
  8
0
  6
Continuous
 62
     7
370
    15
100
AcDbCircle
 10
148.5332325472
 20
160.6148321408
 30
0.0
 40
10.01296224458409
100
AcDbArc
 50
1.2004887187
 51
54.4650396867
  0
LINE
  5
2F8
330
1F
100
AcDbEntity
  8
0
  6
Continuous
 62
     7
370
    15
100
AcDbLine
 10
87.833318876
 20
120.0042075986
 30
0.0
 11
158.5439969946
 21
160.8246131897
 31
0.0
  0
LINE
  5
2F9
330
1F
100
AcDbEntity
  8
0
  6
Continuous
 62
     7
370
    15
100
AcDbLine
 10
87.833318876
 20
120.0042075986
 30
0.0
 11
85.0075837871
 21
121.7779377829
 31
0.0
  0
ARC
  5
2FA
330
1F
100
AcDbEntity
  8
0
  6
Continuous
 62
     7
370
    15
100
AcDbCircle
 10
81.1572897689
 20
121.6972527641
 30
0.0
 40
3.851139324840148
100
AcDbArc
 50
1.2004887187
 51
54.4650396867
  0
LINE
  5
2FB
330
1F
100
AcDbEntity
  8
0
  6
Continuous
 62
     7
370
    15
100
AcDbLine
 10
83.3955703984
 20
124.8311598978
 30
0.0
 11
83.6420840652
 21
127.9425850974
 31
0.0
  0
LINE
  5
2FC
330
1F
100
AcDbEntity
  8
0
  6
Continuous
 62
     7
370
    15
100
AcDbLine
 10
49.7387906969
 20
150.9397447168
 30
0.0
 11
49.49227703
 21
147.8283195172
 31
0.0
  0
LINE
  5
2FD
330
1F
100
AcDbEntity
  8
0
  6
Continuous
 62
     7
370
    15
100
AcDbLine
 10
83.6420840652
 20
127.9425850974
 30
0.0
 11
49.7387906969
 21
150.9397447168
 31
0.0
  0
LINE
  5
2FE
330
1F
100
AcDbEntity
  8
0
  6
Continuous
 62
     7
370
    15
100
AcDbLine
 10
83.3955703984
 20
124.8311598978
 30
0.0
 11
49.49227703
 21
147.8283195172
 31
0.0
  0
LINE
  5
2FF
330
1F
100
AcDbEntity
  8
0
  6
Continuous
 62
     7
370
    15
100
AcDbLine
 10
49.7387906969
 20
150.9397447168
 30
0.0
 11
120.4494688155
 21
191.7601503079
 31
0.0
  0
LINE
  5
300
330
1F
100
AcDbEntity
  8
0
  6
Continuous
 62
     7
370
    15
100
AcDbLine
 10
154.3527621839
 20
168.7629906885
 30
0.0
 11
120.4494688155
 21
191.7601503079
 31
0.0
  0
LINE
  5
301
330
1F
100
AcDbEntity
  8
0
  6
Continuous
 62
     7
370
    15
100
AcDbLine
 10
87.6943376166
 20
116.4086046228
 30
0.0
 11
87.833318876
 21
120.0042075986
 31
0.0
  0
LINE
  5
302
330
1F
100
AcDbEntity
  8
0
  6
Continuous
 62
     7
370
    15
100
AcDbLine
 10
84.8686025278
 20
118.1823348071
 30
0.0
 11
87.6943376166
 21
116.4086046228
 31
0.0
  0
LINE
  5
303
330
1F
100
AcDbEntity
  8
0
  6
Continuous
 62
     7
370
    15
100
AcDbLine
 10
84.8686025278
 20
118.1823348071
 30
0.0
 11
85.0075837871
 21
121.7779377829
 31
0.0
  0
LINE
  5
304
330
1F
100
AcDbEntity
  8
0
  6
Continuous
 62
     7
370
    15
100
AcDbLine
 10
158.4050157353
 20
157.2290102139
 30
0.0
 11
158.5439969946
 21
160.8246131897
 31
0.0
  0
LINE
  5
305
330
1F
100
AcDbEntity
  8
0
  6
Continuous
 62
     7
370
    15
100
AcDbLine
 10
87.6943376166
 20
116.4086046228
 30
0.0
 11
158.4050157353
 21
157.2290102139
 31
0.0
  0
ARC
  5
306
330
1F
100
AcDbEntity
  8
0
  6
Continuous
 62
     7
370
    15
100
AcDbCircle
 10
84.8986083088
 20
116.1423484746
 30
0.0
 40
2.808379372372678
100
AcDbArc
 50
230.2419616549
 51
5.4402551415
  0
LINE
  5
307
330
1F
100
AcDbEntity
  8
0
  6
Continuous
 62
     7
370
    15
100
AcDbLine
 10
83.1025180972
 20
113.983400895
 30
0.0
 11
83.1025180972
 21
117.2495641426
 31
0.0
  0
ARC
  5
308
330
1F
100
AcDbEntity
  8
0
  6
Continuous
 62
     7
370
    15
100
AcDbCircle
 10
83.7933220247
 20
118.0799285962
 30
0.0
 40
1.080145912451014
100
AcDbArc
 50
230.2419616549
 51
5.4402551415
  0
ARC
  5
309
330
1F
100
AcDbEntity
  8
0
  6
Continuous
 62
     7
370
    15
100
AcDbCircle
 10
155.2498629371
 20
157.0691501968
 30
0.0
 40
3.159199962771182
100
AcDbArc
 50
305.0227301214
 51
2.9004867221
  0
LINE
  5
30A
330
1F
100
AcDbEntity
  8
0
  6
Continuous
 62
     7
370
    15
100
AcDbLine
 10
77.126448223
 20
119.9524550217
 30
0.0
 11
72.2333591131
 21
120.3899709221
 31
0.0
  0
LINE
  5
30B
330
1F
100
AcDbEntity
  8
0
  6
Continuous
 62
     7
370
    15
100
AcDbLine
 10
75.7122346606
 20
116.3074665646
 30
0.0
 11
77.126448223
 21
119.9524550217
 31
0.0
  0
LINE
  5
30C
330
1F
100
AcDbEntity
  8
0
  6
Continuous
 62
     7
370
    15
100
AcDbLine
 10
75.7122346606
 20
116.3074665646
 30
0.0
 11
70.8191455508
 21
116.744982465
 31
0.0
  0
LINE
  5
30D
330
1F
100
AcDbEntity
  8
0
  6
Continuous
 62
     7
370
    15
100
AcDbLine
 10
70.8191455508
 20
116.744982465
 30
0.0
 11
72.2333591131
 21
120.3899709221
 31
0.0
  0
LINE
  5
30E
330
1F
100
AcDbEntity
  8
0
  6
Continuous
 62
     7
370
    15
100
AcDbLine
 10
47.4846217716
 20
134.677112879
 30
0.0
 11
46.0704082092
 21
131.0321244219
 31
0.0
  0
LINE
  5
30F
330
1F
100
AcDbEntity
  8
0
  6
Continuous
 62
     7
370
    15
100
AcDbLine
 10
47.4846217716
 20
134.677112879
 30
0.0
 11
72.2333591131
 21
120.3899709221
 31
0.0
  0
LINE
  5
310
330
1F
100
AcDbEntity
  8
0
  6
Continuous
 62
     7
370
    15
100
AcDbLine
 10
46.0704082092
 20
131.0321244219
 30
0.0
 11
70.8191455508
 21
116.744982465
 31
0.0
  0
LINE
  5
311
330
1F
100
AcDbEntity
  8
0
  6
Continuous
 62
     7
370
    15
100
AcDbLine
 10
47.4846217716
 20
134.677112879
 30
0.0
 11
52.3777108813
 21
134.2395969787
 31
0.0
  0
LINE
  5
312
330
1F
100
AcDbEntity
  8
0
  6
Continuous
 62
     7
370
    15
100
AcDbLine
 10
52.3777108813
 20
134.2395969787
 30
0.0
 11
77.126448223
 21
119.9524550217
 31
0.0
  0
LINE
  5
313
330
1F
100
AcDbEntity
  8
0
  6
Continuous
 62
     7
370
    15
100
AcDbLine
 10
83.1025180972
 20
117.2495641426
 30
0.0
 11
84.8720329341
 21
118.2710833143
 31
0.0
  0
LINE
  5
314
330
1F
100
AcDbEntity
  8
0
  6
Continuous
 62
     7
370
    15
100
AcDbLine
 10
78.0103316995
 20
116.9230575301
 30
0.0
 11
83.1025180972
 21
113.983400895
 31
0.0
  0
LINE
  5
315
330
1F
100
AcDbEntity
  8
0
  6
Continuous
 62
     7
370
    15
100
AcDbLine
 10
78.0103316995
 20
120.1892207776
 30
0.0
 11
78.0103316995
 21
116.9230575301
 31
0.0
  0
LINE
  5
316
330
1F
100
AcDbEntity
  8
0
  6
Continuous
 62
     7
370
    15
100
AcDbLine
 10
78.0103316995
 20
120.1892207776
 30
0.0
 11
83.1025180972
 21
117.2495641426
 31
0.0
  0
LINE
  5
317
330
1F
100
AcDbEntity
  8
0
  6
Continuous
 62
     7
370
    15
100
AcDbLine
 10
53.2615943578
 20
134.4763627347
 30
0.0
 11
78.0103316995
 21
120.1892207776
 31
0.0
  0
LINE
  5
318
330
1F
100
AcDbEntity
  8
0
  6
Continuous
 62
     7
370
    15
100
AcDbLine
 10
53.2615943578
 20
134.4763627347
 30
0.0
 11
61.8591825807
 21
139.4396447694
 31
0.0
  0
ARC
  5
319
330
1F
100
AcDbEntity
  8
0
  6
Continuous
 62
     7
370
    15
100
AcDbCircle
 10
75.8763072737
 20
120.2923306538
 30
0.0
 40
3.988240418072955
100
AcDbArc
 50
267.6422379416
 51
302.3492815903
  0
ARC
  5
31A
330
1F
100
AcDbEntity
  8
0
  6
Continuous
 62
     7
370
    15
100
AcDbCircle
 10
77.1895530742
 20
121.485095056
 30
0.0
 40
1.53393862233639
100
AcDbArc
 50
267.6422379416
 51
302.3492815903
  0
ARC
  5
31B
330
1F
100
AcDbEntity
  8
0
  6
Continuous
 62
     7
370
    15
100
AcDbCircle
 10
52.4408157319
 20
135.772237015
 30
0.0
 40
1.533938624259106
100
AcDbArc
 50
267.6422379641
 51
302.3492815678
  0
LINE
  5
31C
330
1F
100
AcDbEntity
  8
0
  6
Continuous
 62
     7
370
    15
100
AcDbLine
 10
70.8191455508
 20
103.0825801141
 30
0.0
 11
75.7122346607
 21
109.169536449
 31
0.0
  0
LINE
  5
31D
330
1F
100
AcDbEntity
  8
0
  6
Continuous
 62
     7
370
    15
100
AcDbLine
 10
70.8191455508
 20
103.0825801141
 30
0.0
 11
46.0704082092
 21
117.369722071
 31
0.0
  0
LINE
  5
31E
330
1F
100
AcDbEntity
  8
0
  6
Continuous
 62
     7
370
    15
100
AcDbLine
 10
50.9634973191
 20
123.4566784059
 30
0.0
 11
46.0704082092
 21
117.369722071
 31
0.0
  0
LINE
  5
31F
330
1F
100
AcDbEntity
  8
0
  6
Continuous
 62
     7
370
    15
100
AcDbLine
 10
75.7122346607
 20
109.169536449
 30
0.0
 11
50.9634973191
 21
123.4566784059
 31
0.0
  0
LINE
  5
320
330
1F
100
AcDbEntity
  8
0
  6
Continuous
 62
     7
370
    15
100
AcDbLine
 10
77.126448223
 20
107.1573642155
 30
0.0
 11
75.7122346607
 21
109.169536449
 31
0.0
  0
LINE
  5
321
330
1F
100
AcDbEntity
  8
0
  6
Continuous
 62
     7
370
    15
100
AcDbLine
 10
72.2333591131
 20
101.0704078806
 30
0.0
 11
77.126448223
 21
107.1573642155
 31
0.0
  0
LINE
  5
322
330
1F
100
AcDbEntity
  8
0
  6
Continuous
 62
     7
370
    15
100
AcDbLine
 10
72.2333591131
 20
101.0704078806
 30
0.0
 11
70.8191455508
 21
103.0825801141
 31
0.0
  0
LINE
  5
323
330
1F
100
AcDbEntity
  8
0
  6
Continuous
 62
     7
370
    15
100
AcDbLine
 10
72.2333591131
 20
101.0704078806
 30
0.0
 11
47.4846217716
 21
115.3575498375
 31
0.0
  0
LINE
  5
324
330
1F
100
AcDbEntity
  8
0
  6
Continuous
 62
     7
370
    15
100
AcDbLine
 10
46.0704082092
 20
117.369722071
 30
0.0
 11
47.4846217716
 21
115.3575498375
 31
0.0
  0
ARC
  5
325
330
1F
100
AcDbEntity
  8
0
  6
Continuous
 62
     7
370
    15
100
AcDbCircle
 10
82.3813512371
 20
103.9630364829
 30
0.0
 40
8.460777612429688
100
AcDbArc
 50
121.1058993555
 51
142.0212651329
  0
LINE
  5
326
330
1F
100
AcDbEntity
  8
0
  6
Continuous
 62
     7
370
    15
100
AcDbLine
 10
78.0103316995
 20
111.2072718469
 30
0.0
 11
78.0103316995
 21
107.9411085993
 31
0.0
  0
ARC
  5
327
330
1F
100
AcDbEntity
  8
0
  6
Continuous
 62
     7
370
    15
100
AcDbCircle
 10
79.6914930599
 20
105.1548642288
 30
0.0
 40
3.254145235206106
100
AcDbArc
 50
121.1058993539
 51
142.0212651336
  0
ARC
  5
328
330
1F
100
AcDbEntity
  8
0
  6
Continuous
 62
     7
370
    15
100
AcDbCircle
 10
57.6326138935
 20
118.2501784421
 30
0.0
 40
8.460777609408657
100
AcDbArc
 50
121.1058993512
 51
142.0212651362
  0
LINE
  5
329
330
1F
100
AcDbEntity
  8
0
  6
Continuous
 62
     7
370
    15
100
AcDbLine
 10
53.261594358
 20
125.4944138038
 30
0.0
 11
78.0103316995
 21
111.2072718469
 31
0.0
  0
LINE
  5
32A
330
1F
100
AcDbEntity
  8
0
  6
Continuous
 62
     7
370
    15
100
AcDbLine
 10
78.0103316995
 20
107.9411085993
 30
0.0
 11
101.8751855645
 21
121.7179954864
 31
0.0
  0
LINE
  5
32B
330
1F
100
AcDbEntity
  8
0
  6
Continuous
 62
     7
370
    15
100
AcDbLine
 10
78.0103316995
 20
111.2072718469
 30
0.0
 11
82.9608837063
 21
114.0651646885
 31
0.0
  0
LINE
  5
32C
330
1F
100
AcDbEntity
  8
0
  6
Continuous
 62
     7
370
    15
100
AcDbLine
 10
101.8751855645
 20
121.7179954864
 30
0.0
 11
101.8751855645
 21
122.6227962271
 31
0.0
  0
LINE
  5
32D
330
1F
100
AcDbEntity
  8
0
  6
Continuous
 62
     7
370
    15
100
AcDbLine
 10
48.1197056498
 20
128.4627629719
 30
0.0
 11
53.261594358
 21
125.4944138038
 31
0.0
  0
LINE
  5
32E
330
1F
100
AcDbEntity
  8
0
  6
Continuous
 62
     7
370
    15
100
AcDbLine
 10
48.1197056498
 20
128.4627629719
 30
0.0
 11
49.3204303405
 21
129.1559265815
 31
0.0
  0
LWPOLYLINE
  5
32F
330
1F
100
AcDbEntity
  8
0
  6
Continuous
 62
     7
370
    15
100
AcDbPolyline
 90
       13
 70
   128
 43
0.0
 10
49.7387906969
 20
150.9397447168
 10
49.1377228183
 20
151.3018789367
 10
48.5400852624
 20
151.5713062495
 10
47.9561037734
 20
151.7434166792
 10
47.3957704365
 20
151.8152653686
 10
46.8686727104
 20
151.7856229667
 10
46.3838293833
 20
151.6549966633
 10
45.9495362591
 20
151.4256215105
 10
45.5732242135
 20
151.1014221809
 10
45.2613320499
 20
150.6879458148
 10
45.0191963297
 20
150.1922671076
 10
44.8509600622
 20
149.6228672593
 10
44.7595018166
 20
148.9894888592
  0
LWPOLYLINE
  5
330
330
1F
100
AcDbEntity
  8
0
  6
Continuous
 62
     7
370
    15
100
AcDbPolyline
 90
        9
 70
   128
 43
0.0
 10
49.49227703
 20
147.8283195172
 10
49.1457547246
 20
148.0239974408
 10
48.8066282133
 20
148.1374241182
 10
48.4879299378
 20
148.1642406256
 10
48.201907294
 20
148.1034164197
 10
47.9595519719
 20
147.9572889407
 10
47.7701775504
 20
147.7314737857
 10
47.6410615824
 20
147.4346489043
 10
47.5771659222
 20
147.0782211104
  0
LINE
  5
331
330
1F
100
AcDbEntity
  8
0
  6
Continuous
 62
     7
370
    15
100
AcDbLine
 10
47.5771659222
 20
147.0782211104
 30
0.0
 11
44.7595018166
 21
148.9894888592
 31
0.0
  0
ARC
  5
332
330
1F
100
AcDbEntity
  8
0
  6
Continuous
 62
     7
370
    15
100
AcDbCircle
 10
118.1851089409
 20
189.2500650376
 30
0.0
 40
3.380510864683913
100
AcDbArc
 50
47.9462306919
 51
114.2039291029
  0
LINE
  5
333
330
1F
100
AcDbEntity
  8
0
  6
Continuous
 62
     7
370
    15
100
AcDbLine
 10
47.5771659222
 20
147.0782211104
 30
0.0
 11
49.184421167
 21
148.0060698134
 31
0.0
  0
LINE
  5
334
330
1F
100
AcDbEntity
  8
0
  6
Continuous
 62
     7
370
    15
100
AcDbLine
 10
43.5410014782
 20
133.6099250933
 30
0.0
 11
46.3351928421
 21
131.7145792901
 31
0.0
  0
LINE
  5
335
330
1F
100
AcDbEntity
  8
0
  6
Continuous
 62
     7
370
    15
100
AcDbLine
 10
44.7595018166
 20
148.9894888592
 30
0.0
 11
43.5410014782
 21
133.6099250933
 31
0.0
  0
LINE
  5
336
330
1F
100
AcDbEntity
  8
0
  6
Continuous
 62
     7
370
    15
100
AcDbLine
 10
47.5771659222
 20
147.0782211104
 30
0.0
 11
46.3662739143
 21
131.7946875231
 31
0.0
  0
LINE
  5
337
330
1F
100
AcDbEntity
  8
0
  6
Continuous
 62
     7
370
    15
100
AcDbLine
 10
50.9771148718
 20
134.3648313675
 30
0.0
 11
60.8976768282
 21
140.0918498819
 31
0.0
  0
ARC
  5
338
330
1F
100
AcDbEntity
  8
0
  6
Continuous
 62
     7
370
    15
100
AcDbCircle
 10
98.1113578266
 20
117.5380292595
 30
0.0
 40
10.14041108293121
100
AcDbArc
 50
2.8590674757
 51
44.3977669173
  0
ARC
  5
339
330
1F
100
AcDbEntity
  8
0
  6
Continuous
 62
     7
370
    15
100
AcDbCircle
 10
117.556794314
 20
128.7636407991
 30
0.0
 40
10.14041107812466
100
AcDbArc
 50
2.8590674655
 51
44.3977669276
  0
LINE
  5
33A
330
1F
100
AcDbEntity
  8
0
  6
Continuous
 62
     7
370
    15
100
AcDbLine
 10
127.6845830778
 20
129.2694387706
 30
0.0
 11
108.2391465952
 21
118.043827233
 31
0.0
  0
LINE
  5
33B
330
1F
100
AcDbEntity
  8
0
  6
Continuous
 62
     7
370
    15
100
AcDbLine
 10
103.6429525175
 20
123.6433063669
 30
0.0
 11
103.6429525176
 21
122.7385056262
 31
0.0
  0
LINE
  5
33C
330
1F
100
AcDbEntity
  8
0
  6
Continuous
 62
     7
370
    15
100
AcDbLine
 10
105.4107194705
 20
119.6766434567
 30
0.0
 11
108.2391465952
 21
118.043827233
 31
0.0
  0
ARC
  5
33D
330
1F
100
AcDbEntity
  8
0
  6
Continuous
 62
     7
370
    15
100
AcDbCircle
 10
101.5726792167
 20
119.5019913258
 30
0.0
 40
3.842012019388707
100
AcDbArc
 50
2.6054784892
 51
57.3945216564
  0
LINE
  5
33E
330
1F
100
AcDbEntity
  8
0
  6
Continuous
 62
     7
370
    15
100
AcDbLine
 10
48.1197056498
 20
128.4627629719
 30
0.0
 11
48.1197056498
 21
125.1965997244
 31
0.0
  0
LINE
  5
33F
330
1F
100
AcDbEntity
  8
0
  6
Continuous
 62
     7
370
    15
100
AcDbLine
 10
48.1197056498
 20
125.1965997244
 30
0.0
 11
51.0177449805
 21
123.5235972296
 31
0.0
  0
LINE
  5
340
330
1F
100
AcDbEntity
  8
0
  6
Continuous
 62
     7
370
    15
100
AcDbLine
 10
108.2391465952
 20
118.043827233
 30
0.0
 11
108.2391465952
 21
113.9611231736
 31
0.0
  0
LINE
  5
341
330
1F
100
AcDbEntity
  8
0
  6
Continuous
 62
     7
370
    15
100
AcDbLine
 10
105.4107194705
 20
115.5939393972
 30
0.0
 11
108.2391465952
 21
113.9611231736
 31
0.0
  0
LINE
  5
342
330
1F
100
AcDbEntity
  8
0
  6
Continuous
 62
     7
370
    15
100
AcDbLine
 10
105.4107194705
 20
119.6766434567
 30
0.0
 11
105.4107194705
 21
115.5939393972
 31
0.0
  0
LINE
  5
343
330
1F
100
AcDbEntity
  8
0
  6
Continuous
 62
     7
370
    15
100
AcDbLine
 10
127.6845830778
 20
129.2694387706
 30
0.0
 11
127.6845830778
 21
125.1867347111
 31
0.0
  0
LINE
  5
344
330
1F
100
AcDbEntity
  8
0
  6
Continuous
 62
     7
370
    15
100
AcDbLine
 10
127.6845830778
 20
125.1867347111
 30
0.0
 11
108.2391465952
 21
113.9611231736
 31
0.0
  0
LINE
  5
345
330
1F
100
AcDbEntity
  8
0
  6
Continuous
 62
     7
370
    15
100
AcDbLine
 10
102.8592871789
 20
123.1909059965
 30
0.0
 11
103.6429525176
 21
122.7385056262
 31
0.0
  0
ARC
  5
346
330
1F
100
AcDbEntity
  8
0
  6
Continuous
 62
     7
370
    15
100
AcDbCircle
 10
50.2183721413
 20
131.7283022673
 30
0.0
 40
3.881771236487555
100
AcDbArc
 50
193.5984517932
 51
237.2723321984
  0
ARC
  5
347
330
1F
100
AcDbEntity
  8
0
  6
Continuous
 62
     7
370
    15
100
AcDbCircle
 10
53.3520775515
 20
133.4967388275
 30
0.0
 40
9.811728942868342
100
AcDbArc
 50
179.3390319673
 51
237.7728454768
  0
LINE
  5
348
330
1F
100
AcDbEntity
  8
0
  6
Continuous
 62
     7
370
    15
100
AcDbLine
 10
148.7210098182
 20
149.6663149312
 30
0.0
 11
148.7210098182
 21
148.7615141905
 31
0.0
  0
LINE
  5
349
330
1F
100
AcDbEntity
  8
0
  6
Continuous
 62
     7
370
    15
100
AcDbLine
 10
124.8561559531
 20
135.8014998655
 30
0.0
 11
124.8561559531
 21
135.8894280442
 31
0.0
  0
LINE
  5
34A
330
1F
100
AcDbEntity
  8
0
  6
Continuous
 62
     7
370
    15
100
AcDbLine
 10
148.7210098182
 20
148.7615141905
 30
0.0
 11
125.3322383776
 21
135.2594638371
 31
0.0
  0
LINE
  5
34B
330
1F
100
AcDbEntity
  8
0
  6
Continuous
 62
     7
370
    15
100
AcDbLine
 10
149.6048932946
 20
148.9982799465
 30
0.0
 11
150.1940064088
 21
150.5166577629
 31
0.0
  0
ARC
  5
34C
330
1F
100
AcDbEntity
  8
0
  6
Continuous
 62
     7
370
    15
100
AcDbCircle
 10
149.5417884435
 20
147.4656399119
 30
0.0
 40
1.533938622572774
100
AcDbArc
 50
87.6422379444
 51
122.3492815875
  0
LINE
  5
34D
330
1F
100
AcDbEntity
  8
0
  6
Continuous
 62
     7
370
    15
100
AcDbLine
 10
154.4979824045
 20
148.560764046
 30
0.0
 11
149.6048932946
 21
148.9982799465
 31
0.0
  0
LINE
  5
34E
330
1F
100
AcDbEntity
  8
0
  6
Continuous
 62
     7
370
    15
100
AcDbLine
 10
155.9121959669
 20
152.2057525031
 30
0.0
 11
153.4944082018
 21
152.421939163
 31
0.0
  0
LINE
  5
34F
330
1F
100
AcDbEntity
  8
0
  6
Continuous
 62
     7
370
    15
100
AcDbLine
 10
154.4979824045
 20
148.560764046
 30
0.0
 11
155.9121959669
 21
152.2057525031
 31
0.0
  0
LINE
  5
350
330
1F
100
AcDbEntity
  8
0
  6
Continuous
 62
     7
370
    15
100
AcDbLine
 10
155.9121959669
 20
152.2057525031
 30
0.0
 11
154.5160586567
 21
153.0117254167
 31
0.0
  0
ENDSEC
  0
SECTION
  2
OBJECTS
  0
DICTIONARY
  5
C
330
0
100
AcDbDictionary
281
     1
  3
ACAD_GROUP
350
D
  3
ACAD_LAYOUT
350
1A
  3
ACAD_MLINESTYLE
350
17
  3
ACAD_PLOTSETTINGS
350
19
  3
ACAD_PLOTSTYLENAME
350
E
  0
DICTIONARY
  5
D
102
{ACAD_REACTORS
330
C
102
}
330
C
100
AcDbDictionary
281
     1
  0
DICTIONARY
  5
1A
102
{ACAD_REACTORS
330
C
102
}
330
C
100
AcDbDictionary
281
     1
  3
Layout1
350
1E
  3
Layout2
350
26
  3
Model
350
22
  0
DICTIONARY
  5
17
102
{ACAD_REACTORS
330
C
102
}
330
C
100
AcDbDictionary
281
     1
  3
Standard
350
18
  0
DICTIONARY
  5
19
102
{ACAD_REACTORS
330
C
102
}
330
C
100
AcDbDictionary
281
     1
  0
ACDBDICTIONARYWDFLT
  5
E
102
{ACAD_REACTORS
330
C
102
}
330
C
100
AcDbDictionary
281
     1
  3
Normal
350
F
100
AcDbDictionaryWithDefault
340
F
  0
LAYOUT
  5
1E
102
{ACAD_REACTORS
330
1A
102
}
330
1A
100
AcDbPlotSettings
  1

  2
none_device
  4

  6

 40
0.0
 41
0.0
 42
0.0
 43
0.0
 44
0.0
 45
0.0
 46
0.0
 47
0.0
 48
0.0
 49
0.0
140
0.0
141
0.0
142
1.0
143
1.0
 70
   688
 72
     0
 73
     0
 74
     5
  7

 75
    16
147
1.0
148
0.0
149
0.0
100
AcDbLayout
  1
Layout1
 70
     1
 71
     1
 10
0.0
 20
0.0
 11
420.0
 21
297.0
 12
0.0
 22
0.0
 32
0.0
 14
1.0000000000E+20
 24
1.0000000000E+20
 34
1.0000000000E+20
 15
-1.0000000000E+20
 25
-1.0000000000E+20
 35
-1.0000000000E+20
146
0.0
 13
0.0
 23
0.0
 33
0.0
 16
1.0
 26
0.0
 36
0.0
 17
0.0
 27
1.0
 37
0.0
 76
     0
330
1B
  0
LAYOUT
  5
26
102
{ACAD_REACTORS
330
1A
102
}
330
1A
100
AcDbPlotSettings
  1

  2
none_device
  4

  6

 40
0.0
 41
0.0
 42
0.0
 43
0.0
 44
0.0
 45
0.0
 46
0.0
 47
0.0
 48
0.0
 49
0.0
140
0.0
141
0.0
142
1.0
143
1.0
 70
   688
 72
     0
 73
     0
 74
     5
  7

 75
    16
147
1.0
148
0.0
149
0.0
100
AcDbLayout
  1
Layout2
 70
     1
 71
     2
 10
0.0
 20
0.0
 11
0.0
 21
0.0
 12
0.0
 22
0.0
 32
0.0
 14
0.0
 24
0.0
 34
0.0
 15
0.0
 25
0.0
 35
0.0
146
0.0
 13
0.0
 23
0.0
 33
0.0
 16
1.0
 26
0.0
 36
0.0
 17
0.0
 27
1.0
 37
0.0
 76
     0
330
23
  0
LAYOUT
  5
22
102
{ACAD_REACTORS
330
1A
102
}
330
1A
100
AcDbPlotSettings
  1

  2
none_device
  4

  6

 40
0.0
 41
0.0
 42
0.0
 43
0.0
 44
0.0
 45
0.0
 46
0.0
 47
0.0
 48
0.0
 49
0.0
140
0.0
141
0.0
142
1.0
143
1.0
 70
  1712
 72
     0
 73
     0
 74
     0
  7

 75
     0
147
1.0
148
0.0
149
0.0
100
AcDbLayout
  1
Model
 70
     1
 71
     0
 10
0.0
 20
0.0
 11
420.0
 21
297.0
 12
0.0
 22
0.0
 32
0.0
 14
0.0
 24
0.0
 34
0.0
 15
420.0
 25
297.0
 35
0.0
146
0.0
 13
0.0
 23
0.0
 33
0.0
 16
1.0
 26
0.0
 36
0.0
 17
0.0
 27
1.0
 37
0.0
 76
     0
330
1F
331
29
  0
MLINESTYLE
  5
18
102
{ACAD_REACTORS
330
17
102
}
330
17
100
AcDbMlineStyle
  2
Standard
 70
     0
  3

 62
   256
 51
90.0
 52
90.0
 71
     2
 49
0.5
 62
   256
  6
BYLAYER
 49
-0.5
 62
   256
  6
BYLAYER
  0
ACDBPLACEHOLDER
  5
F
102
{ACAD_REACTORS
330
E
102
}
330
E
  0
ENDSEC
  0
EOF
